<?xml version="1.0" encoding="UTF-8"?>
<svg xmlns="http://www.w3.org/2000/svg" xmlns:xlink="http://www.w3.org/1999/xlink" viewBox="0 0 158.63 67.89">
  <defs>
    <style>
      .cls-1 {
        fill: url(#linear-gradient-5);
      }

      .cls-1, .cls-2, .cls-3, .cls-4, .cls-5, .cls-6, .cls-7, .cls-8, .cls-9 {
        stroke-width: 0px;
      }

      .cls-1, .cls-2, .cls-3, .cls-4, .cls-6, .cls-8, .cls-9 {
        mix-blend-mode: multiply;
      }

      .cls-1, .cls-2, .cls-3, .cls-4, .cls-6, .cls-9 {
        opacity: .3;
      }

      .cls-2 {
        fill: url(#linear-gradient-2);
      }

      .cls-10 {
        isolation: isolate;
      }

      .cls-3 {
        fill: url(#linear-gradient-7);
      }

      .cls-4 {
        fill: url(#linear-gradient-6);
      }

      .cls-5 {
        fill: #d8a46c;
      }

      .cls-6 {
        fill: url(#linear-gradient-3);
      }

      .cls-7 {
        fill: #aa7139;
      }

      .cls-8 {
        fill: url(#linear-gradient);
        opacity: .13;
      }

      .cls-9 {
        fill: url(#linear-gradient-4);
      }
    </style>
    <linearGradient id="linear-gradient" x1="110.46" y1="-30.75" x2="108.84" y2="77.33" gradientUnits="userSpaceOnUse">
      <stop offset="0" stop-color="#a86349"/>
      <stop offset=".27" stop-color="#a36247"/>
      <stop offset=".56" stop-color="#966142"/>
      <stop offset=".85" stop-color="#816039"/>
      <stop offset="1" stop-color="#745f34"/>
    </linearGradient>
    <linearGradient id="linear-gradient-2" x1="16.36" y1="66.93" x2="15.32" y2="156.32" xlink:href="#linear-gradient"/>
    <linearGradient id="linear-gradient-3" x1="64.11" y1="67.48" x2="63.07" y2="156.88" xlink:href="#linear-gradient"/>
    <linearGradient id="linear-gradient-4" x1="149.53" y1="68.48" x2="148.49" y2="157.87" xlink:href="#linear-gradient"/>
    <linearGradient id="linear-gradient-5" x1="76.26" y1="-125.2" x2="72.62" y2="90.49" gradientUnits="userSpaceOnUse">
      <stop offset=".16" stop-color="#a86349"/>
      <stop offset=".27" stop-color="#a36247"/>
      <stop offset=".39" stop-color="#966142"/>
      <stop offset=".51" stop-color="#816039"/>
      <stop offset=".57" stop-color="#745f34"/>
    </linearGradient>
    <linearGradient id="linear-gradient-6" x1="99.15" y1="-14.07" x2="98.11" y2="170.43" xlink:href="#linear-gradient-5"/>
    <linearGradient id="linear-gradient-7" x1="42.83" y1="-14.39" x2="41.79" y2="170.12" xlink:href="#linear-gradient-5"/>
  </defs>
  <g class="cls-10">
    <g id="Layer_2" data-name="Layer 2">
      <g id="Layer_1-2" data-name="Layer 1">
        <g>
          <polygon class="cls-5" points="158.63 15.09 154.99 38.88 153.89 46.13 141.16 60.13 58.41 67.89 33.42 45.91 10.57 45.91 0 28.45 8.85 3.02 16.16 0 52.15 2.38 67.03 12.93 67.03 1.29 124.04 2.13 135.81 2.29 141.16 2.38 156.03 7.76 157.39 11.59 158.63 15.09"/>
          <path class="cls-8" d="M158.63,15.09l-3.63,23.79c-1.6.76-3.3,1.49-5.1,2.18,2.2-21.33-26.12-21.15-38.25-16.01-12.13,5.13-50.88,1.06-50.88,1.06,0,0,36.73.89,60.66-15.96,4.82-3.38,5.15-6.01,2.63-8.01l11.77.17c-.08,2.97.02,6.79.43,11.56.63,7.1,10.67,3.53,21.15-2.26l1.24,3.5Z"/>
          <polygon class="cls-7" points="158.63 15.09 153.89 46.13 141.16 60.13 125.62 61.58 71.8 66.63 58.41 67.89 49.33 59.91 35.56 47.8 33.42 45.91 10.57 45.91 0 28.45 21.15 28.45 29.32 30.59 58.41 48.87 70.25 48.87 142.53 37.18 158.63 15.09"/>
          <polygon class="cls-2" points="0 28.45 21.15 28.45 29.33 30.59 33.41 45.91 10.57 45.91 0 28.45"/>
          <polygon class="cls-6" points="58.41 67.89 58.41 48.87 70.25 48.87 64.33 67.33 58.41 67.89"/>
          <polygon class="cls-9" points="158.62 15.09 142.53 37.18 141.16 60.13 153.88 46.12 158.62 15.09"/>
          <polygon class="cls-1" points="67.03 1.3 80.88 21.05 67.03 12.93 67.03 1.3"/>
          <polygon class="cls-1" points="67.03 1.3 80.88 21.05 67.03 12.93 67.03 1.3"/>
          <path class="cls-4" d="M125.62,61.58l-53.82,5.05c5.51-9.15,14.86-18.56,30.99-16.11,12.2,1.85,19.02,6.37,22.83,11.06Z"/>
          <path class="cls-3" d="M49.33,59.91l-13.77-12.12c2.87-3.33,7.89-7.83,10.05-1.88,1.55,4.21,2.82,9.61,3.71,14Z"/>
        </g>
      </g>
    </g>
  </g>
</svg>