<?xml version="1.0" encoding="UTF-8"?>
<svg xmlns="http://www.w3.org/2000/svg" xmlns:xlink="http://www.w3.org/1999/xlink" viewBox="0 0 273.15 73.44">
  <defs>
    <style>
      .cls-1 {
        fill: url(#_ÂÁ_Ï_ÌÌ_È_ËÂÌÚ_9-2);
      }

      .cls-1, .cls-2, .cls-3, .cls-4, .cls-5, .cls-6, .cls-7, .cls-8, .cls-9, .cls-10, .cls-11, .cls-12, .cls-13, .cls-14, .cls-15, .cls-16, .cls-17, .cls-18, .cls-19, .cls-20, .cls-21 {
        stroke-width: 0px;
      }

      .cls-1, .cls-2, .cls-3, .cls-4, .cls-5, .cls-6, .cls-7, .cls-8, .cls-9, .cls-10, .cls-11, .cls-12, .cls-13, .cls-15, .cls-16, .cls-17, .cls-18, .cls-19, .cls-20, .cls-21 {
        fill-rule: evenodd;
      }

      .cls-2 {
        fill: url(#_ÂÁ_Ï_ÌÌ_È_ËÂÌÚ_3);
      }

      .cls-2, .cls-3, .cls-4, .cls-12, .cls-14, .cls-15, .cls-19, .cls-20, .cls-21 {
        mix-blend-mode: multiply;
      }

      .cls-2, .cls-3, .cls-4, .cls-12, .cls-15, .cls-19, .cls-20, .cls-21 {
        opacity: .5;
      }

      .cls-3 {
        fill: url(#_ÂÁ_Ï_ÌÌ_È_ËÂÌÚ_3-5);
      }

      .cls-22 {
        isolation: isolate;
      }

      .cls-4 {
        fill: url(#_ÂÁ_Ï_ÌÌ_È_ËÂÌÚ_3-3);
      }

      .cls-5 {
        fill: url(#_ÂÁ_Ï_ÌÌ_È_ËÂÌÚ_10);
      }

      .cls-6 {
        fill: url(#_ÂÁ_Ï_ÌÌ_È_ËÂÌÚ_10-2);
      }

      .cls-7 {
        fill: url(#_ÂÁ_Ï_ÌÌ_È_ËÂÌÚ_9-3);
      }

      .cls-8 {
        fill: url(#_ÂÁ_Ï_ÌÌ_È_ËÂÌÚ_10-4);
      }

      .cls-9 {
        fill: url(#_ÂÁ_Ï_ÌÌ_È_ËÂÌÚ_9-5);
      }

      .cls-10 {
        fill: url(#_ÂÁ_Ï_ÌÌ_È_ËÂÌÚ_9);
      }

      .cls-11 {
        fill: url(#_ÂÁ_Ï_ÌÌ_È_ËÂÌÚ_9-8);
      }

      .cls-12 {
        fill: url(#_ÂÁ_Ï_ÌÌ_È_ËÂÌÚ_3-2);
      }

      .cls-13 {
        fill: url(#_ÂÁ_Ï_ÌÌ_È_ËÂÌÚ_10-3);
      }

      .cls-14 {
        fill: url(#_ÂÁ_Ï_ÌÌ_È_ËÂÌÚ_148);
        opacity: .2;
      }

      .cls-15 {
        fill: url(#_ÂÁ_Ï_ÌÌ_È_ËÂÌÚ_3-7);
      }

      .cls-16 {
        fill: url(#_ÂÁ_Ï_ÌÌ_È_ËÂÌÚ_9-4);
      }

      .cls-17 {
        fill: url(#_ÂÁ_Ï_ÌÌ_È_ËÂÌÚ_9-6);
      }

      .cls-18 {
        fill: url(#_ÂÁ_Ï_ÌÌ_È_ËÂÌÚ_9-7);
      }

      .cls-19 {
        fill: url(#_ÂÁ_Ï_ÌÌ_È_ËÂÌÚ_3-4);
      }

      .cls-20 {
        fill: url(#_ÂÁ_Ï_ÌÌ_È_ËÂÌÚ_3-6);
      }

      .cls-21 {
        fill: url(#_ÂÁ_Ï_ÌÌ_È_ËÂÌÚ_3-8);
      }
    </style>
    <linearGradient id="_ÂÁ_Ï_ÌÌ_È_ËÂÌÚ_10" data-name="¡ÂÁ˚ÏˇÌÌ˚È „‡‰ËÂÌÚ 10" x1="169.31" y1="4.35" x2="131.03" y2="91.67" gradientTransform="translate(1.69 7.08) rotate(-1.16)" gradientUnits="userSpaceOnUse">
      <stop offset="0" stop-color="#cf3111"/>
      <stop offset="1" stop-color="#991632"/>
    </linearGradient>
    <linearGradient id="_ÂÁ_Ï_ÌÌ_È_ËÂÌÚ_3" data-name="¡ÂÁ˚ÏˇÌÌ˚È „‡‰ËÂÌÚ 3" x1="132.61" y1="20.73" x2="65.08" y2="90.68" gradientTransform="translate(1.69 7.08) rotate(-1.16)" gradientUnits="userSpaceOnUse">
      <stop offset="0" stop-color="#eb72ae"/>
      <stop offset="1" stop-color="#c33e60"/>
    </linearGradient>
    <linearGradient id="_ÂÁ_Ï_ÌÌ_È_ËÂÌÚ_3-2" data-name="¡ÂÁ˚ÏˇÌÌ˚È „‡‰ËÂÌÚ 3" x1="46.16" y1="179.34" x2="151.07" y2="-79.14" xlink:href="#_ÂÁ_Ï_ÌÌ_È_ËÂÌÚ_3"/>
    <linearGradient id="_ÂÁ_Ï_ÌÌ_È_ËÂÌÚ_9" data-name="¡ÂÁ˚ÏˇÌÌ˚È „‡‰ËÂÌÚ 9" x1="115.51" y1="-62.64" x2="185.6" y2="52.95" gradientTransform="translate(1.69 7.08) rotate(-1.16)" gradientUnits="userSpaceOnUse">
      <stop offset="0" stop-color="#bc2927"/>
      <stop offset="1" stop-color="#d76f00"/>
    </linearGradient>
    <linearGradient id="_ÂÁ_Ï_ÌÌ_È_ËÂÌÚ_9-2" data-name="¡ÂÁ˚ÏˇÌÌ˚È „‡‰ËÂÌÚ 9" x1="167.12" y1="63.43" x2="164.12" y2="42.97" xlink:href="#_ÂÁ_Ï_ÌÌ_È_ËÂÌÚ_9"/>
    <linearGradient id="_ÂÁ_Ï_ÌÌ_È_ËÂÌÚ_148" data-name="¡ÂÁ˚ÏˇÌÌ˚È „‡‰ËÂÌÚ 148" x1="104.06" y1="41.41" x2="214.93" y2="-19.29" gradientTransform="translate(1.69 7.08) rotate(-1.16)" gradientUnits="userSpaceOnUse">
      <stop offset="0" stop-color="#880041"/>
      <stop offset="1" stop-color="#fd916a"/>
    </linearGradient>
    <linearGradient id="_ÂÁ_Ï_ÌÌ_È_ËÂÌÚ_10-2" data-name="¡ÂÁ˚ÏˇÌÌ˚È „‡‰ËÂÌÚ 10" x1="145.22" y1="-9.04" x2="153.45" y2="2.33" xlink:href="#_ÂÁ_Ï_ÌÌ_È_ËÂÌÚ_10"/>
    <linearGradient id="_ÂÁ_Ï_ÌÌ_È_ËÂÌÚ_3-3" data-name="¡ÂÁ˚ÏˇÌÌ˚È „‡‰ËÂÌÚ 3" x1="224.65" y1="39" x2="223.9" y2="38.32" xlink:href="#_ÂÁ_Ï_ÌÌ_È_ËÂÌÚ_3"/>
    <linearGradient id="_ÂÁ_Ï_ÌÌ_È_ËÂÌÚ_3-4" data-name="¡ÂÁ˚ÏˇÌÌ˚È „‡‰ËÂÌÚ 3" x1="214.71" y1="29.22" x2="199.54" y2="15.56" xlink:href="#_ÂÁ_Ï_ÌÌ_È_ËÂÌÚ_3"/>
    <linearGradient id="_ÂÁ_Ï_ÌÌ_È_ËÂÌÚ_3-5" data-name="¡ÂÁ˚ÏˇÌÌ˚È „‡‰ËÂÌÚ 3" x1="216.35" y1="-28.63" x2="219.63" y2="-.27" xlink:href="#_ÂÁ_Ï_ÌÌ_È_ËÂÌÚ_3"/>
    <linearGradient id="_ÂÁ_Ï_ÌÌ_È_ËÂÌÚ_10-3" data-name="¡ÂÁ˚ÏˇÌÌ˚È „‡‰ËÂÌÚ 10" x1="43.8" y1="7.95" x2="23.73" y2="36.25" gradientTransform="translate(-16.49 29.26) rotate(-2.48)" xlink:href="#_ÂÁ_Ï_ÌÌ_È_ËÂÌÚ_10"/>
    <linearGradient id="_ÂÁ_Ï_ÌÌ_È_ËÂÌÚ_9-3" data-name="¡ÂÁ˚ÏˇÌÌ˚È „‡‰ËÂÌÚ 9" x1="24.31" y1="34.03" x2="31.03" y2="19.24" gradientTransform="translate(-16.49 29.26) rotate(-2.48)" xlink:href="#_ÂÁ_Ï_ÌÌ_È_ËÂÌÚ_9"/>
    <linearGradient id="_ÂÁ_Ï_ÌÌ_È_ËÂÌÚ_3-6" data-name="¡ÂÁ˚ÏˇÌÌ˚È „‡‰ËÂÌÚ 3" x1="34.57" y1="15.14" x2="20.81" y2="34.54" gradientTransform="translate(-16.49 29.26) rotate(-2.48)" xlink:href="#_ÂÁ_Ï_ÌÌ_È_ËÂÌÚ_3"/>
    <linearGradient id="_ÂÁ_Ï_ÌÌ_È_ËÂÌÚ_10-4" data-name="¡ÂÁ˚ÏˇÌÌ˚È „‡‰ËÂÌÚ 10" x1="253.32" y1=".91" x2="212.59" y2="58.34" gradientTransform="translate(-16.49 29.26) rotate(-2.48)" xlink:href="#_ÂÁ_Ï_ÌÌ_È_ËÂÌÚ_10"/>
    <linearGradient id="_ÂÁ_Ï_ÌÌ_È_ËÂÌÚ_9-4" data-name="¡ÂÁ˚ÏˇÌÌ˚È „‡‰ËÂÌÚ 9" x1="222.97" y1="46.01" x2="231.31" y2="27.65" gradientTransform="translate(-16.49 29.26) rotate(-2.48)" xlink:href="#_ÂÁ_Ï_ÌÌ_È_ËÂÌÚ_9"/>
    <linearGradient id="_ÂÁ_Ï_ÌÌ_È_ËÂÌÚ_3-7" data-name="¡ÂÁ˚ÏˇÌÌ˚È „‡‰ËÂÌÚ 3" x1="240.19" y1="14.21" x2="209.85" y2="56.98" gradientTransform="translate(-16.49 29.26) rotate(-2.48)" xlink:href="#_ÂÁ_Ï_ÌÌ_È_ËÂÌÚ_3"/>
    <linearGradient id="_ÂÁ_Ï_ÌÌ_È_ËÂÌÚ_9-5" data-name="¡ÂÁ˚ÏˇÌÌ˚È „‡‰ËÂÌÚ 9" x1="222.58" y1="76.62" x2="222.12" y2="62.12" gradientTransform="matrix(1,0,0,1,0,0)" xlink:href="#_ÂÁ_Ï_ÌÌ_È_ËÂÌÚ_9"/>
    <linearGradient id="_ÂÁ_Ï_ÌÌ_È_ËÂÌÚ_3-8" data-name="¡ÂÁ˚ÏˇÌÌ˚È „‡‰ËÂÌÚ 3" x1="102.5" y1="185.75" x2="98.86" y2="70.57" gradientTransform="matrix(1,0,0,1,0,0)" xlink:href="#_ÂÁ_Ï_ÌÌ_È_ËÂÌÚ_3"/>
    <linearGradient id="_ÂÁ_Ï_ÌÌ_È_ËÂÌÚ_9-6" data-name="¡ÂÁ˚ÏˇÌÌ˚È „‡‰ËÂÌÚ 9" x1="96.08" y1="96.31" x2="138.62" y2="-8.5" xlink:href="#_ÂÁ_Ï_ÌÌ_È_ËÂÌÚ_9"/>
    <linearGradient id="_ÂÁ_Ï_ÌÌ_È_ËÂÌÚ_9-7" data-name="¡ÂÁ˚ÏˇÌÌ˚È „‡‰ËÂÌÚ 9" x1="120.25" y1="-5.92" x2="122.61" y2="59.75" xlink:href="#_ÂÁ_Ï_ÌÌ_È_ËÂÌÚ_9"/>
    <linearGradient id="_ÂÁ_Ï_ÌÌ_È_ËÂÌÚ_9-8" data-name="¡ÂÁ˚ÏˇÌÌ˚È „‡‰ËÂÌÚ 9" x1="118.28" y1="79.12" x2="117.71" y2="61.21" gradientTransform="matrix(1,0,0,1,0,0)" xlink:href="#_ÂÁ_Ï_ÌÌ_È_ËÂÌÚ_9"/>
  </defs>
  <g class="cls-22">
    <g id="Layer_2" data-name="Layer 2">
      <g id="Layer_1-2" data-name="Layer 1">
        <g>
          <path class="cls-5" d="M273.15,41.15l-41.96.85-3.69.07-4.21.09h0l-68.09,1.39-1.07.02,5.45,2.92h0l7.42,3.98h.01s5.93,18.8,5.93,18.8c0,0-17.37,2.59-34.57,3.69-11.63.75-23.19.81-29.22-1.08-5.05-1.58-14.88-3.62-25.68-5.63-20.79-3.87-45.16-7.61-45.91-7.72,0,0-.01,0-.01,0,0,0,0,0,0,0l4.61-19L59.35,3.69l.19.02h0s3.37.37,3.37.37c0,0,.01,0,.02,0,0,0,.01,0,.02,0l89.77,9.78s0,0,0,0l39.62,4.31h0l72.44,7.89,8.35,15.08Z"/>
          <path class="cls-2" d="M172.95,69.27s-17.37,2.59-34.57,3.69c-11.63.75-23.19.81-29.22-1.08-5.05-1.58-14.88-3.62-25.68-5.63-20.79-3.87-45.16-7.61-45.91-7.72,0,0-.01,0-.01,0,0,0,0,0,0,0l4.61-19,38.89,22.51-4.39-25.4,51.38,7.88,38.97,5.98,5.93,18.79Z"/>
          <path class="cls-12" d="M171.81,33.37l-.5,9.03-16.73.81-26.53,1.29-34.31,1.66c-7.11-3.91-12.82-6.95-15.32-8.28,0,0,0,0,0,0-.84-.44-1.32-.69-1.36-.72l4.54,2.93s0,0,0,0l9.57,6.18,2.56-.12c6.01,3.31,22.54,8.9,29.44,12.92l.81.27c4.59,12.41,8.17,9.11,14.4,13.61-11.63.75-23.19.81-29.22-1.08-5.05-1.58-14.88-3.62-25.68-5.63-20.79-3.87-45.16-7.61-45.91-7.72,0,0-.01,0-.01,0,0,0,0,0,0,0l4.61-19L59.35,3.69s0,0,.02,0l112.45,29.68Z"/>
          <path class="cls-10" d="M264.79,26.07s-20.9,1.81-43.27,3.64c-3.33.27-6.69.54-10.03.81-3.29.26-6.55.52-9.72.77-12.92,1.01-24.3,1.83-29.96,2.09-17.35.78-106.81-27.87-112.21-29.6-.13-.04-.21-.07-.24-.08-.01,0-.02,0-.02,0h.16s.37-.02.37-.02l59.66-2.3c1.86.05,3.58.11,5.17.18,8.71.35,13.53.86,16.2,1.29,2.95.48,3.26.87,3.26.87l-.56-3.05v-.05s-.04-.17-.04-.17l11.33-.44,109.89,26.07Z"/>
          <path class="cls-1" d="M171.73,36.63c-6.68,1.27-29.37-8.2-28.07-8.3,1.3-.11,41.11,4.79,40.58,4.33-.53-.46-12.51,3.97-12.51,3.97Z"/>
          <path class="cls-14" d="M244.96,36.76l-11.15-1.98h0s0,0,0,0l-7.04-1.25,4.42,8.47-3.69.07-4.21.09h0l-68.09,1.39-1.07.02,5.45,2.92-54.54,2.85c-.16-.12-1.49-1.44-3.62-3.56C91.12,35.49,62.25,6.28,59.6,3.77c0,0-.01-.01-.02-.02-.02-.01-.03-.03-.04-.04h0s-.02-.02-.03-.03c-.04-.04-.07-.06-.09-.07.15.02.3.04.46.06.98.13,1.99.26,3.03.41,0,0,.01,0,.02,0,0,0,.01,0,.02,0,35.93,5.04,106.78,21.06,138.82,27.2,4.57.88,8.35,1.55,11.13,1.96,2.54.38,4.24.54,4.94.43,1.52-.23-.91-1.36-6.35-3.17-.44-.15-.9-.3-1.38-.45-11.01-3.56-32.16-9.42-57.38-16.2,0,0,0,0,0,0-2.88-.77-5.81-1.56-8.78-2.35l-.52-.14c-12.45-3.33-15.8-6.64-18.72-9.82,8.71.35,13.53.86,16.2,1.29,2.95.48,3.26.87,3.26.87l-.56-3.05v-.05c1.21.42,2.41.83,3.6,1.25,6.64,2.3,12.85,4.49,18.62,6.56,10.3,3.7,19.18,6.98,26.53,9.77h0c3.07,1.16,5.87,2.24,8.4,3.22,1.19.46,2.33.9,3.42,1.33,0,0,0,0,0,0,.12.05.24.09.36.14.99.39,1.94.76,2.85,1.12.72.28,1.42.56,2.09.83,6.91,2.74,11.17,4.52,12.06,4.9.12.05.17.07.17.07l4.91,1.74,16.81,3.38,1.54,1.87Z"/>
          <path class="cls-6" d="M168.84,9.02c-.14-.03-1.28-.26-3.02-.61-6.6-1.34-21.82-4.48-23.82-5.1-.3-.09-.67-.26-1.1-.47,2.95.48,3.26.87,3.26.87l-.56-3.05,3.6,1.19,21.64,7.17Z"/>
          <path class="cls-4" d="M226.56,40.89c.14.15.53.57,1.08,1.18h-.15c-.48-.61-.82-1.03-.94-1.18Z"/>
          <path class="cls-19" d="M228.77,42.05l-1.27.03-4.21.09h0c-3.52-2-7.2-5.43-10.38-8.91-.82-.89-1.6-1.79-2.35-2.66-.15-.18-.3-.35-.45-.53-2.61-3.1-4.63-5.87-5.58-7.2-.38-.53-.59-.84-.59-.84,0,0,1.39.8,3.43,1.95,2.96,1.67,7.29,4.11,10.81,5.99h0c3.19,1.71,5.7,2.97,5.88,2.8.39-.38,3.27,6.03,4.69,9.28Z"/>
          <polygon class="cls-3" points="183.1 32.68 180.72 43.33 272.7 41.17 264.79 26.07 183.1 32.68"/>
          <polygon class="cls-13" points="23.41 51.54 25.38 59.58 16.94 60.24 0 59.88 3.55 51.72 23.41 51.54"/>
          <path class="cls-7" d="M17.29,54.78l-13.74-3.06,15.78-2.56,4.13,2.48s-1.12,1.82-6.18,3.14Z"/>
          <polygon class="cls-20" points="17.06 54.81 16.94 60.24 0 59.88 3.55 51.72 17.06 54.81"/>
          <polygon class="cls-8" points="233.96 55.91 232.14 66.72 222.49 70.52 178.93 67.98 192.91 49.23 233.96 55.91"/>
          <path class="cls-16" d="M223.88,61.24l-30.97-12.02,34.34,2.76,6.81,4.08s-1.84,3-10.18,5.18Z"/>
          <polygon class="cls-15" points="223.49 61.29 222.49 70.52 178.93 67.98 192.91 49.23 223.49 61.29"/>
          <path class="cls-9" d="M216.5,58l11.04,2.03s-3.7,2.49-4.13,2.39c-.43-.1-6.9-4.42-6.9-4.42Z"/>
          <polygon class="cls-21" points="112.71 72.89 119.31 61.51 110.42 56.17 77.06 37.16 81.63 65.28 112.71 72.89"/>
          <path class="cls-17" d="M76.67,36.62c2.06-.92,52.27-2.82,62.03-.37,9.76,2.44,28.32,14.23,28.32,14.23,0,0-25.66,7.7-41.87,8.91-16.21,1.21-48.48-22.77-48.48-22.77Z"/>
          <path class="cls-18" d="M81.58,36.17c28.57-4.58,67.21,19.1,67.21,19.1l18.24-4.79s-17.62-12.44-28.32-14.23c-10.7-1.79-57.12-.08-57.12-.08Z"/>
          <path class="cls-11" d="M110.42,56.17c5.86-.51,14.37,3.18,14.37,3.18-3.75,1.31-5.65,2.59-5.48,2.16.18-.45-8.89-5.34-8.89-5.34Z"/>
        </g>
      </g>
    </g>
  </g>
</svg>