<?xml version="1.0" encoding="UTF-8"?>
<svg xmlns="http://www.w3.org/2000/svg" xmlns:xlink="http://www.w3.org/1999/xlink" viewBox="0 0 172.85 120.26">
  <defs>
    <style>
      .cls-1 {
        fill: url(#_ÂÁ_Ï_ÌÌ_È_ËÂÌÚ_4-3);
      }

      .cls-1, .cls-2, .cls-3, .cls-4, .cls-5, .cls-6, .cls-7, .cls-8, .cls-9, .cls-10, .cls-11, .cls-12, .cls-13, .cls-14, .cls-15 {
        stroke-width: 0px;
      }

      .cls-1, .cls-2, .cls-4, .cls-5, .cls-6, .cls-7, .cls-8, .cls-9, .cls-10, .cls-11, .cls-12, .cls-13, .cls-14, .cls-15 {
        mix-blend-mode: multiply;
      }

      .cls-1, .cls-4, .cls-5, .cls-6, .cls-7, .cls-8, .cls-9, .cls-10, .cls-12, .cls-13, .cls-15 {
        opacity: .3;
      }

      .cls-2 {
        fill: url(#linear-gradient-2);
      }

      .cls-2, .cls-11, .cls-14 {
        opacity: .13;
      }

      .cls-3 {
        fill: #ad6e3e;
      }

      .cls-4 {
        fill: url(#_ÂÁ_Ï_ÌÌ_È_ËÂÌÚ_4-5);
      }

      .cls-16 {
        isolation: isolate;
      }

      .cls-5 {
        fill: url(#_ÂÁ_Ï_ÌÌ_È_ËÂÌÚ_4-4);
      }

      .cls-6 {
        fill: url(#_ÂÁ_Ï_ÌÌ_È_ËÂÌÚ_4-7);
      }

      .cls-7 {
        fill: url(#_ÂÁ_Ï_ÌÌ_È_ËÂÌÚ_4-11);
      }

      .cls-8 {
        fill: url(#_ÂÁ_Ï_ÌÌ_È_ËÂÌÚ_4-2);
      }

      .cls-9 {
        fill: url(#_ÂÁ_Ï_ÌÌ_È_ËÂÌÚ_4);
      }

      .cls-10 {
        fill: url(#_ÂÁ_Ï_ÌÌ_È_ËÂÌÚ_4-10);
      }

      .cls-11 {
        fill: url(#linear-gradient-3);
      }

      .cls-12 {
        fill: url(#_ÂÁ_Ï_ÌÌ_È_ËÂÌÚ_4-9);
      }

      .cls-13 {
        fill: url(#_ÂÁ_Ï_ÌÌ_È_ËÂÌÚ_4-8);
      }

      .cls-14 {
        fill: url(#linear-gradient);
      }

      .cls-15 {
        fill: url(#_ÂÁ_Ï_ÌÌ_È_ËÂÌÚ_4-6);
      }
    </style>
    <linearGradient id="_ÂÁ_Ï_ÌÌ_È_ËÂÌÚ_4" data-name="¡ÂÁ˚ÏˇÌÌ˚È „‡‰ËÂÌÚ 4" x1="22.63" y1="161.52" x2="41.28" y2="33.33" gradientUnits="userSpaceOnUse">
      <stop offset="0" stop-color="#a86349"/>
      <stop offset=".26" stop-color="#a06245"/>
      <stop offset=".65" stop-color="#8c603d"/>
      <stop offset="1" stop-color="#745f34"/>
    </linearGradient>
    <linearGradient id="_ÂÁ_Ï_ÌÌ_È_ËÂÌÚ_4-2" data-name="¡ÂÁ˚ÏˇÌÌ˚È „‡‰ËÂÌÚ 4" x1="21.84" y1="134.83" x2="17.18" y2="17.71" xlink:href="#_ÂÁ_Ï_ÌÌ_È_ËÂÌÚ_4"/>
    <linearGradient id="_ÂÁ_Ï_ÌÌ_È_ËÂÌÚ_4-3" data-name="¡ÂÁ˚ÏˇÌÌ˚È „‡‰ËÂÌÚ 4" x1="104.24" y1="131.24" x2="105.4" y2="17.62" xlink:href="#_ÂÁ_Ï_ÌÌ_È_ËÂÌÚ_4"/>
    <linearGradient id="_ÂÁ_Ï_ÌÌ_È_ËÂÌÚ_4-4" data-name="¡ÂÁ˚ÏˇÌÌ˚È „‡‰ËÂÌÚ 4" x1="104.24" y1="131.24" x2="105.4" y2="17.62" xlink:href="#_ÂÁ_Ï_ÌÌ_È_ËÂÌÚ_4"/>
    <linearGradient id="_ÂÁ_Ï_ÌÌ_È_ËÂÌÚ_4-5" data-name="¡ÂÁ˚ÏˇÌÌ˚È „‡‰ËÂÌÚ 4" x1="104.24" y1="131.24" x2="105.4" y2="17.62" xlink:href="#_ÂÁ_Ï_ÌÌ_È_ËÂÌÚ_4"/>
    <linearGradient id="_ÂÁ_Ï_ÌÌ_È_ËÂÌÚ_4-6" data-name="¡ÂÁ˚ÏˇÌÌ˚È „‡‰ËÂÌÚ 4" x1="113.12" y1="174.69" x2="131.77" y2="46.49" xlink:href="#_ÂÁ_Ï_ÌÌ_È_ËÂÌÚ_4"/>
    <linearGradient id="_ÂÁ_Ï_ÌÌ_È_ËÂÌÚ_4-7" data-name="¡ÂÁ˚ÏˇÌÌ˚È „‡‰ËÂÌÚ 4" x1="139.23" y1="28.46" x2="164.03" y2="28.46" xlink:href="#_ÂÁ_Ï_ÌÌ_È_ËÂÌÚ_4"/>
    <linearGradient id="_ÂÁ_Ï_ÌÌ_È_ËÂÌÚ_4-8" data-name="¡ÂÁ˚ÏˇÌÌ˚È „‡‰ËÂÌÚ 4" x1="105.46" y1="30.92" x2="127.84" y2="30.92" xlink:href="#_ÂÁ_Ï_ÌÌ_È_ËÂÌÚ_4"/>
    <linearGradient id="_ÂÁ_Ï_ÌÌ_È_ËÂÌÚ_4-9" data-name="¡ÂÁ˚ÏˇÌÌ˚È „‡‰ËÂÌÚ 4" x1="128.98" y1="132.53" x2="138.59" y2="37.84" xlink:href="#_ÂÁ_Ï_ÌÌ_È_ËÂÌÚ_4"/>
    <linearGradient id="_ÂÁ_Ï_ÌÌ_È_ËÂÌÚ_4-10" data-name="¡ÂÁ˚ÏˇÌÌ˚È „‡‰ËÂÌÚ 4" x1="38.37" y1="138.26" x2="53.68" y2="-12.53" xlink:href="#_ÂÁ_Ï_ÌÌ_È_ËÂÌÚ_4"/>
    <linearGradient id="linear-gradient" x1="20.09" y1="13.75" x2="21.62" y2="-1.35" gradientUnits="userSpaceOnUse">
      <stop offset="0" stop-color="#a86349"/>
      <stop offset=".27" stop-color="#a36247"/>
      <stop offset=".56" stop-color="#966142"/>
      <stop offset=".85" stop-color="#816039"/>
      <stop offset="1" stop-color="#745f34"/>
    </linearGradient>
    <linearGradient id="linear-gradient-2" x1="41.2" y1="22.87" x2="43.61" y2="-.93" xlink:href="#linear-gradient"/>
    <linearGradient id="_ÂÁ_Ï_ÌÌ_È_ËÂÌÚ_4-11" data-name="¡ÂÁ˚ÏˇÌÌ˚È „‡‰ËÂÌÚ 4" x1="150.75" y1="127.51" x2="159.07" y2="45.59" xlink:href="#_ÂÁ_Ï_ÌÌ_È_ËÂÌÚ_4"/>
    <linearGradient id="linear-gradient-3" x1="59.37" y1="117.42" x2="71.97" y2="-6.6" xlink:href="#linear-gradient"/>
  </defs>
  <g class="cls-16">
    <g id="Layer_2" data-name="Layer 2">
      <g id="Layer_1-2" data-name="Layer 1">
        <g>
          <path class="cls-3" d="M172.84,63.15l-19.4,48.92-20.69,1.5-8.83,3.67-45.91,3.02v-3.24l-3.67,1.3-36.85-3.67s-7.54-4.31-12.71-7.54c7.76-26.94-11.42-58.41-11.42-58.41L0,4.74,8.11,1.87l5.25-1.87,21.18,1.4,25.49,1.7,2.79.18,93.21,6.21s7.99,9.01,7.99,7.86c.51,3.1,8.82,45.8,8.82,45.8Z"/>
          <path class="cls-9" d="M82.42,41.82l-8.07,76.51-36.85-3.67s-7.54-4.31-12.71-7.54c7.76-26.94-11.42-58.41-11.42-58.41L0,4.73l7.61,10.98,17.27,8.65,57.54,17.45Z"/>
          <path class="cls-8" d="M37.5,114.66s-7.54-4.31-12.71-7.54c7.76-26.94-11.42-58.41-11.42-58.41L0,4.73l7.61,10.98s2.31,17.47,9.26,32.24c22.27,23.69,20.62,66.7,20.62,66.7Z"/>
          <path class="cls-1" d="M82.42,41.82s-6.41,57.8-8.07,76.51l3.67-1.3,15.09-66.03,18.7-20.48,23.51-2.32-15.67-10.86,8.19,7.05-21.55,1.5-23.87,15.94Z"/>
          <path class="cls-5" d="M82.42,41.82s-6.41,57.8-8.07,76.51l3.67-1.3,15.09-66.03,18.7-20.48,23.51-2.32-15.67-10.86,8.19,7.05-21.55,1.5-23.87,15.94Z"/>
          <path class="cls-4" d="M82.42,41.82s-6.41,57.8-8.07,76.51l3.67-1.3,15.09-66.03,18.7-20.48,23.51-2.32-15.67-10.86,8.19,7.05-21.55,1.5-23.87,15.94Z"/>
          <polygon class="cls-15" points="172.85 63.15 153.45 112.06 132.76 113.57 123.93 117.23 78.01 120.25 78.01 117.02 93.1 50.99 139.23 47.43 144.22 47.43 172.85 63.15"/>
          <polygon class="cls-6" points="156.04 9.49 139.23 47.43 144.22 47.43 164.03 17.35 156.04 9.49"/>
          <polygon class="cls-13" points="106.29 25.88 127.84 24.37 127.18 28.99 111.81 30.51 105.46 37.46 106.29 25.88"/>
          <polygon class="cls-12" points="144.22 47.43 139.23 47.43 123.93 117.23 132.76 113.57 144.22 47.43"/>
          <path class="cls-10" d="M53.25,116.22S36.49,31.55,31.19,26.28c19.17-8.18,48.6-21.54,48.6-21.54l-1.77-.44L22.22,23.03s12.7,17.21,12.99,25.07c.29,7.87,8.8,60.12,6,66.33,6.81,1.27,12.04,1.79,12.04,1.79Z"/>
          <path class="cls-14" d="M34.54,1.4c-9.06,2.31-17.29,5.55-17.4,9.69-2.01-4.08-5.5-7.08-9.03-9.23l5.25-1.87,21.18,1.4Z"/>
          <path class="cls-2" d="M62.82,3.29l-39.56,14.05c-.58-.12-4.66-10.58,13.11-10.88,7.89-.15,16.51-1.68,23.66-3.35l2.79.18Z"/>
          <polygon class="cls-7" points="172.85 63.15 154.17 52.89 136.63 113.29 153.45 112.06 172.85 63.15"/>
          <path class="cls-11" d="M37.53,28.46s42.26-17.38,46.92-18.97c-15.15,8.89-25.35,12.68-14.28,17.63,11.07,4.95,31.17-18.94,31.17-18.94,0,0-20.49,29.44-27,31.18-6.51,1.74-4.78,59.72-4.78,59.72,0,0-4.65-56.81-8.72-58.56-4.66-1.75-4.66,18.65,1.97,25.64-7.8-1.46-8.26-28.56-11.82-28.7-3.56-.14-6.49,27.88-13.47-9Z"/>
        </g>
      </g>
    </g>
  </g>
</svg>