<?xml version="1.0" encoding="UTF-8"?>
<svg xmlns="http://www.w3.org/2000/svg" xmlns:xlink="http://www.w3.org/1999/xlink" viewBox="0 0 177.68 169.15">
  <defs>
    <style>
      .cls-1 {
        fill: url(#_ÂÁ_Ï_ÌÌ_È_ËÂÌÚ_9-2);
      }

      .cls-1, .cls-2, .cls-3, .cls-4, .cls-5, .cls-6, .cls-7, .cls-8, .cls-9, .cls-10, .cls-11, .cls-12, .cls-13, .cls-14, .cls-15, .cls-16, .cls-17, .cls-18, .cls-19, .cls-20, .cls-21, .cls-22, .cls-23, .cls-24, .cls-25, .cls-26, .cls-27, .cls-28 {
        fill-rule: evenodd;
        stroke-width: 0px;
      }

      .cls-2 {
        fill: url(#_ÂÁ_Ï_ÌÌ_È_ËÂÌÚ_3);
      }

      .cls-2, .cls-5, .cls-6, .cls-21, .cls-27, .cls-28 {
        mix-blend-mode: multiply;
        opacity: .5;
      }

      .cls-3 {
        fill: url(#_ÂÁ_Ï_ÌÌ_È_ËÂÌÚ_10-7);
      }

      .cls-4 {
        fill: url(#_ÂÁ_Ï_ÌÌ_È_ËÂÌÚ_10-5);
      }

      .cls-5 {
        fill: url(#_ÂÁ_Ï_ÌÌ_È_ËÂÌÚ_3-5);
      }

      .cls-29 {
        isolation: isolate;
      }

      .cls-6 {
        fill: url(#_ÂÁ_Ï_ÌÌ_È_ËÂÌÚ_3-3);
      }

      .cls-7 {
        fill: url(#_ÂÁ_Ï_ÌÌ_È_ËÂÌÚ_9-12);
      }

      .cls-8 {
        fill: url(#_ÂÁ_Ï_ÌÌ_È_ËÂÌÚ_9-13);
      }

      .cls-9 {
        fill: url(#_ÂÁ_Ï_ÌÌ_È_ËÂÌÚ_10-6);
      }

      .cls-10 {
        fill: url(#_ÂÁ_Ï_ÌÌ_È_ËÂÌÚ_10);
      }

      .cls-11 {
        fill: url(#_ÂÁ_Ï_ÌÌ_È_ËÂÌÚ_10-2);
      }

      .cls-12 {
        fill: url(#_ÂÁ_Ï_ÌÌ_È_ËÂÌÚ_9-3);
      }

      .cls-13 {
        fill: url(#_ÂÁ_Ï_ÌÌ_È_ËÂÌÚ_10-4);
      }

      .cls-14 {
        fill: #b25460;
        mix-blend-mode: color-dodge;
        opacity: .4;
      }

      .cls-15 {
        fill: url(#_ÂÁ_Ï_ÌÌ_È_ËÂÌÚ_9-5);
      }

      .cls-16 {
        fill: url(#_ÂÁ_Ï_ÌÌ_È_ËÂÌÚ_9-9);
      }

      .cls-17 {
        fill: url(#_ÂÁ_Ï_ÌÌ_È_ËÂÌÚ_9-10);
      }

      .cls-18 {
        fill: url(#_ÂÁ_Ï_ÌÌ_È_ËÂÌÚ_9-11);
      }

      .cls-19 {
        fill: url(#_ÂÁ_Ï_ÌÌ_È_ËÂÌÚ_9);
      }

      .cls-20 {
        fill: url(#_ÂÁ_Ï_ÌÌ_È_ËÂÌÚ_9-8);
      }

      .cls-21 {
        fill: url(#_ÂÁ_Ï_ÌÌ_È_ËÂÌÚ_3-2);
      }

      .cls-22 {
        fill: url(#_ÂÁ_Ï_ÌÌ_È_ËÂÌÚ_10-3);
      }

      .cls-23 {
        fill: url(#_ÂÁ_Ï_ÌÌ_È_ËÂÌÚ_9-4);
      }

      .cls-24 {
        fill: #7a1137;
      }

      .cls-25 {
        fill: url(#_ÂÁ_Ï_ÌÌ_È_ËÂÌÚ_9-6);
      }

      .cls-26 {
        fill: url(#_ÂÁ_Ï_ÌÌ_È_ËÂÌÚ_9-7);
      }

      .cls-27 {
        fill: url(#_ÂÁ_Ï_ÌÌ_È_ËÂÌÚ_3-4);
      }

      .cls-28 {
        fill: url(#_ÂÁ_Ï_ÌÌ_È_ËÂÌÚ_3-6);
      }
    </style>
    <linearGradient id="_ÂÁ_Ï_ÌÌ_È_ËÂÌÚ_10" data-name="¡ÂÁ˚ÏˇÌÌ˚È „‡‰ËÂÌÚ 10" x1="-6171.88" y1="16.14" x2="-6182.54" y2="3.88" gradientTransform="translate(6316.94)" gradientUnits="userSpaceOnUse">
      <stop offset="0" stop-color="#cf3111"/>
      <stop offset="1" stop-color="#991632"/>
    </linearGradient>
    <linearGradient id="_ÂÁ_Ï_ÌÌ_È_ËÂÌÚ_10-2" data-name="¡ÂÁ˚ÏˇÌÌ˚È „‡‰ËÂÌÚ 10" x1="-6279.72" y1="-5.21" x2="-6136.87" y2="170.53" xlink:href="#_ÂÁ_Ï_ÌÌ_È_ËÂÌÚ_10"/>
    <linearGradient id="_ÂÁ_Ï_ÌÌ_È_ËÂÌÚ_10-3" data-name="¡ÂÁ˚ÏˇÌÌ˚È „‡‰ËÂÌÚ 10" x1="-6317.88" y1="54.28" x2="-6223.85" y2="95.86" xlink:href="#_ÂÁ_Ï_ÌÌ_È_ËÂÌÚ_10"/>
    <linearGradient id="_ÂÁ_Ï_ÌÌ_È_ËÂÌÚ_9" data-name="¡ÂÁ˚ÏˇÌÌ˚È „‡‰ËÂÌÚ 9" x1="-6146.83" y1="221.02" x2="-6291.14" y2="59.49" gradientTransform="translate(6316.94)" gradientUnits="userSpaceOnUse">
      <stop offset="0" stop-color="#bc2927"/>
      <stop offset="1" stop-color="#d76f00"/>
    </linearGradient>
    <linearGradient id="_ÂÁ_Ï_ÌÌ_È_ËÂÌÚ_9-2" data-name="¡ÂÁ˚ÏˇÌÌ˚È „‡‰ËÂÌÚ 9" x1="-6146.98" y1="218.33" x2="-6291" y2="57.13" xlink:href="#_ÂÁ_Ï_ÌÌ_È_ËÂÌÚ_9"/>
    <linearGradient id="_ÂÁ_Ï_ÌÌ_È_ËÂÌÚ_9-3" data-name="¡ÂÁ˚ÏˇÌÌ˚È „‡‰ËÂÌÚ 9" x1="-6170.56" y1="208.68" x2="-6242.53" y2="66.79" xlink:href="#_ÂÁ_Ï_ÌÌ_È_ËÂÌÚ_9"/>
    <linearGradient id="_ÂÁ_Ï_ÌÌ_È_ËÂÌÚ_9-4" data-name="¡ÂÁ˚ÏˇÌÌ˚È „‡‰ËÂÌÚ 9" x1="-6233.7" y1="104.69" x2="-6219.66" y2="150.74" xlink:href="#_ÂÁ_Ï_ÌÌ_È_ËÂÌÚ_9"/>
    <linearGradient id="_ÂÁ_Ï_ÌÌ_È_ËÂÌÚ_9-5" data-name="¡ÂÁ˚ÏˇÌÌ˚È „‡‰ËÂÌÚ 9" x1="-6072.88" y1="140.39" x2="-6164.73" y2="52.53" xlink:href="#_ÂÁ_Ï_ÌÌ_È_ËÂÌÚ_9"/>
    <linearGradient id="_ÂÁ_Ï_ÌÌ_È_ËÂÌÚ_9-6" data-name="¡ÂÁ˚ÏˇÌÌ˚È „‡‰ËÂÌÚ 9" x1="-6151.72" y1="138.26" x2="-6278.05" y2="32.61" xlink:href="#_ÂÁ_Ï_ÌÌ_È_ËÂÌÚ_9"/>
    <linearGradient id="_ÂÁ_Ï_ÌÌ_È_ËÂÌÚ_9-7" data-name="¡ÂÁ˚ÏˇÌÌ˚È „‡‰ËÂÌÚ 9" x1="-6113.13" y1="180.06" x2="-6248.47" y2="28.57" xlink:href="#_ÂÁ_Ï_ÌÌ_È_ËÂÌÚ_9"/>
    <linearGradient id="_ÂÁ_Ï_ÌÌ_È_ËÂÌÚ_9-8" data-name="¡ÂÁ˚ÏˇÌÌ˚È „‡‰ËÂÌÚ 9" x1="-6092.25" y1="163.98" x2="-6221.92" y2="18.85" xlink:href="#_ÂÁ_Ï_ÌÌ_È_ËÂÌÚ_9"/>
    <linearGradient id="_ÂÁ_Ï_ÌÌ_È_ËÂÌÚ_9-9" data-name="¡ÂÁ˚ÏˇÌÌ˚È „‡‰ËÂÌÚ 9" x1="-6152.28" y1="181.17" x2="-6183.22" y2="118.58" xlink:href="#_ÂÁ_Ï_ÌÌ_È_ËÂÌÚ_9"/>
    <linearGradient id="_ÂÁ_Ï_ÌÌ_È_ËÂÌÚ_10-4" data-name="¡ÂÁ˚ÏˇÌÌ˚È „‡‰ËÂÌÚ 10" x1="-6143.66" y1="173.94" x2="-6190.28" y2="118.12" xlink:href="#_ÂÁ_Ï_ÌÌ_È_ËÂÌÚ_10"/>
    <linearGradient id="_ÂÁ_Ï_ÌÌ_È_ËÂÌÚ_10-5" data-name="¡ÂÁ˚ÏˇÌÌ˚È „‡‰ËÂÌÚ 10" x1="-6196.84" y1="110.79" x2="-6083.44" y2="195.77" xlink:href="#_ÂÁ_Ï_ÌÌ_È_ËÂÌÚ_10"/>
    <linearGradient id="_ÂÁ_Ï_ÌÌ_È_ËÂÌÚ_9-10" data-name="¡ÂÁ˚ÏˇÌÌ˚È „‡‰ËÂÌÚ 9" x1="-6214.79" y1="105.21" x2="-6248.29" y2="82.43" xlink:href="#_ÂÁ_Ï_ÌÌ_È_ËÂÌÚ_9"/>
    <linearGradient id="_ÂÁ_Ï_ÌÌ_È_ËÂÌÚ_10-6" data-name="¡ÂÁ˚ÏˇÌÌ˚È „‡‰ËÂÌÚ 10" x1="-6229.01" y1="89.82" x2="-6172.23" y2="89.82" xlink:href="#_ÂÁ_Ï_ÌÌ_È_ËÂÌÚ_10"/>
    <linearGradient id="_ÂÁ_Ï_ÌÌ_È_ËÂÌÚ_3" data-name="¡ÂÁ˚ÏˇÌÌ˚È „‡‰ËÂÌÚ 3" x1="-6185.96" y1="110.45" x2="-6153.25" y2="70.47" gradientTransform="translate(6316.94)" gradientUnits="userSpaceOnUse">
      <stop offset="0" stop-color="#eb72ae"/>
      <stop offset="1" stop-color="#c33e60"/>
    </linearGradient>
    <linearGradient id="_ÂÁ_Ï_ÌÌ_È_ËÂÌÚ_3-2" data-name="¡ÂÁ˚ÏˇÌÌ˚È „‡‰ËÂÌÚ 3" x1="-6206.03" y1="194.64" x2="-6163.34" y2="142.47" xlink:href="#_ÂÁ_Ï_ÌÌ_È_ËÂÌÚ_3"/>
    <linearGradient id="_ÂÁ_Ï_ÌÌ_È_ËÂÌÚ_10-7" data-name="¡ÂÁ˚ÏˇÌÌ˚È „‡‰ËÂÌÚ 10" x1="-6202.94" y1="4.52" x2="-6206.41" y2="21.58" xlink:href="#_ÂÁ_Ï_ÌÌ_È_ËÂÌÚ_10"/>
    <linearGradient id="_ÂÁ_Ï_ÌÌ_È_ËÂÌÚ_9-11" data-name="¡ÂÁ˚ÏˇÌÌ˚È „‡‰ËÂÌÚ 9" x1="-6163.83" y1="49.83" x2="-6196.79" y2="11.95" xlink:href="#_ÂÁ_Ï_ÌÌ_È_ËÂÌÚ_9"/>
    <linearGradient id="_ÂÁ_Ï_ÌÌ_È_ËÂÌÚ_9-12" data-name="¡ÂÁ˚ÏˇÌÌ˚È „‡‰ËÂÌÚ 9" x1="-6178.94" y1="66.65" x2="-6217.04" y2="22.86" xlink:href="#_ÂÁ_Ï_ÌÌ_È_ËÂÌÚ_9"/>
    <linearGradient id="_ÂÁ_Ï_ÌÌ_È_ËÂÌÚ_9-13" data-name="¡ÂÁ˚ÏˇÌÌ˚È „‡‰ËÂÌÚ 9" x1="-6308.48" y1="28.78" x2="-6293.66" y2="70.54" xlink:href="#_ÂÁ_Ï_ÌÌ_È_ËÂÌÚ_9"/>
    <linearGradient id="_ÂÁ_Ï_ÌÌ_È_ËÂÌÚ_3-3" data-name="¡ÂÁ˚ÏˇÌÌ˚È „‡‰ËÂÌÚ 3" x1="-6207.32" y1="114.04" x2="-6192.02" y2="156.16" xlink:href="#_ÂÁ_Ï_ÌÌ_È_ËÂÌÚ_3"/>
    <linearGradient id="_ÂÁ_Ï_ÌÌ_È_ËÂÌÚ_3-4" data-name="¡ÂÁ˚ÏˇÌÌ˚È „‡‰ËÂÌÚ 3" x1="-6156.54" y1="155.42" x2="-6242.71" y2="58.97" xlink:href="#_ÂÁ_Ï_ÌÌ_È_ËÂÌÚ_3"/>
    <linearGradient id="_ÂÁ_Ï_ÌÌ_È_ËÂÌÚ_3-5" data-name="¡ÂÁ˚ÏˇÌÌ˚È „‡‰ËÂÌÚ 3" x1="-6225.35" y1="29.28" x2="-6197.87" y2="29.28" xlink:href="#_ÂÁ_Ï_ÌÌ_È_ËÂÌÚ_3"/>
    <linearGradient id="_ÂÁ_Ï_ÌÌ_È_ËÂÌÚ_3-6" data-name="¡ÂÁ˚ÏˇÌÌ˚È „‡‰ËÂÌÚ 3" x1="-6156.94" y1="7.92" x2="-6142.96" y2="80.66" xlink:href="#_ÂÁ_Ï_ÌÌ_È_ËÂÌÚ_3"/>
  </defs>
  <g class="cls-29">
    <g id="Layer_2" data-name="Layer 2">
      <g id="Layer_1-2" data-name="Layer 1">
        <g>
          <polygon class="cls-10" points="133.72 1.33 142.88 5.32 131.89 9.31 133.72 1.33"/>
          <polygon class="cls-11" points="177.68 169 164.86 169 162.74 168.1 158.78 166.42 119.18 149.64 119.18 149.64 107.38 144.64 106.78 144.39 98.92 141.05 87.75 139.03 84.26 138.39 84.26 118.43 95.25 114.44 84.56 108.28 82.69 107.2 82.68 107.2 42.13 83.83 36.83 82.03 10.94 73.24 60.04 68.31 63.81 71.33 67.4 74.21 67.78 74.52 69.18 74.01 75.1 71.86 83.1 68.95 95.66 64.39 100.75 62.54 110.12 61.51 125.29 59.84 125.29 59.84 133.04 58.99 133.23 58.97 175.85 54.56 147.88 64.36 146.54 65.2 146.59 65.74 147.35 74 148.38 85.16 148.38 93.15 161.2 121.09 170.36 122.42 173.22 140.61 173.3 141.12 173.32 141.27 177.68 169"/>
          <polygon class="cls-22" points="65.94 85.16 80.6 63.87 108.08 119.76 98.92 118.43 97.08 119.76 84.26 118.43 95.25 114.44 65.94 85.16"/>
          <polygon class="cls-19" points=".82 51.9 10.94 73.24 63.44 83.17 60.45 67.89 .82 51.9"/>
          <polygon class="cls-1" points="102.57 114.44 51.7 114.44 49.18 108.96 47.62 105.55 45.3 100.51 39.3 87.43 36.04 80.33 79.09 88.85 86.66 97.1 89.07 99.73 102.57 114.44"/>
          <polygon class="cls-12" points="168.52 169 75.1 169 80.42 152.53 80.72 151.98 83.62 146.64 86.12 142.03 87.75 139.03 90.31 134.3 92.36 130.53 93.48 128.46 98.92 118.43 155.7 130.41 155.83 130.56 156.39 131.24 156.56 131.44 161.2 137.06 162.8 144.05 162.92 144.55 163.18 145.69 168.52 169"/>
          <polygon class="cls-23" points="84.26 118.43 84.26 138.39 97.08 119.76 84.26 118.43"/>
          <polygon class="cls-15" points="174.02 19.96 175.85 54.56 157.6 56.37 127.85 60.38 111.74 62.54 98.86 54.36 97.08 53.23 94.72 43.91 84.26 2.66 127.1 4.57 159.11 5.99 174.02 19.96"/>
          <polygon class="cls-14" points="126.39 135.73 92.36 130.53 93.48 128.46 126.39 135.73"/>
          <path class="cls-14" d="M80.72,151.98c3.03.54,6.61,1.3,10.57,2.2-3.68-.6-7.32-1.16-10.86-1.65l.3-.55Z"/>
          <path class="cls-14" d="M172.13,169c-2.74.1-5.9.28-9.38,0-.06,0-.12,0-.19,0-.06,0-.12,0-.18,0-4.73-.39-10.02-1.15-15.62-2.15-18.32-3.27-39.89-9.1-55.47-12.66,23.26,3.79,48.25,9.32,61.73,12.44,6.24,1.44,10.01,2.37,10.01,2.37h9.1Z"/>
          <path class="cls-14" d="M176.56,169h-4.43c1.63-.06,3.12-.1,4.43,0Z"/>
          <path class="cls-14" d="M40.05,89.06l-.75-1.64,41.3,4.39,2.26,1.97c-7.83-1.61-28.24-5.41-42.81-4.73Z"/>
          <path class="cls-14" d="M95.23,112.81c-.07,0-.31-.03-.66-.07-2.68-.28-12.4-1.26-13.97-1.26-1.26,0-18.85,1.25-29.8,2.04l-2-4.35,24.47.99,21.96,2.66Z"/>
          <path class="cls-14" d="M95.25,107.79s-22.88,1.28-46.07,1.18l-1.56-3.41,47.63,2.23Z"/>
          <polygon class="cls-25" points="153.87 125.09 108.08 119.76 87.13 87.17 82.43 79.84 136.73 90.28 144.71 91.82 147.07 99.8 147.25 100.44 153.87 125.09"/>
          <polygon class="cls-26" points="87.13 87.17 64.97 74.99 64.81 74.51 62.54 67.34 58.54 54.74 56.79 49.24 131.89 49.24 132.76 56.64 133.29 61.13 133.87 66.01 134.8 73.9 136.73 90.28 87.13 87.17"/>
          <path class="cls-14" d="M133.29,61.13c-27.33,2.32-58.21,5.08-70.75,6.22l-5.75-18.11h75.1l1.4,11.89Z"/>
          <path class="cls-14" d="M134.8,73.9l-45.04-.71-24.79,1.8-.15-.48,23.11-2.65s32.97-6.65,36.64-6.65c.9,0,4.46.32,9.31.81l.93,7.89Z"/>
          <polygon class="cls-14" points="147.25 100.44 124.56 99.8 147.07 99.8 147.25 100.44"/>
          <polygon class="cls-20" points="153.87 63.87 152.82 71.86 150.24 91.56 150.21 91.82 139.22 89.16 137.87 71.62 137.38 65.2 147.88 64.36 148.75 64.29 153.87 63.87"/>
          <polygon class="cls-16" points="170.36 122.42 156.56 131.44 152.04 134.4 143.11 131.72 98.92 118.43 106.24 117.1 106.38 117.12 106.81 117.2 153.87 125.09 161.2 121.09 170.36 122.42"/>
          <polygon class="cls-13" points="104.41 115.77 153.87 125.09 104.41 117.1 104.41 115.77"/>
          <polygon class="cls-4" points="177.68 169 163.03 169 162.74 168.1 156.54 148.58 155.78 146.17 155.76 146.12 152.04 134.4 156.56 131.44 170.36 122.42 173.22 140.61 173.3 141.12 173.32 141.27 177.68 169"/>
          <path class="cls-14" d="M173.89,140.98l-.07.07-.49.22-10.15,4.42-6.63,2.89-.39.17-.51.22-4.34.22-32.12.45h0l-37.12.52,4.19-7.73c6.37.73,13.68,1.51,21.13,2.21,15.08,1.4,30.79,2.43,40.59,1.89.79-.04,6.36-.22,6.84-.25.2-.02.41-.04.61-.06.12-.01.24-.03.35-.04,2.34-.28,4.78-.9,7.14-1.62,4-1.23,7.75-2.76,10.38-3.43.2-.05.4-.1.59-.14Z"/>
          <polygon class="cls-17" points="65.94 79.84 69.61 78.51 75.1 83.83 65.94 85.16 65.94 79.84"/>
          <polygon class="cls-14" points="142.88 131.74 157.53 130.41 152.04 134.4 142.88 131.74"/>
          <polygon class="cls-9" points="87.93 87.83 144.71 91.82 137.38 89.16 87.93 87.83"/>
          <polygon class="cls-2" points="170.36 122.42 153.87 125.09 147.08 100.43 146.91 99.8 144.71 91.82 137.38 89.16 135.08 72.4 133.32 59.64 133.23 58.97 131.89 49.24 142.88 57.22 175.85 54.56 148.75 64.29 153.87 63.87 152.82 71.86 147.35 74 139.22 77.18 139.22 89.16 148.38 91.15 150.24 91.56 150.21 91.82 148.38 91.37 148.38 93.15 161.2 121.09 170.36 122.42"/>
          <path class="cls-21" d="M177.68,169h-5.56c-2.74.1-5.9.28-9.38,0h-.19c-.06,0-.12,0-.18,0h-76.29l60.67-2.15,6.26-.22,5.77-.2,2.41-.09-5.05-17.59-.73-2.53-3.39-11.81,4.52-2.96,13.8-9.02,2.86,18.19.08.51c.2-.05.4-.1.59-.14l-.07.07-.49.22,4.36,27.73Z"/>
          <polygon class="cls-3" points="87.93 18.63 117.23 13.31 120.9 3.99 133.72 5.32 131.89 30.61 91.59 30.61 87.93 18.63"/>
          <polygon class="cls-18" points="122.73 0 113.57 30.61 130.06 30.61 133.72 1.33 122.73 0"/>
          <polygon class="cls-7" points="84.26 19.96 111.74 14.64 115.4 17.3 111.74 33.27 89.76 34.6 84.26 19.96"/>
          <polygon class="cls-8" points="5.5 59.88 36.64 61.21 0 51.9 5.5 59.88"/>
          <path class="cls-6" d="M177.68,169h-5.56c-2.74.1-5.9.28-9.38,0h-.19c-.06,0-.12,0-.18,0h-87.28l5.32-16.47.3-.55,2.9-5.34c1.57-2.53,2.62-4.21,2.62-4.21,0,0,8.98.94,20.53,1.95,18.24,1.6,43.15,4.85,48.93,3.32.11-.03-.05-1.55.06-1.58,2.17-.58,4.59-1.3,7.04-2.07,3.68-1.15,7.41-2.41,10.41-3.44l.08.51c.2-.05.4-.1.59-.14l-.07.07-.49.22,4.36,27.73Z"/>
          <polygon class="cls-27" points="64.11 74.52 126.39 90.49 87.93 87.83 64.11 74.52"/>
          <polygon class="cls-24" points="84.26 85.16 84.26 91.82 91.59 94.48 86.09 86.5 84.26 85.16"/>
          <polygon class="cls-24" points="133.72 62.54 137.38 65.2 135.55 77.18 133.72 62.54"/>
          <polygon class="cls-24" points="95.25 114.44 106.24 117.1 106.24 115.77 100.75 109.12 102.57 114.44 95.25 114.44"/>
          <polygon class="cls-5" points="95.25 43.91 117.23 43.91 119.07 18.63 111.74 14.64 115.4 17.3 111.74 31.94 91.59 34.6 95.25 43.91"/>
          <polygon class="cls-28" points="174.02 19.96 175.85 54.56 157.6 56.37 159.11 5.99 174.02 19.96"/>
        </g>
      </g>
    </g>
  </g>
</svg>