<?xml version="1.0" encoding="UTF-8"?>
<svg xmlns="http://www.w3.org/2000/svg" xmlns:xlink="http://www.w3.org/1999/xlink" viewBox="0 0 263.86 135.2">
  <defs>
    <style>
      .cls-1 {
        fill: url(#_ÂÁ_Ï_ÌÌ_È_ËÂÌÚ_9-2);
      }

      .cls-1, .cls-2, .cls-3, .cls-4, .cls-5, .cls-6, .cls-7, .cls-8, .cls-9, .cls-10, .cls-11, .cls-12, .cls-13, .cls-14, .cls-15, .cls-16, .cls-17, .cls-18, .cls-19, .cls-20, .cls-21, .cls-22, .cls-23, .cls-24, .cls-25, .cls-26, .cls-27, .cls-28, .cls-29, .cls-30, .cls-31, .cls-32, .cls-33, .cls-34, .cls-35 {
        stroke-width: 0px;
      }

      .cls-1, .cls-2, .cls-4, .cls-5, .cls-6, .cls-7, .cls-8, .cls-9, .cls-10, .cls-14, .cls-15, .cls-18, .cls-20, .cls-22, .cls-24, .cls-25, .cls-26, .cls-29, .cls-30, .cls-31, .cls-33, .cls-34 {
        fill-rule: evenodd;
      }

      .cls-2 {
        fill: url(#_ÂÁ_Ï_ÌÌ_È_ËÂÌÚ_3);
      }

      .cls-2, .cls-5, .cls-6, .cls-7, .cls-11, .cls-13, .cls-16, .cls-17, .cls-21, .cls-23, .cls-24, .cls-27, .cls-28, .cls-31, .cls-33, .cls-34, .cls-35 {
        mix-blend-mode: multiply;
      }

      .cls-2, .cls-6, .cls-7, .cls-13, .cls-16, .cls-21, .cls-34 {
        opacity: .7;
      }

      .cls-3 {
        fill: url(#_ÂÁ_Ï_ÌÌ_È_ËÂÌÚ_148-4);
      }

      .cls-4 {
        fill: #6d0f35;
      }

      .cls-36 {
        isolation: isolate;
      }

      .cls-5 {
        fill: url(#_ÂÁ_Ï_ÌÌ_È_ËÂÌÚ_3-3);
      }

      .cls-5, .cls-11, .cls-31 {
        opacity: .5;
      }

      .cls-6 {
        fill: url(#_ÂÁ_Ï_ÌÌ_È_ËÂÌÚ_3-10);
      }

      .cls-7 {
        fill: url(#_ÂÁ_Ï_ÌÌ_È_ËÂÌÚ_3-9);
      }

      .cls-8 {
        fill: url(#_ÂÁ_Ï_ÌÌ_È_ËÂÌÚ_10);
      }

      .cls-9 {
        fill: url(#_ÂÁ_Ï_ÌÌ_È_ËÂÌÚ_10-2);
      }

      .cls-10 {
        fill: url(#_ÂÁ_Ï_ÌÌ_È_ËÂÌÚ_9-3);
      }

      .cls-11 {
        fill: url(#_ÂÁ_Ï_ÌÌ_È_ËÂÌÚ_3-7);
      }

      .cls-12 {
        fill: url(#_ÂÁ_Ï_ÌÌ_È_ËÂÌÚ_10-4);
      }

      .cls-13 {
        fill: url(#_ÂÁ_Ï_ÌÌ_È_ËÂÌÚ_3-8);
      }

      .cls-14 {
        fill: url(#_ÂÁ_Ï_ÌÌ_È_ËÂÌÚ_9-5);
      }

      .cls-15 {
        fill: url(#_ÂÁ_Ï_ÌÌ_È_ËÂÌÚ_9-9);
      }

      .cls-16 {
        fill: url(#_ÂÁ_Ï_ÌÌ_È_ËÂÌÚ_3-5);
      }

      .cls-17 {
        fill: url(#_ÂÁ_Ï_ÌÌ_È_ËÂÌÚ_148-2);
      }

      .cls-17, .cls-23, .cls-27 {
        opacity: .2;
      }

      .cls-18 {
        fill: url(#_ÂÁ_Ï_ÌÌ_È_ËÂÌÚ_9-10);
      }

      .cls-19 {
        fill: url(#_ÂÁ_Ï_ÌÌ_È_ËÂÌÚ_9-6);
      }

      .cls-20 {
        fill: url(#_ÂÁ_Ï_ÌÌ_È_ËÂÌÚ_9-11);
      }

      .cls-21 {
        fill: url(#_ÂÁ_Ï_ÌÌ_È_ËÂÌÚ_3-6);
      }

      .cls-22 {
        fill: url(#_ÂÁ_Ï_ÌÌ_È_ËÂÌÚ_9);
      }

      .cls-23 {
        fill: url(#_ÂÁ_Ï_ÌÌ_È_ËÂÌÚ_148-5);
      }

      .cls-24 {
        fill: url(#_ÂÁ_Ï_ÌÌ_È_ËÂÌÚ_148-8);
      }

      .cls-24, .cls-28, .cls-33, .cls-35 {
        opacity: .4;
      }

      .cls-25 {
        fill: url(#_ÂÁ_Ï_ÌÌ_È_ËÂÌÚ_9-8);
      }

      .cls-26 {
        fill: url(#_ÂÁ_Ï_ÌÌ_È_ËÂÌÚ_10-3);
      }

      .cls-27 {
        fill: url(#_ÂÁ_Ï_ÌÌ_È_ËÂÌÚ_148);
      }

      .cls-28 {
        fill: url(#_ÂÁ_Ï_ÌÌ_È_ËÂÌÚ_148-3);
      }

      .cls-29 {
        fill: url(#_ÂÁ_Ï_ÌÌ_È_ËÂÌÚ_9-4);
      }

      .cls-30 {
        fill: url(#_ÂÁ_Ï_ÌÌ_È_ËÂÌÚ_9-7);
      }

      .cls-31 {
        fill: url(#_ÂÁ_Ï_ÌÌ_È_ËÂÌÚ_3-4);
      }

      .cls-32 {
        fill: url(#_ÂÁ_Ï_ÌÌ_È_ËÂÌÚ_10-5);
      }

      .cls-33 {
        fill: url(#_ÂÁ_Ï_ÌÌ_È_ËÂÌÚ_148-7);
      }

      .cls-34 {
        fill: url(#_ÂÁ_Ï_ÌÌ_È_ËÂÌÚ_3-2);
      }

      .cls-35 {
        fill: url(#_ÂÁ_Ï_ÌÌ_È_ËÂÌÚ_148-6);
      }
    </style>
    <linearGradient id="_ÂÁ_Ï_ÌÌ_È_ËÂÌÚ_10" data-name="¡ÂÁ˚ÏˇÌÌ˚È „‡‰ËÂÌÚ 10" x1="4862.01" y1="21.46" x2="4791.32" y2="99.87" gradientTransform="translate(4951.57) rotate(-180) scale(1.01 -1)" gradientUnits="userSpaceOnUse">
      <stop offset="0" stop-color="#cf3111"/>
      <stop offset="1" stop-color="#991632"/>
    </linearGradient>
    <linearGradient id="_ÂÁ_Ï_ÌÌ_È_ËÂÌÚ_10-2" data-name="¡ÂÁ˚ÏˇÌÌ˚È „‡‰ËÂÌÚ 10" x1="4829.87" y1="52.71" x2="4732.07" y2="66.42" xlink:href="#_ÂÁ_Ï_ÌÌ_È_ËÂÌÚ_10"/>
    <linearGradient id="_ÂÁ_Ï_ÌÌ_È_ËÂÌÚ_9" data-name="¡ÂÁ˚ÏˇÌÌ˚È „‡‰ËÂÌÚ 9" x1="4868.47" y1="139.72" x2="4849.88" y2="67.51" gradientTransform="translate(4951.57) rotate(-180) scale(1.01 -1)" gradientUnits="userSpaceOnUse">
      <stop offset="0" stop-color="#bc2927"/>
      <stop offset="1" stop-color="#d76f00"/>
    </linearGradient>
    <linearGradient id="_ÂÁ_Ï_ÌÌ_È_ËÂÌÚ_9-2" data-name="¡ÂÁ˚ÏˇÌÌ˚È „‡‰ËÂÌÚ 9" x1="4794.95" y1="122.48" x2="4778.44" y2="89.06" xlink:href="#_ÂÁ_Ï_ÌÌ_È_ËÂÌÚ_9"/>
    <linearGradient id="_ÂÁ_Ï_ÌÌ_È_ËÂÌÚ_9-3" data-name="¡ÂÁ˚ÏˇÌÌ˚È „‡‰ËÂÌÚ 9" x1="4659.04" y1="158.42" x2="4685.86" y2="71.27" xlink:href="#_ÂÁ_Ï_ÌÌ_È_ËÂÌÚ_9"/>
    <linearGradient id="_ÂÁ_Ï_ÌÌ_È_ËÂÌÚ_10-3" data-name="¡ÂÁ˚ÏˇÌÌ˚È „‡‰ËÂÌÚ 10" x1="4735.53" y1="28.4" x2="4713.59" y2="51.25" xlink:href="#_ÂÁ_Ï_ÌÌ_È_ËÂÌÚ_10"/>
    <linearGradient id="_ÂÁ_Ï_ÌÌ_È_ËÂÌÚ_3" data-name="¡ÂÁ˚ÏˇÌÌ˚È „‡‰ËÂÌÚ 3" x1="4729.38" y1="33.95" x2="4680.98" y2="87.64" gradientTransform="translate(4951.57) rotate(-180) scale(1.01 -1)" gradientUnits="userSpaceOnUse">
      <stop offset="0" stop-color="#eb72ae"/>
      <stop offset="1" stop-color="#c33e60"/>
    </linearGradient>
    <linearGradient id="_ÂÁ_Ï_ÌÌ_È_ËÂÌÚ_9-4" data-name="¡ÂÁ˚ÏˇÌÌ˚È „‡‰ËÂÌÚ 9" x1="4721.39" y1="133.61" x2="4745.15" y2="11.74" xlink:href="#_ÂÁ_Ï_ÌÌ_È_ËÂÌÚ_9"/>
    <linearGradient id="_ÂÁ_Ï_ÌÌ_È_ËÂÌÚ_3-2" data-name="¡ÂÁ˚ÏˇÌÌ˚È „‡‰ËÂÌÚ 3" x1="4849.3" y1="65.37" x2="4799.84" y2="120.23" xlink:href="#_ÂÁ_Ï_ÌÌ_È_ËÂÌÚ_3"/>
    <linearGradient id="_ÂÁ_Ï_ÌÌ_È_ËÂÌÚ_3-3" data-name="¡ÂÁ˚ÏˇÌÌ˚È „‡‰ËÂÌÚ 3" x1="4788.65" y1="50.61" x2="4776.84" y2="63.71" xlink:href="#_ÂÁ_Ï_ÌÌ_È_ËÂÌÚ_3"/>
    <linearGradient id="_ÂÁ_Ï_ÌÌ_È_ËÂÌÚ_9-5" data-name="¡ÂÁ˚ÏˇÌÌ˚È „‡‰ËÂÌÚ 9" x1="4737.18" y1="118.08" x2="4815.22" y2="-29.86" xlink:href="#_ÂÁ_Ï_ÌÌ_È_ËÂÌÚ_9"/>
    <linearGradient id="_ÂÁ_Ï_ÌÌ_È_ËÂÌÚ_3-4" data-name="¡ÂÁ˚ÏˇÌÌ˚È „‡‰ËÂÌÚ 3" x1="4728.05" y1="141.3" x2="4747.37" y2="78.5" xlink:href="#_ÂÁ_Ï_ÌÌ_È_ËÂÌÚ_3"/>
    <linearGradient id="_ÂÁ_Ï_ÌÌ_È_ËÂÌÚ_148" data-name="¡ÂÁ˚ÏˇÌÌ˚È „‡‰ËÂÌÚ 148" x1="4726.35" y1="36.25" x2="4809.32" y2="36.25" gradientTransform="translate(4951.57) rotate(-180) scale(1.01 -1)" gradientUnits="userSpaceOnUse">
      <stop offset="0" stop-color="#880041"/>
      <stop offset="1" stop-color="#fd916a"/>
    </linearGradient>
    <linearGradient id="_ÂÁ_Ï_ÌÌ_È_ËÂÌÚ_148-2" data-name="¡ÂÁ˚ÏˇÌÌ˚È „‡‰ËÂÌÚ 148" x1="4675.41" y1="35.01" x2="4770.38" y2="35.01" xlink:href="#_ÂÁ_Ï_ÌÌ_È_ËÂÌÚ_148"/>
    <linearGradient id="_ÂÁ_Ï_ÌÌ_È_ËÂÌÚ_148-3" data-name="¡ÂÁ˚ÏˇÌÌ˚È „‡‰ËÂÌÚ 148" x1="4590.71" y1="51.12" x2="4737.36" y2="46.24" xlink:href="#_ÂÁ_Ï_ÌÌ_È_ËÂÌÚ_148"/>
    <linearGradient id="_ÂÁ_Ï_ÌÌ_È_ËÂÌÚ_148-4" data-name="¡ÂÁ˚ÏˇÌÌ˚È „‡‰ËÂÌÚ 148" x1="4675.18" y1="3.86" x2="4675.41" y2="3.86" xlink:href="#_ÂÁ_Ï_ÌÌ_È_ËÂÌÚ_148"/>
    <linearGradient id="_ÂÁ_Ï_ÌÌ_È_ËÂÌÚ_10-4" data-name="¡ÂÁ˚ÏˇÌÌ˚È „‡‰ËÂÌÚ 10" x1="4675.32" y1="3.79" x2="4675.27" y2="3.93" xlink:href="#_ÂÁ_Ï_ÌÌ_È_ËÂÌÚ_10"/>
    <linearGradient id="_ÂÁ_Ï_ÌÌ_È_ËÂÌÚ_10-5" data-name="¡ÂÁ˚ÏˇÌÌ˚È „‡‰ËÂÌÚ 10" x1="4700.01" y1="-2.18" x2="4705.19" y2="22.5" xlink:href="#_ÂÁ_Ï_ÌÌ_È_ËÂÌÚ_10"/>
    <linearGradient id="_ÂÁ_Ï_ÌÌ_È_ËÂÌÚ_9-6" data-name="¡ÂÁ˚ÏˇÌÌ˚È „‡‰ËÂÌÚ 9" x1="4703.38" y1="95.93" x2="4723.64" y2="63.79" xlink:href="#_ÂÁ_Ï_ÌÌ_È_ËÂÌÚ_9"/>
    <linearGradient id="_ÂÁ_Ï_ÌÌ_È_ËÂÌÚ_3-5" data-name="¡ÂÁ˚ÏˇÌÌ˚È „‡‰ËÂÌÚ 3" x1="4601.18" y1="280.08" x2="4710.1" y2="107.28" xlink:href="#_ÂÁ_Ï_ÌÌ_È_ËÂÌÚ_3"/>
    <linearGradient id="_ÂÁ_Ï_ÌÌ_È_ËÂÌÚ_9-7" data-name="¡ÂÁ˚ÏˇÌÌ˚È „‡‰ËÂÌÚ 9" x1="4741.75" y1="131.36" x2="4788.67" y2="65.85" xlink:href="#_ÂÁ_Ï_ÌÌ_È_ËÂÌÚ_9"/>
    <linearGradient id="_ÂÁ_Ï_ÌÌ_È_ËÂÌÚ_3-6" data-name="¡ÂÁ˚ÏˇÌÌ˚È „‡‰ËÂÌÚ 3" x1="4771.64" y1="188.01" x2="4808.45" y2="129.61" xlink:href="#_ÂÁ_Ï_ÌÌ_È_ËÂÌÚ_3"/>
    <linearGradient id="_ÂÁ_Ï_ÌÌ_È_ËÂÌÚ_9-8" data-name="¡ÂÁ˚ÏˇÌÌ˚È „‡‰ËÂÌÚ 9" x1="4707.91" y1="173.45" x2="4734.72" y2="86.31" xlink:href="#_ÂÁ_Ï_ÌÌ_È_ËÂÌÚ_9"/>
    <linearGradient id="_ÂÁ_Ï_ÌÌ_È_ËÂÌÚ_9-9" data-name="¡ÂÁ˚ÏˇÌÌ˚È „‡‰ËÂÌÚ 9" x1="4660.02" y1="154.7" x2="4719.13" y2="51.51" xlink:href="#_ÂÁ_Ï_ÌÌ_È_ËÂÌÚ_9"/>
    <linearGradient id="_ÂÁ_Ï_ÌÌ_È_ËÂÌÚ_148-5" data-name="¡ÂÁ˚ÏˇÌÌ˚È „‡‰ËÂÌÚ 148" x1="4643.81" y1="103.61" x2="4764.96" y2="103.61" xlink:href="#_ÂÁ_Ï_ÌÌ_È_ËÂÌÚ_148"/>
    <linearGradient id="_ÂÁ_Ï_ÌÌ_È_ËÂÌÚ_148-6" data-name="¡ÂÁ˚ÏˇÌÌ˚È „‡‰ËÂÌÚ 148" x1="4638" y1="68.55" x2="4690.22" y2="66.82" xlink:href="#_ÂÁ_Ï_ÌÌ_È_ËÂÌÚ_148"/>
    <linearGradient id="_ÂÁ_Ï_ÌÌ_È_ËÂÌÚ_3-7" data-name="¡ÂÁ˚ÏˇÌÌ˚È „‡‰ËÂÌÚ 3" x1="4619.29" y1="109.24" x2="4680.25" y2="107.22" xlink:href="#_ÂÁ_Ï_ÌÌ_È_ËÂÌÚ_3"/>
    <linearGradient id="_ÂÁ_Ï_ÌÌ_È_ËÂÌÚ_3-8" data-name="¡ÂÁ˚ÏˇÌÌ˚È „‡‰ËÂÌÚ 3" x1="4826.86" y1="117.89" x2="4886.71" y2="117.89" xlink:href="#_ÂÁ_Ï_ÌÌ_È_ËÂÌÚ_3"/>
    <linearGradient id="_ÂÁ_Ï_ÌÌ_È_ËÂÌÚ_9-10" data-name="¡ÂÁ˚ÏˇÌÌ˚È „‡‰ËÂÌÚ 9" x1="4856.91" y1="128.82" x2="4854.98" y2="101.29" xlink:href="#_ÂÁ_Ï_ÌÌ_È_ËÂÌÚ_9"/>
    <linearGradient id="_ÂÁ_Ï_ÌÌ_È_ËÂÌÚ_148-7" data-name="¡ÂÁ˚ÏˇÌÌ˚È „‡‰ËÂÌÚ 148" x1="4738.33" y1="205.97" x2="4705.11" y2="76.9" xlink:href="#_ÂÁ_Ï_ÌÌ_È_ËÂÌÚ_148"/>
    <linearGradient id="_ÂÁ_Ï_ÌÌ_È_ËÂÌÚ_9-11" data-name="¡ÂÁ˚ÏˇÌÌ˚È „‡‰ËÂÌÚ 9" x1="4767.9" y1="121.74" x2="4768.1" y2="108.13" xlink:href="#_ÂÁ_Ï_ÌÌ_È_ËÂÌÚ_9"/>
    <linearGradient id="_ÂÁ_Ï_ÌÌ_È_ËÂÌÚ_148-8" data-name="¡ÂÁ˚ÏˇÌÌ˚È „‡‰ËÂÌÚ 148" x1="4757.64" y1="123.37" x2="4792.11" y2="75.24" xlink:href="#_ÂÁ_Ï_ÌÌ_È_ËÂÌÚ_148"/>
    <linearGradient id="_ÂÁ_Ï_ÌÌ_È_ËÂÌÚ_3-9" data-name="¡ÂÁ˚ÏˇÌÌ˚È „‡‰ËÂÌÚ 3" x1="4759.44" y1="105.19" x2="4775.76" y2="82.41" xlink:href="#_ÂÁ_Ï_ÌÌ_È_ËÂÌÚ_3"/>
    <linearGradient id="_ÂÁ_Ï_ÌÌ_È_ËÂÌÚ_3-10" data-name="¡ÂÁ˚ÏˇÌÌ˚È „‡‰ËÂÌÚ 3" x1="4683.4" y1="108.36" x2="4661.96" y2="132.14" xlink:href="#_ÂÁ_Ï_ÌÌ_È_ËÂÌÚ_3"/>
  </defs>
  <g class="cls-36">
    <g id="Layer_2" data-name="Layer 2">
      <g id="Layer_1-2" data-name="Layer 1">
        <g>
          <polygon class="cls-8" points="0 94.63 28.36 128.84 62.93 129.01 76.91 129.07 110.42 129.24 113.92 117.75 117.65 105.52 154.27 37.95 52.53 75.92 59.54 94.23 0 94.63"/>
          <polygon class="cls-9" points="76.63 127.45 76.71 127.54 82.87 134.81 200.53 134.81 243.41 133.36 247.8 133.22 255.56 109.31 248.2 110.74 249.11 108.87 261.61 83.29 260.26 83.75 249.43 87.44 237.1 91.63 234.12 92.64 236.15 86.32 236.27 85.93 263.86 0 214.74 21.76 157.08 47.29 93.69 84.21 104.79 90.85 99.47 92.62 107.2 101.79 88.9 105.77 100.68 120.52 104.79 125.66 76.63 127.45"/>
          <path class="cls-22" d="M81.26,90.25l-45.77,2.88-35.48,1.5s35.39,7.94,39.22,7.76c3.87-.18,42.04-12.13,42.04-12.13Z"/>
          <path class="cls-1" d="M124.25,91.34c-4.55,2.09-24.79,1.27-24.79,1.27l19.05-4.74,19.13.86-13.4,2.6Z"/>
          <path class="cls-10" d="M201.53,133.25s34.23-8.44,42.03-12.22c.12-.06.24-.12.35-.18,7.3-3.81,11.65-11.54,11.65-11.54l-6.45-.45-13.82-.96-22,16.52-11.75,8.82Z"/>
          <polygon class="cls-26" points="118.06 114.92 236.53 93.44 237.1 91.63 234.12 92.64 243.33 63.95 263.86 0 233.6 13.4 214.74 21.76 201.07 35.39 171.46 64.9 171.16 65.19 169.17 68.19 150.85 95.62 118.06 114.92"/>
          <polygon class="cls-2" points="117.86 115.32 236.33 93.83 236.89 92.03 235.33 91.05 243.13 64.35 263.66 .4 233.4 13.8 214.54 22.15 200.87 35.79 171.26 65.3 170.96 65.59 168.97 68.58 150.65 96.02 117.86 115.32"/>
          <path class="cls-29" d="M52.53,75.92l37.78-1.58.21-.11,57.72-28.73-13.55,9.51-42.45,29.78,1.71-.43h0l54.58-13.71,22.93-5.76.54-.14S246.51,29,263.86,0c0,0-4.62.4-12.14,1.1-3.66.34-8.01.75-12.85,1.21l-16.03,8.99-.98.55.05-.24,1.64-7.67c.08-.05.15-.1.23-.15-.07,0-.14.01-.21.02-6.36.64-13.11,1.33-19.95,2.06-.6.06-1.19.13-1.79.19-4.54.49-9.12,1-13.63,1.51-.43.05-.87.1-1.3.15-.26.03-.51.06-.77.09-.61.07-1.22.14-1.82.21-3.54.41-7.03.83-10.43,1.25-.53.07-1.06.13-1.58.2-.09.01-.18.02-.28.04h0c-.11.01-.22.03-.34.04-.54.07-1.08.14-1.62.2-1.35.17-2.67.34-3.98.52-.58.08-1.16.15-1.73.23-.62.08-1.23.17-1.85.25-.67.09-1.34.18-2,.27-1.49.21-2.95.41-4.37.62-.36.05-.71.1-1.06.15-.44.07-.87.13-1.3.19-.26.04-.51.08-.77.12-.56.09-1.11.17-1.66.25-.39.06-.78.12-1.17.18-.21.03-.42.07-.63.1-.32.05-.64.1-.95.15-2.66.43-5.1.86-7.27,1.28-.13.02-.26.05-.38.07-.14.03-.29.06-.43.08-.2.04-.39.08-.59.12-.39.08-.78.16-1.15.24-.23.05-.45.1-.67.14-.04.01-.08.02-.12.03-.09.02-.17.04-.26.06-.31.07-.61.14-.9.2-.1.02-.2.05-.3.07-.18.04-.35.08-.52.13-.12.03-.23.06-.35.09-.1.02-.19.05-.29.07-.07.02-.13.03-.2.05-.21.05-.4.11-.6.16-.1.03-.2.05-.29.08-.26.08-.52.15-.76.22-.12.04-.24.07-.35.11-.17.05-.34.11-.49.16-.16.06-.31.11-.45.16-.05.02-.1.04-.14.05-.49.19-.88.37-1.19.55-.04.02-.07.04-.1.06-.03.02-.07.04-.1.06-.57.39-1.41.99-2.47,1.76-.12.09-.25.18-.38.28-2.57,1.87-6.33,4.66-10.81,8.01-.12.09-.25.19-.38.28-.17.13-.35.26-.52.39-.23.17-.47.35-.7.53-2.33,1.75-4.84,3.63-7.45,5.59-4.65,3.5-9.66,7.28-14.69,11.08-.77.58-1.54,1.16-2.31,1.74-1.32.99-2.63,1.99-3.94,2.98-.48.37-.97.73-1.45,1.1-9.18,6.95-17.89,13.56-24.07,18.25-.18.14-.37.28-.54.41-.29.22-.57.43-.84.64-.18.14-.35.27-.53.4-1.57,1.2-2.93,2.23-4.02,3.06-.08.06-.16.12-.24.18-.31.24-.61.46-.87.66-.1.08-.19.15-.29.22-.96.73-1.54,1.17-1.68,1.28-.02.02-.03.03-.03.03Z"/>
          <polygon class="cls-34" points="39.22 102.39 62.93 129.01 76.91 129.07 113.92 117.75 132.95 111.93 117.65 105.52 81.26 90.25 39.22 102.39"/>
          <polygon class="cls-5" points="90.31 74.34 99.95 79.23 146.02 46.9 90.31 74.34"/>
          <path class="cls-14" d="M52.53,75.92l37.99-1.68,1.94-.09s19.46-5.95,42.22-19.14c18.57-10.76,39.34-26.34,53.53-47.44-.43.05-.87.1-1.3.15-.26.03-.51.06-.77.09-.61.07-1.22.14-1.82.21-3.54.41-7.03.83-10.43,1.25-.53.07-1.06.13-1.58.2-.09.01-.18.02-.28.04h0c-.11.01-.22.03-.34.04-.54.07-1.08.14-1.62.2-1.35.17-2.67.34-3.98.52-.58.08-1.16.15-1.73.23-.62.08-1.23.17-1.85.25-.67.09-1.34.18-2,.27-1.49.21-2.95.41-4.37.62-.36.05-.71.1-1.06.15-.44.07-.87.13-1.3.19-.26.04-.51.08-.77.12-.56.09-1.11.17-1.66.25-.39.06-.78.12-1.17.18-.21.03-.42.07-.63.1-.32.05-.64.1-.95.15-2.66.43-5.1.86-7.27,1.28-.13.02-.26.05-.38.07-.14.03-.29.06-.43.08-.2.04-.39.08-.59.12-.39.08-.78.16-1.15.24-.23.05-.45.1-.67.14-.04.01-.08.02-.12.03-.09.02-.17.04-.26.06-.31.07-.61.14-.9.2-.1.02-.2.05-.3.07-.18.04-.35.08-.52.13-.12.03-.23.06-.35.09-.1.02-.19.05-.29.07-.07.02-.13.03-.2.05-.21.05-.4.11-.6.16-.1.03-.2.05-.29.08-.26.08-.52.15-.76.22-.12.04-.24.07-.35.11-.17.05-.34.11-.49.16-.16.06-.31.11-.45.16-.05.02-.1.04-.14.05-.49.19-.88.37-1.19.55-.04.02-.07.04-.1.06-.03.02-.07.04-.1.06-.57.39-1.41.99-2.47,1.76-.12.09-.25.18-.38.28-2.57,1.87-6.33,4.66-10.81,8.01-.12.09-.25.19-.38.28-.17.13-.35.26-.52.39-.23.17-.47.35-.7.53-2.33,1.75-4.84,3.63-7.45,5.59-4.65,3.5-9.66,7.28-14.69,11.08-.77.58-1.54,1.16-2.31,1.74-1.32.99-2.63,1.99-3.94,2.98-.48.37-.97.73-1.45,1.1-9.18,6.95-17.89,13.56-24.07,18.25-.18.14-.37.28-.54.41-.29.22-.57.43-.84.64-.18.14-.35.27-.53.4-1.57,1.2-2.93,2.23-4.02,3.06-.08.06-.16.12-.24.18-.31.24-.61.46-.87.66-.1.08-.19.15-.29.22-.96.73-1.54,1.17-1.68,1.28-.02.02-.03.03-.03.03Z"/>
          <polygon class="cls-31" points="171.03 82.9 191.68 103.38 132.95 111.93 127.17 109.16 171.03 82.9"/>
          <path class="cls-27" d="M88.14,62.99l1.53-.49,27.67-19.82s27.51-14.29,54.69-33.16c-.11.01-.22.03-.34.04-.54.07-1.08.14-1.62.2-1.35.17-2.67.34-3.98.52-.58.08-1.16.15-1.73.23-.62.08-1.23.17-1.85.25-.67.09-1.34.18-2,.27-1.49.21-2.95.41-4.37.62-.36.05-.71.1-1.06.15-.44.07-.87.13-1.3.19-.26.04-.51.08-.77.12-.56.09-1.11.17-1.66.25-.39.06-.78.12-1.17.18-.21.03-.42.07-.63.1-.32.05-.64.1-.95.15-2.66.43-5.1.86-7.27,1.28-.13.02-.26.05-.38.07-.14.03-.29.06-.43.08-.2.04-.39.08-.59.12-.39.08-.78.16-1.15.24-.23.05-.45.1-.67.14-.04.01-.08.02-.12.03-.09.02-.17.04-.26.06-.31.07-.61.14-.9.2-.1.02-.2.05-.3.07-.18.04-.35.08-.52.13-.12.03-.23.06-.35.09-.1.02-.19.05-.29.07-.07.02-.13.03-.2.05-.21.05-.4.11-.6.16-.1.03-.2.05-.29.08-.26.08-.52.15-.76.22-.12.04-.24.07-.35.11-.17.05-.34.11-.49.16-.16.06-.31.11-.45.16-.05.02-.1.04-.14.05-.49.19-.88.37-1.19.55-.04.02-.07.04-.1.06-.03.02-.07.04-.1.06-.57.39-1.41.99-2.47,1.76-.12.09-.25.18-.38.28-2.57,1.87-6.33,4.66-10.81,8.01-.12.09-.25.19-.38.28-.17.13-.35.26-.52.39-.23.17-.47.35-.7.53-2.33,1.75-4.84,3.63-7.45,5.59l10.2,1.36s.81,3.77-2.28,6.28c-3.06,2.49-27.8,21.45-27.8,21.45Z"/>
          <path class="cls-17" d="M127.51,66.09l3.66-.91,16.68-11.77,5-2.83s4.52-2.33,11.72-6.18c1.4-.75,2.9-1.56,4.49-2.41,0,0,0,0,0,0,.89-.48,1.8-.97,2.74-1.48,12.09-6.56,28.34-15.62,43.77-25,2.14-1.3,4.25-2.6,6.34-3.9l1.64-7.67c-5.72,3.64-14.59,9.27-24.19,15.3l-.22.14c-23.02,14.45-50.06,31.08-47.63,27.85,3.35-4.46,36.51-29.62,52.12-41.35-.6.06-1.19.13-1.79.19l-61.35,47.78,5.16-.78-6.54,4.69h0s0,0,0,0l-11.6,8.33Z"/>
          <path class="cls-28" d="M169.17,68.19l-9.87,27.64c.24-.13,20.54-10.77,44.69-20.04,12.83-4.92,26.76-9.46,39.34-11.83l1.62-5.05L263.86,0s-4.62.4-12.14,1.1c-6.01,4.09-12.09,8.22-18.12,12.31-11.21,7.6-22.27,15.07-32.54,21.98-27.4,18.46-49.07,32.96-52.53,35.27-.32.21-.48.32-.48.32l21.12-2.79Z"/>
          <path class="cls-3" d="M223.55,3.93h0c.08-.05.15-.1.23-.15-.07,0-.14.01-.21.02l-.03.13Z"/>
          <path class="cls-12" d="M223.55,3.93h0c.08-.05.15-.1.23-.15l-.23.15Z"/>
          <polygon class="cls-32" points="161.31 46.5 169.7 41.71 171.81 40.5 215.57 15.51 222.79 11.39 222.85 11.3 221.87 11.84 221.92 11.61 223.55 3.93 199.37 19.23 199.14 19.37 187.2 26.93 185.44 30.98 166.69 43.04 164.57 44.4 161.31 46.5"/>
          <polygon class="cls-19" points="191.52 54.8 155.62 68.97 168.87 69.13 191.52 54.8"/>
          <polygon class="cls-16" points="236.66 84.82 203.14 95.43 171.03 82.9 127.17 109.16 132.55 114.12 223.66 94.23 236.66 84.82"/>
          <path class="cls-30" d="M171.03,82.9c-11.05,14.29-43.86,26.26-43.86,26.26l-38.47-2.8,11.75-4.9,70.59-18.56Z"/>
          <polygon class="cls-21" points="95.23 113.46 91.52 120.09 71.2 129 96.34 128.04 100.62 120.47 95.23 113.46"/>
          <path class="cls-25" d="M76.32,127.51l.4.03,17,1.32,92.61-4.53,4.36-.21,22.44-1.1,47.13-39.27,2.06-1.71-7.02,1.01-16.89,2.43-2.25.85-14.95,5.62-7.97,3c-14.4-1.37-50.32,7.73-50.32,7.73l-29.92,8.58-32.31,9.27-24.37,6.99Z"/>
          <path class="cls-15" d="M156.88,125.46l29.59-1.28,4.47-.19,22.19-.96,47.13-39.27,2.06-1.71-6.81.84-16.16,2c-1,.33-2.03.67-3.07,1.04-4.72,1.66-9.82,3.72-15.07,6.01-17.09,7.46-35.85,17.46-48.67,24.59-9.43,5.24-15.65,8.93-15.65,8.93Z"/>
          <path class="cls-23" d="M188.01,118.59s.68,3.13-1.54,5.58c-.05.05-.09.11-.14.16l4.36-.21c.08-.04.17-.09.25-.14,10.29-5.57,39.54-21.93,64.35-40.93.07-.05.14-.11.22-.17l-16.16,2c-5.55,1.8-11.73,4.25-18.15,7.05l-7.97,3c-14.4-1.37-50.32,7.73-50.32,7.73l-29.92,8.58,39.54,5.28,15.48,2.07Z"/>
          <path class="cls-35" d="M203.99,75.78c12.83-4.92,26.76-9.46,39.34-11.83l1.62-5.05c-16.6,3.9-36.49,14.44-40.96,16.87Z"/>
          <polygon class="cls-11" points="213.13 123.02 213.29 124.43 241.56 117.5 249.8 117.05 244.82 120.77 243.41 133.36 247.8 133.22 255.56 109.31 249.11 108.87 261.61 83.29 260.26 83.75 213.13 123.02"/>
          <polygon class="cls-13" points="70.4 129.04 56.09 121.51 54.71 128.44 32.38 128.44 9.88 106.74 28.36 128.84 70.4 129.04"/>
          <path class="cls-18" d="M40.64,104.55c3.81-.38,11.05-5.95,11.05-5.95,0,0-19.63,2.81-19.27,2.9s8.22,3.05,8.22,3.05Z"/>
          <polygon class="cls-33" points="190.69 124.12 180.88 135.07 146.22 134.77 157.62 125.63 186.33 124.33 217.63 108.16 190.69 124.12"/>
          <path class="cls-20" d="M140.23,103.67c-4.26,2.89-20.88,5.08-20.88,5.08,0,0,7.08,1.92,8.83,1.56,1.75-.36,12.05-6.64,12.05-6.64Z"/>
          <path class="cls-24" d="M137.65,88.74l3.44,2.1,12.63-3.45s-50.13,19.37-50.54,19.77c-.4.4-.61.54-.61.54l-13.87-1.34,13.15-5.26,17.46-4.37,2.05-4.87,16.28-3.12Z"/>
          <polygon class="cls-7" points="121.6 91.82 119.47 96.62 141.08 90.84 137.65 88.74 121.6 91.82"/>
          <polygon class="cls-4" points="101.88 89.39 101.75 91.82 99.47 92.62 102.36 96.36 93.19 104.42 105.65 100.02 99.69 92.67 104.79 90.85 101.88 89.39"/>
          <path class="cls-6" d="M202.4,132.79l-.66,2.42,45.24-1.81,8.42-23.16s-8.34,9.32-10.89,11.38c-2.55,2.05-42.11,11.17-42.11,11.17Z"/>
        </g>
      </g>
    </g>
  </g>
</svg>