<?xml version="1.0" encoding="UTF-8"?>
<svg xmlns="http://www.w3.org/2000/svg" xmlns:xlink="http://www.w3.org/1999/xlink" viewBox="0 0 73.95 167.2">
  <defs>
    <style>
      .cls-1 {
        fill: url(#_ÂÁ_Ï_ÌÌ_È_ËÂÌÚ_4-3);
      }

      .cls-1, .cls-2, .cls-3, .cls-4, .cls-5, .cls-6, .cls-7, .cls-8, .cls-9, .cls-10, .cls-11, .cls-12, .cls-13, .cls-14, .cls-15, .cls-16, .cls-17, .cls-18 {
        stroke-width: 0px;
      }

      .cls-1, .cls-2, .cls-4, .cls-7, .cls-9, .cls-10, .cls-11, .cls-15, .cls-16, .cls-18 {
        mix-blend-mode: multiply;
      }

      .cls-1, .cls-2, .cls-7, .cls-9, .cls-10, .cls-18 {
        opacity: .3;
      }

      .cls-19 {
        filter: url(#luminosity-noclip-7);
      }

      .cls-2 {
        fill: url(#_ÂÁ_Ï_ÌÌ_È_ËÂÌÚ_4-5);
      }

      .cls-20 {
        filter: url(#luminosity-noclip-5);
      }

      .cls-21 {
        mask: url(#mask-2);
      }

      .cls-3 {
        fill: #e5ac77;
      }

      .cls-22 {
        isolation: isolate;
      }

      .cls-23 {
        mask: url(#mask-3);
      }

      .cls-4 {
        fill: url(#linear-gradient-5);
      }

      .cls-5 {
        fill: #cc814e;
      }

      .cls-6 {
        fill: url(#linear-gradient-6);
      }

      .cls-6, .cls-12, .cls-13, .cls-14 {
        mix-blend-mode: overlay;
      }

      .cls-7 {
        fill: url(#_ÂÁ_Ï_ÌÌ_È_ËÂÌÚ_4-4);
      }

      .cls-24 {
        mask: url(#mask-5);
      }

      .cls-8 {
        fill: #995a37;
      }

      .cls-9 {
        fill: url(#_ÂÁ_Ï_ÌÌ_È_ËÂÌÚ_4-2);
      }

      .cls-10 {
        fill: url(#_ÂÁ_Ï_ÌÌ_È_ËÂÌÚ_4);
      }

      .cls-25 {
        mask: url(#mask-4);
      }

      .cls-11 {
        fill: url(#linear-gradient);
      }

      .cls-26 {
        mask: url(#mask-6);
      }

      .cls-12 {
        fill: url(#linear-gradient-2);
      }

      .cls-13 {
        fill: url(#linear-gradient-4);
      }

      .cls-27 {
        filter: url(#luminosity-noclip);
      }

      .cls-28 {
        mask: url(#mask-1);
      }

      .cls-29 {
        mask: url(#mask);
      }

      .cls-14 {
        fill: url(#linear-gradient-8);
        opacity: .42;
      }

      .cls-30 {
        mask: url(#mask-7);
      }

      .cls-15 {
        fill: url(#linear-gradient-3);
      }

      .cls-16 {
        fill: url(#linear-gradient-7);
      }

      .cls-17 {
        fill: #b17b5a;
      }

      .cls-31 {
        filter: url(#luminosity-noclip-3);
      }

      .cls-18 {
        fill: url(#_ÂÁ_Ï_ÌÌ_È_ËÂÌÚ_4-6);
      }
    </style>
    <linearGradient id="_ÂÁ_Ï_ÌÌ_È_ËÂÌÚ_4" data-name="¡ÂÁ˚ÏˇÌÌ˚È „‡‰ËÂÌÚ 4" x1="14.98" y1="16.55" x2="32.82" y2="16.55" gradientUnits="userSpaceOnUse">
      <stop offset="0" stop-color="#a86349"/>
      <stop offset=".26" stop-color="#a06245"/>
      <stop offset=".65" stop-color="#8c603d"/>
      <stop offset="1" stop-color="#745f34"/>
    </linearGradient>
    <linearGradient id="_ÂÁ_Ï_ÌÌ_È_ËÂÌÚ_4-2" data-name="¡ÂÁ˚ÏˇÌÌ˚È „‡‰ËÂÌÚ 4" x1="-35.38" y1="32.73" x2="67.92" y2="40.57" xlink:href="#_ÂÁ_Ï_ÌÌ_È_ËÂÌÚ_4"/>
    <linearGradient id="_ÂÁ_Ï_ÌÌ_È_ËÂÌÚ_4-3" data-name="¡ÂÁ˚ÏˇÌÌ˚È „‡‰ËÂÌÚ 4" x1="21.6" xlink:href="#_ÂÁ_Ï_ÌÌ_È_ËÂÌÚ_4"/>
    <linearGradient id="_ÂÁ_Ï_ÌÌ_È_ËÂÌÚ_4-4" data-name="¡ÂÁ˚ÏˇÌÌ˚È „‡‰ËÂÌÚ 4" x1="6.82" y1="157.45" x2="88.27" y2="113.28" xlink:href="#_ÂÁ_Ï_ÌÌ_È_ËÂÌÚ_4"/>
    <linearGradient id="_ÂÁ_Ï_ÌÌ_È_ËÂÌÚ_4-5" data-name="¡ÂÁ˚ÏˇÌÌ˚È „‡‰ËÂÌÚ 4" x1="-13.96" y1="151.71" x2="79.62" y2="100.95" xlink:href="#_ÂÁ_Ï_ÌÌ_È_ËÂÌÚ_4"/>
    <linearGradient id="_ÂÁ_Ï_ÌÌ_È_ËÂÌÚ_4-6" data-name="¡ÂÁ˚ÏˇÌÌ˚È „‡‰ËÂÌÚ 4" x1="-54.81" y1="104.19" x2="223.05" y2="-46.5" xlink:href="#_ÂÁ_Ï_ÌÌ_È_ËÂÌÚ_4"/>
    <filter id="luminosity-noclip" x="43.52" y="63.13" width="23.7" height="48.38" color-interpolation-filters="sRGB" filterUnits="userSpaceOnUse">
      <feFlood flood-color="#fff" result="bg"/>
      <feBlend in="SourceGraphic" in2="bg"/>
    </filter>
    <filter id="luminosity-noclip-2" x="43.52" y="-8201.58" width="23.7" height="32766" color-interpolation-filters="sRGB" filterUnits="userSpaceOnUse">
      <feFlood flood-color="#fff" result="bg"/>
      <feBlend in="SourceGraphic" in2="bg"/>
    </filter>
    <mask id="mask-1" x="43.52" y="-8201.58" width="23.7" height="32766" maskUnits="userSpaceOnUse"/>
    <linearGradient id="linear-gradient" x1="31.23" y1="100.87" x2="112.22" y2="56.95" gradientUnits="userSpaceOnUse">
      <stop offset=".23" stop-color="#4d4d4d"/>
      <stop offset=".82" stop-color="#b3b3b3"/>
    </linearGradient>
    <mask id="mask" x="43.52" y="63.13" width="23.7" height="48.38" maskUnits="userSpaceOnUse">
      <g class="cls-27">
        <g class="cls-28">
          <path class="cls-11" d="M66.27,111.51c-8.24-12.3-27.75-42.86-21.56-47.55,5.45-4.11,16.38,7.94,22.5,15.63-.81,9.38-1.02,20.8-.94,31.91Z"/>
        </g>
      </g>
    </mask>
    <linearGradient id="linear-gradient-2" x1="31.23" y1="100.87" x2="112.22" y2="56.95" gradientUnits="userSpaceOnUse">
      <stop offset=".23" stop-color="#534212"/>
      <stop offset=".82" stop-color="#534212"/>
    </linearGradient>
    <filter id="luminosity-noclip-3" x="34.28" y="3.52" width="27" height="20.29" color-interpolation-filters="sRGB" filterUnits="userSpaceOnUse">
      <feFlood flood-color="#fff" result="bg"/>
      <feBlend in="SourceGraphic" in2="bg"/>
    </filter>
    <filter id="luminosity-noclip-4" x="34.28" y="-8201.58" width="27" height="32766" color-interpolation-filters="sRGB" filterUnits="userSpaceOnUse">
      <feFlood flood-color="#fff" result="bg"/>
      <feBlend in="SourceGraphic" in2="bg"/>
    </filter>
    <mask id="mask-3" x="34.28" y="-8201.58" width="27" height="32766" maskUnits="userSpaceOnUse"/>
    <linearGradient id="linear-gradient-3" x1="4.27" y1="35.59" x2="120.11" y2="-27.23" xlink:href="#linear-gradient"/>
    <mask id="mask-2" x="34.28" y="3.52" width="27" height="20.29" maskUnits="userSpaceOnUse">
      <g class="cls-31">
        <g class="cls-23">
          <path class="cls-15" d="M61.28,15.41c-.58.59-11.57,11.74-22.49,7.4-11.19-4.46,1.95-19.28,1.95-19.28l5.37,1.54c-19.12,22.77,14.23,10.68,15.17,10.35Z"/>
        </g>
      </g>
    </mask>
    <linearGradient id="linear-gradient-4" x1="4.27" y1="35.59" x2="120.11" y2="-27.23" xlink:href="#linear-gradient-2"/>
    <filter id="luminosity-noclip-5" x="44.71" y="7.7" width="19.38" height="6.72" color-interpolation-filters="sRGB" filterUnits="userSpaceOnUse">
      <feFlood flood-color="#fff" result="bg"/>
      <feBlend in="SourceGraphic" in2="bg"/>
    </filter>
    <filter id="luminosity-noclip-6" x="44.71" y="-8201.58" width="19.38" height="32766" color-interpolation-filters="sRGB" filterUnits="userSpaceOnUse">
      <feFlood flood-color="#fff" result="bg"/>
      <feBlend in="SourceGraphic" in2="bg"/>
    </filter>
    <mask id="mask-5" x="44.71" y="-8201.58" width="19.38" height="32766" maskUnits="userSpaceOnUse"/>
    <linearGradient id="linear-gradient-5" x1="26.3" y1="25.87" x2="105.18" y2="-16.9" xlink:href="#linear-gradient"/>
    <mask id="mask-4" x="44.71" y="7.7" width="19.38" height="6.72" maskUnits="userSpaceOnUse">
      <g class="cls-20">
        <g class="cls-24">
          <path class="cls-4" d="M44.71,10.29c4.11,1.49,7.81-.03,10.58-2.59l8.8,2.53c-6.87,7.33-18.52,3.52-19.38.07Z"/>
        </g>
      </g>
    </mask>
    <linearGradient id="linear-gradient-6" x1="26.3" y1="25.87" x2="105.18" y2="-16.9" xlink:href="#linear-gradient-2"/>
    <filter id="luminosity-noclip-7" x="3.6" y="38.77" width="37.95" height="53.81" color-interpolation-filters="sRGB" filterUnits="userSpaceOnUse">
      <feFlood flood-color="#fff" result="bg"/>
      <feBlend in="SourceGraphic" in2="bg"/>
    </filter>
    <filter id="luminosity-noclip-8" x="3.6" y="-8201.58" width="37.95" height="32766" color-interpolation-filters="sRGB" filterUnits="userSpaceOnUse">
      <feFlood flood-color="#fff" result="bg"/>
      <feBlend in="SourceGraphic" in2="bg"/>
    </filter>
    <mask id="mask-7" x="3.6" y="-8201.58" width="37.95" height="32766" maskUnits="userSpaceOnUse"/>
    <linearGradient id="linear-gradient-7" x1="-45.14" y1="105.29" x2="151.81" y2="-1.51" xlink:href="#linear-gradient"/>
    <mask id="mask-6" x="3.6" y="38.77" width="37.95" height="53.81" maskUnits="userSpaceOnUse">
      <g class="cls-19">
        <g class="cls-30">
          <path class="cls-16" d="M7.62,79.25h5.06l15.85,13.33,10.37-1.89s9.52-44.39-7.54-51.92c5.65,6.08,9.69,46.51-.71,43.48-10.4-3.03-2.07-24.32-2.07-24.32,0,0-6.35,22.24-10.71,17.01-4.36-5.23,22.61-23.08-.4-34.58,2.38,5.95,5.16,27.95-13.88,9.02,2.05,15.27,4.02,29.87,4.02,29.87Z"/>
        </g>
      </g>
    </mask>
    <linearGradient id="linear-gradient-8" x1="-45.14" y1="105.29" x2="151.81" y2="-1.51" xlink:href="#linear-gradient-2"/>
  </defs>
  <g class="cls-22">
    <g id="Layer_2" data-name="Layer 2">
      <g id="Layer_1-2" data-name="Layer 1">
        <g>
          <path class="cls-8" d="M67.21,79.6c-.81,9.38-1.02,20.8-.94,31.91.18,22.82,1.63,44.35,1.63,44.35l-5.32,1.21v10.14h-17.88l-6.52-2.89h-13.54c9.3-28.36-19.73-62.39-20.52-63.3l-.02-.02L0,84.34l7.61-5.08s-1.96-14.59-4.01-29.88l-.69-5.15v-17.15l6.95-5.37,6.79-.2-1.67-6.85L28.51,0l12.23,3.52,5.37,1.54,9.18,2.64,8.8,2.53,9.86,2.82-2.91,48.09c-1.52,2.82-2.59,7.69-3.33,13.8-.18,1.49-.35,3.04-.5,4.66Z"/>
          <polygon class="cls-5" points="73.95 13.04 55.99 28.76 10.7 34.7 2.91 27.06 9.86 21.69 16.65 21.5 14.98 14.64 28.52 0 73.95 13.04"/>
          <polygon class="cls-17" points="14.98 14.65 16.64 21.49 25.22 22.81 32.82 10.29 23.28 15.62 14.98 14.65"/>
          <polygon class="cls-10" points="14.98 14.65 16.64 21.49 25.22 22.81 32.82 10.29 23.28 15.62 14.98 14.65"/>
          <polygon class="cls-9" points="2.91 27.06 10.7 34.7 2.91 44.22 2.91 27.06"/>
          <path class="cls-3" d="M73.95,13.04l-2.91,48.09c-1.52,2.82-2.59,7.69-3.33,13.8-2.38-5.05-4.52-13.88-4.52-13.88l-7.2-32.29,17.96-15.72Z"/>
          <path class="cls-5" d="M7.62,79.25h5.06l15.85,13.33,17.63-3.21s15.32,36.51,15.14,39.18c-.18,2.67-5.31,20.66-5.31,20.66l-14.64-43.99L6.8,85.64,0,84.33l7.61-5.09Z"/>
          <polygon class="cls-3" points="8.76 82.25 4.78 85.25 6.8 85.64 12.29 88.75 8.76 82.25"/>
          <polygon class="cls-1" points="21.6 22.25 25.22 22.81 32.82 10.29 23.28 15.62 21.6 22.25"/>
          <polygon class="cls-3" points="46.16 89.38 28.53 92.58 23.9 95.33 41.35 105.23 46.16 89.38"/>
          <path class="cls-7" d="M38.19,164.31s-.32-35.29-7.54-50.07c5.47,3.07,14.06,52.96,14.06,52.96l-6.52-2.89Z"/>
          <path class="cls-2" d="M38.19,164.31h-13.54c9.3-28.36-19.73-62.39-20.52-63.3.51.26,11.42,6.08,13.36,10.34,1.98,4.37,23.18,29.37,20.7,52.96Z"/>
          <polygon class="cls-18" points="32.82 91.8 30.65 32.09 52.73 6.95 55.99 7.89 38.43 31.06 35.03 63.96 43.32 89.89 32.82 91.8"/>
          <g class="cls-29">
            <path class="cls-12" d="M66.27,111.51c-8.24-12.3-27.75-42.86-21.56-47.55,5.45-4.11,16.38,7.94,22.5,15.63-.81,9.38-1.02,20.8-.94,31.91Z"/>
          </g>
          <g class="cls-21">
            <path class="cls-13" d="M61.28,15.41c-.58.59-11.57,11.74-22.49,7.4-11.19-4.46,1.95-19.28,1.95-19.28l5.37,1.54c-19.12,22.77,14.23,10.68,15.17,10.35Z"/>
          </g>
          <g class="cls-25">
            <path class="cls-6" d="M44.71,10.29c4.11,1.49,7.81-.03,10.58-2.59l8.8,2.53c-6.87,7.33-18.52,3.52-19.38.07Z"/>
          </g>
          <g class="cls-26">
            <path class="cls-14" d="M7.62,79.25h5.06l15.85,13.33,10.37-1.89s9.52-44.39-7.54-51.92c5.65,6.08,9.69,46.51-.71,43.48-10.4-3.03-2.07-24.32-2.07-24.32,0,0-6.35,22.24-10.71,17.01-4.36-5.23,22.61-23.08-.4-34.58,2.38,5.95,5.16,27.95-13.88,9.02,2.05,15.27,4.02,29.87,4.02,29.87Z"/>
          </g>
        </g>
      </g>
    </g>
  </g>
</svg>