<?xml version="1.0" encoding="UTF-8"?>
<svg xmlns="http://www.w3.org/2000/svg" xmlns:xlink="http://www.w3.org/1999/xlink" viewBox="0 0 212.7 137.33">
  <defs>
    <style>
      .cls-1 {
        fill: url(#_ÂÁ_Ï_ÌÌ_È_ËÂÌÚ_9-2);
      }

      .cls-1, .cls-2, .cls-3, .cls-4, .cls-5, .cls-6, .cls-7, .cls-8, .cls-9, .cls-10, .cls-11, .cls-12, .cls-13, .cls-14, .cls-15, .cls-16, .cls-17, .cls-18, .cls-19, .cls-20 {
        fill-rule: evenodd;
        stroke-width: 0px;
      }

      .cls-2 {
        fill: url(#_ÂÁ_Ï_ÌÌ_È_ËÂÌÚ_3);
      }

      .cls-2, .cls-3, .cls-4, .cls-12, .cls-14, .cls-19, .cls-20 {
        mix-blend-mode: multiply;
        opacity: .5;
      }

      .cls-3 {
        fill: url(#_ÂÁ_Ï_ÌÌ_È_ËÂÌÚ_3-5);
      }

      .cls-21 {
        isolation: isolate;
      }

      .cls-4 {
        fill: url(#_ÂÁ_Ï_ÌÌ_È_ËÂÌÚ_3-3);
      }

      .cls-5 {
        fill: url(#_ÂÁ_Ï_ÌÌ_È_ËÂÌÚ_10);
      }

      .cls-6 {
        fill: url(#_ÂÁ_Ï_ÌÌ_È_ËÂÌÚ_10-2);
      }

      .cls-7 {
        fill: url(#_ÂÁ_Ï_ÌÌ_È_ËÂÌÚ_9-3);
      }

      .cls-8 {
        fill: #b25460;
        mix-blend-mode: color-dodge;
        opacity: .4;
      }

      .cls-9 {
        fill: url(#_ÂÁ_Ï_ÌÌ_È_ËÂÌÚ_9-5);
      }

      .cls-10 {
        fill: url(#_ÂÁ_Ï_ÌÌ_È_ËÂÌÚ_9);
      }

      .cls-11 {
        fill: url(#_ÂÁ_Ï_ÌÌ_È_ËÂÌÚ_9-8);
      }

      .cls-12 {
        fill: url(#_ÂÁ_Ï_ÌÌ_È_ËÂÌÚ_3-2);
      }

      .cls-13 {
        fill: url(#_ÂÁ_Ï_ÌÌ_È_ËÂÌÚ_10-3);
      }

      .cls-14 {
        fill: url(#_ÂÁ_Ï_ÌÌ_È_ËÂÌÚ_3-7);
      }

      .cls-15 {
        fill: url(#_ÂÁ_Ï_ÌÌ_È_ËÂÌÚ_6);
      }

      .cls-16 {
        fill: url(#_ÂÁ_Ï_ÌÌ_È_ËÂÌÚ_9-4);
      }

      .cls-17 {
        fill: url(#_ÂÁ_Ï_ÌÌ_È_ËÂÌÚ_9-6);
      }

      .cls-18 {
        fill: url(#_ÂÁ_Ï_ÌÌ_È_ËÂÌÚ_9-7);
      }

      .cls-19 {
        fill: url(#_ÂÁ_Ï_ÌÌ_È_ËÂÌÚ_3-4);
      }

      .cls-20 {
        fill: url(#_ÂÁ_Ï_ÌÌ_È_ËÂÌÚ_3-6);
      }
    </style>
    <linearGradient id="_ÂÁ_Ï_ÌÌ_È_ËÂÌÚ_10" data-name="¡ÂÁ˚ÏˇÌÌ˚È „‡‰ËÂÌÚ 10" x1="110.22" y1="26.11" x2="166.32" y2="87.4" gradientUnits="userSpaceOnUse">
      <stop offset="0" stop-color="#cf3111"/>
      <stop offset="1" stop-color="#991632"/>
    </linearGradient>
    <linearGradient id="_ÂÁ_Ï_ÌÌ_È_ËÂÌÚ_9" data-name="¡ÂÁ˚ÏˇÌÌ˚È „‡‰ËÂÌÚ 9" x1="141.61" y1="83.63" x2="91.99" y2="15.8" gradientUnits="userSpaceOnUse">
      <stop offset="0" stop-color="#bc2927"/>
      <stop offset="1" stop-color="#d76f00"/>
    </linearGradient>
    <linearGradient id="_ÂÁ_Ï_ÌÌ_È_ËÂÌÚ_9-2" data-name="¡ÂÁ˚ÏˇÌÌ˚È „‡‰ËÂÌÚ 9" x1="185.69" y1="99" x2="122.29" y2="54.74" xlink:href="#_ÂÁ_Ï_ÌÌ_È_ËÂÌÚ_9"/>
    <linearGradient id="_ÂÁ_Ï_ÌÌ_È_ËÂÌÚ_6" data-name="¡ÂÁ˚ÏˇÌÌ˚È „‡‰ËÂÌÚ 6" x1="131.56" y1="75.75" x2="172.96" y2="103.86" gradientUnits="userSpaceOnUse">
      <stop offset="0" stop-color="#cf3111"/>
      <stop offset=".95" stop-color="#9c1730"/>
      <stop offset="1" stop-color="#991632"/>
    </linearGradient>
    <linearGradient id="_ÂÁ_Ï_ÌÌ_È_ËÂÌÚ_3" data-name="¡ÂÁ˚ÏˇÌÌ˚È „‡‰ËÂÌÚ 3" x1="143.53" y1="73.04" x2="144.62" y2="73.04" gradientUnits="userSpaceOnUse">
      <stop offset="0" stop-color="#eb72ae"/>
      <stop offset="1" stop-color="#c33e60"/>
    </linearGradient>
    <linearGradient id="_ÂÁ_Ï_ÌÌ_È_ËÂÌÚ_3-2" data-name="¡ÂÁ˚ÏˇÌÌ˚È „‡‰ËÂÌÚ 3" x1="143.69" y1="79.71" x2="156.65" y2="79.71" xlink:href="#_ÂÁ_Ï_ÌÌ_È_ËÂÌÚ_3"/>
    <linearGradient id="_ÂÁ_Ï_ÌÌ_È_ËÂÌÚ_3-3" data-name="¡ÂÁ˚ÏˇÌÌ˚È „‡‰ËÂÌÚ 3" x1="144.62" y1="68.39" x2="168.09" y2="68.39" xlink:href="#_ÂÁ_Ï_ÌÌ_È_ËÂÌÚ_3"/>
    <linearGradient id="_ÂÁ_Ï_ÌÌ_È_ËÂÌÚ_3-4" data-name="¡ÂÁ˚ÏˇÌÌ˚È „‡‰ËÂÌÚ 3" x1="159.62" y1="86.16" x2="177.05" y2="86.16" xlink:href="#_ÂÁ_Ï_ÌÌ_È_ËÂÌÚ_3"/>
    <linearGradient id="_ÂÁ_Ï_ÌÌ_È_ËÂÌÚ_10-2" data-name="¡ÂÁ˚ÏˇÌÌ˚È „‡‰ËÂÌÚ 10" x1="-493.69" y1="167.5" x2="-344.13" y2="73.84" gradientTransform="translate(-316.95) rotate(-180) scale(1 -1)" xlink:href="#_ÂÁ_Ï_ÌÌ_È_ËÂÌÚ_10"/>
    <linearGradient id="_ÂÁ_Ï_ÌÌ_È_ËÂÌÚ_9-3" data-name="¡ÂÁ˚ÏˇÌÌ˚È „‡‰ËÂÌÚ 9" x1="-405.4" y1="161.58" x2="-415.02" y2="101" gradientTransform="translate(-316.95) rotate(-180) scale(1 -1)" xlink:href="#_ÂÁ_Ï_ÌÌ_È_ËÂÌÚ_9"/>
    <linearGradient id="_ÂÁ_Ï_ÌÌ_È_ËÂÌÚ_10-3" data-name="¡ÂÁ˚ÏˇÌÌ˚È „‡‰ËÂÌÚ 10" x1="-426.92" y1="63.28" x2="-416.71" y2="106.35" gradientTransform="translate(-316.95) rotate(-180) scale(1 -1)" xlink:href="#_ÂÁ_Ï_ÌÌ_È_ËÂÌÚ_10"/>
    <linearGradient id="_ÂÁ_Ï_ÌÌ_È_ËÂÌÚ_9-4" data-name="¡ÂÁ˚ÏˇÌÌ˚È „‡‰ËÂÌÚ 9" x1="-397.52" y1="120.7" x2="-420.08" y2="95.05" gradientTransform="translate(-316.95) rotate(-180) scale(1 -1)" xlink:href="#_ÂÁ_Ï_ÌÌ_È_ËÂÌÚ_9"/>
    <linearGradient id="_ÂÁ_Ï_ÌÌ_È_ËÂÌÚ_3-5" data-name="¡ÂÁ˚ÏˇÌÌ˚È „‡‰ËÂÌÚ 3" x1="-410.51" y1="113.29" x2="-412.46" y2="98.65" gradientTransform="translate(-316.95) rotate(-180) scale(1 -1)" xlink:href="#_ÂÁ_Ï_ÌÌ_È_ËÂÌÚ_3"/>
    <linearGradient id="_ÂÁ_Ï_ÌÌ_È_ËÂÌÚ_9-5" data-name="¡ÂÁ˚ÏˇÌÌ˚È „‡‰ËÂÌÚ 9" x1="-439.67" y1="137.83" x2="-439.95" y2="135.75" gradientTransform="translate(-316.95) rotate(-180) scale(1 -1)" xlink:href="#_ÂÁ_Ï_ÌÌ_È_ËÂÌÚ_9"/>
    <linearGradient id="_ÂÁ_Ï_ÌÌ_È_ËÂÌÚ_9-6" data-name="¡ÂÁ˚ÏˇÌÌ˚È „‡‰ËÂÌÚ 9" x1="190.09" y1="165.18" x2="142.75" y2="96.75" xlink:href="#_ÂÁ_Ï_ÌÌ_È_ËÂÌÚ_9"/>
    <linearGradient id="_ÂÁ_Ï_ÌÌ_È_ËÂÌÚ_9-7" data-name="¡ÂÁ˚ÏˇÌÌ˚È „‡‰ËÂÌÚ 9" x1="-373.27" y1="159.42" x2="-383.39" y2="83.53" gradientTransform="translate(-316.95) rotate(-180) scale(1 -1)" xlink:href="#_ÂÁ_Ï_ÌÌ_È_ËÂÌÚ_9"/>
    <linearGradient id="_ÂÁ_Ï_ÌÌ_È_ËÂÌÚ_3-6" data-name="¡ÂÁ˚ÏˇÌÌ˚È „‡‰ËÂÌÚ 3" x1="-76.68" y1="526.78" x2="-510.13" y2="38.54" gradientTransform="translate(-316.95) rotate(-180) scale(1 -1)" xlink:href="#_ÂÁ_Ï_ÌÌ_È_ËÂÌÚ_3"/>
    <linearGradient id="_ÂÁ_Ï_ÌÌ_È_ËÂÌÚ_3-7" data-name="¡ÂÁ˚ÏˇÌÌ˚È „‡‰ËÂÌÚ 3" x1="126.42" y1="23.05" x2="165.47" y2="65.71" xlink:href="#_ÂÁ_Ï_ÌÌ_È_ËÂÌÚ_3"/>
    <linearGradient id="_ÂÁ_Ï_ÌÌ_È_ËÂÌÚ_9-8" data-name="¡ÂÁ˚ÏˇÌÌ˚È „‡‰ËÂÌÚ 9" x1="157.39" y1="41.15" x2="134.36" y2="13.42" xlink:href="#_ÂÁ_Ï_ÌÌ_È_ËÂÌÚ_9"/>
  </defs>
  <g class="cls-21">
    <g id="Layer_2" data-name="Layer 2">
      <g id="Layer_1-2" data-name="Layer 1">
        <g>
          <polygon class="cls-5" points="177.82 127.01 100.35 85.1 99.23 81.83 83.83 36.83 113.28 9.12 116.06 6.5 126.01 3.91 140.66 .09 140.9 .15 153.69 3.81 161.31 66.05 176.55 66.05 177.05 90.01 177.82 127.01"/>
          <polygon class="cls-10" points="128.29 81.29 99.23 81.83 97.59 81.86 86.83 48.71 82.56 35.56 112 7.85 112.44 7.44 116.06 6.5 117.63 6.1 126.01 3.91 126.56 22.4 126.83 31.46 127.02 38.1 127.08 40.36 128.29 81.29"/>
          <polygon class="cls-1" points="176.55 66.05 144.8 68.59 142.26 95.26 177.15 96.99 176.55 66.05"/>
          <polygon class="cls-15" points="144.8 68.59 134.64 73.67 134.64 93.99 142.66 95.26 144.8 68.59"/>
          <path class="cls-2" d="M144.62,70.73l-.37,4.61c-.47-.25-.72-.41-.72-.41l1.09-4.2Z"/>
          <path class="cls-12" d="M144.25,75.34c1.77.99,6.54,3.56,12.4,5.86l-9.12,2.87-3.84-2.03.56-6.69Z"/>
          <polygon class="cls-4" points="168.09 66.05 144.94 69.53 144.62 70.73 144.8 68.59 165.97 66.05 168.09 66.05"/>
          <path class="cls-19" d="M177.05,90.01h-.04s-17.39-7.71-17.39-7.71c5.63,1.97,11.9,3.47,17.32,3.06l.1,4.65Z"/>
          <g>
            <polygon class="cls-6" points="7.92 125.93 7.83 125.98 7.78 126.13 7.79 126.13 .24 136.69 .46 136.69 0 137.33 212.66 136.77 192.55 96.88 148.48 84.3 148.43 84.31 147.52 84.06 137.92 79.34 130.47 75.7 124.38 72.69 123.17 72.11 119.21 70.16 53.75 103.86 53.66 103.91 53.64 103.94 49.94 109.64 49.54 110.25 49.35 110.55 48.98 110.63 49.15 110.33 45.98 111.01 29.12 114.6 23.02 118 21.24 118.99 21.16 119.03 13.58 122.98 7.92 125.93"/>
            <path class="cls-7" d="M53.64,103.94l-3.7,5.7h0s29.16-7.64,29.16-7.64l.24-.07,3.15-.83s.06-.01.1-.03l64.92-17-9.61-4.73-7.44-3.64-6.1-3-1.21-.58-3.96-1.95-65.48,33.74-.08.04Z"/>
            <path class="cls-13" d="M48.98,110.63l-.05.08-5.2,9.45-.91,1.67-1.19,2.15-6.9,12.52,39.03.23h1.5s51.31.27,51.31.27h.67s23.12.13,23.12.13v-.19s0-.19,0-.19l.34-26.18.29-21.93-3.11-4.1-.35-.48-64.92,17s-.07.03-.1.03c-.03.02-.04.02-.05.02l-3.11.8-.24.07-29.16,7.64h0s-.4.62-.4.62l-.19.3-.37.08Z"/>
            <polygon class="cls-16" points="103.84 100.01 92.61 101.24 98.54 105.98 103.84 100.01"/>
            <polygon class="cls-3" points="90.28 107.91 92.61 101.24 98.54 105.98 97.25 110.84 90.28 107.91"/>
            <polygon class="cls-9" points="127.2 136.73 118.48 136.73 118.47 136.84 127.24 136.99 127.2 136.73"/>
            <polygon class="cls-17" points="124.13 119.28 127.2 136.73 212.67 136.76 192.54 96.88 156.93 81.11 105.81 100.4 99.61 106.25 124.13 119.28"/>
            <polygon class="cls-18" points="8.95 125.84 .24 136.69 .46 136.69 24.5 136.69 28.84 136.7 38.88 136.71 73.76 136.73 75.26 136.72 118.47 136.74 119.78 119.52 119.85 118.56 98.26 107.02 91.8 103.55 88.72 101.91 79.56 103.86 76.22 104.57 76.21 104.57 49.55 110.25 49.54 110.25 49.35 110.55 48.98 110.63 49.15 110.33 45.98 111.01 29.12 114.6 23.02 118 21.24 118.99 21.16 119.03 13.28 123.42 12.34 123.94 12.32 123.95 8.95 125.84"/>
            <polygon class="cls-20" points="8.95 125.84 .24 136.69 .46 136.69 24.5 136.69 28.84 136.7 38.88 136.71 71.77 136.72 73.76 136.73 75.26 136.72 118.47 136.74 127.19 136.74 150.36 136.74 210.07 136.78 212.7 136.77 192.55 96.88 150.69 110.57 124.13 119.28 119.78 119.52 41.63 123.98 37.99 124.19 35 124.36 25.41 124.9 13.18 125.6 13.17 125.6 11.72 125.67 9.55 125.8 9.41 125.81 9.37 125.81 8.95 125.84"/>
            <path class="cls-8" d="M28.84,136.69l7.74-11.82,42.97-21.01h0s.61-.3.61-.3l1.77-2.22s.23-.09.67-.26c4.56-1.79,33.67-13.22,55.31-21.73l-7.44-3.65c-14.11,7.8-31.26,16.84-30.44,14.13.96-3.16,16.45-12.17,24.34-17.12l-1.2-.59-43.78,29.49-.28.4-1.25,1.79-1.64.78h0s-42.84,20.57-42.84,20.57l-8.88,11.56h4.35Z"/>
          </g>
          <polygon class="cls-14" points="177.05 90.01 177.01 90 159.62 82.3 156.93 81.11 156.65 81.2 147.53 84.07 143.69 82.04 143.53 81.95 128.07 73.76 127.86 73.64 127.59 57.46 127.02 22.86 140.66 .09 140.9 .15 153.69 3.81 161.31 66.05 176.55 66.05 176.95 85.36 177.05 90.01"/>
          <path class="cls-8" d="M156.71,27.92s-27.16,10.19-28.43,11.46c-.13.13-.55.47-1.21.99-6.27,5.02-34.24,26.3-34.24,26.3l-.5-1.3s18.16-12.03,19.43-13.3c1.27-1.27,15.24-13.97,15.24-13.97l-.19-6.64,29.4-9.39.48,5.84Z"/>
          <polygon class="cls-11" points="140.99 0 140.9 .15 127.02 22.86 111.78 7.62 112.44 7.44 116.06 6.5 126.01 3.91 140.66 .09 140.99 0"/>
          <polygon class="cls-8" points="121.53 17.86 130.29 18.19 126.72 23.86 121.53 17.86"/>
          <path class="cls-8" d="M139.72,0l-20.63,15.25-.15-.15s-15.75,7.65-32.11,33.61l-4.27-13.15,29.44-27.71.43-.41,3.62-.94,23.66-6.5Z"/>
        </g>
      </g>
    </g>
  </g>
</svg>