<?xml version="1.0" encoding="UTF-8"?>
<svg xmlns="http://www.w3.org/2000/svg" xmlns:xlink="http://www.w3.org/1999/xlink" viewBox="0 0 332.78 53.71">
  <defs>
    <style>
      .cls-1 {
        fill: url(#linear-gradient-2);
      }

      .cls-1, .cls-2, .cls-3, .cls-4, .cls-5, .cls-6, .cls-7 {
        stroke-width: 0px;
      }

      .cls-1, .cls-4, .cls-5, .cls-6, .cls-7 {
        mix-blend-mode: multiply;
      }

      .cls-1, .cls-4, .cls-6 {
        opacity: .3;
      }

      .cls-8 {
        isolation: isolate;
      }

      .cls-2 {
        fill: #d8a46c;
      }

      .cls-3 {
        fill: #aa7139;
      }

      .cls-4 {
        fill: url(#_ÂÁ_Ï_ÌÌ_È_ËÂÌÚ_4);
      }

      .cls-5 {
        fill: url(#linear-gradient-3);
      }

      .cls-5, .cls-7 {
        opacity: .13;
      }

      .cls-6 {
        fill: url(#linear-gradient);
      }

      .cls-7 {
        fill: url(#linear-gradient-4);
      }
    </style>
    <linearGradient id="linear-gradient" x1="263.49" y1="11.08" x2="263.49" y2="55.85" gradientUnits="userSpaceOnUse">
      <stop offset="0" stop-color="#a86349"/>
      <stop offset=".27" stop-color="#a36247"/>
      <stop offset=".56" stop-color="#966142"/>
      <stop offset=".85" stop-color="#816039"/>
      <stop offset="1" stop-color="#745f34"/>
    </linearGradient>
    <linearGradient id="_ÂÁ_Ï_ÌÌ_È_ËÂÌÚ_4" data-name="¡ÂÁ˚ÏˇÌÌ˚È „‡‰ËÂÌÚ 4" x1="168.96" y1="2.78" x2="175.35" y2="213.75" gradientUnits="userSpaceOnUse">
      <stop offset="0" stop-color="#a86349"/>
      <stop offset=".26" stop-color="#a06245"/>
      <stop offset=".65" stop-color="#8c603d"/>
      <stop offset="1" stop-color="#745f34"/>
    </linearGradient>
    <linearGradient id="linear-gradient-2" x1="46.64" y1="15.62" x2="46.64" y2="43.95" xlink:href="#linear-gradient"/>
    <linearGradient id="linear-gradient-3" x1="268.01" y1="46.43" x2="272.1" y2="181.45" xlink:href="#linear-gradient"/>
    <linearGradient id="linear-gradient-4" x1="283.27" y1="43.06" x2="285.32" y2="110.54" xlink:href="#linear-gradient"/>
  </defs>
  <g class="cls-8">
    <g id="Layer_2" data-name="Layer 2">
      <g id="Layer_1-2" data-name="Layer 1">
        <g>
          <polygon class="cls-3" points="332.78 39.91 319.45 53.24 301.02 52.86 281.52 52.42 225.73 51.26 221.74 51.16 155.72 49.76 128.12 49.18 6.65 46.59 5.62 42.5 .85 23.41 0 19.97 139.77 6.65 183.33 4.36 266.22 0 305.21 23.38 305.24 23.38 332.78 39.91"/>
          <polygon class="cls-6" points="305.24 23.38 301.02 52.86 281.52 52.42 286.29 31.01 228.76 32.21 225.73 51.26 225.35 53.71 221.74 51.16 225.35 26.62 305.21 23.38 305.24 23.38"/>
          <polygon class="cls-4" points="211.52 12.99 153.37 27.61 155.72 49.76 128.12 49.18 128.12 26.62 183.33 4.36 211.52 12.99"/>
          <polygon class="cls-2" points="153.37 26.62 183.33 19.56 128.12 26.62 0 19.97 139.77 6.65 245.53 1.09 266.22 0 288.1 13.12 298.53 19.36 313.52 28.36 332.78 39.91 153.37 26.62"/>
          <path class="cls-1" d="M92.43,33.43c-.34,9.54-66.84,9.37-86.81,9.07L.85,23.41c17.93-.1,91.95.14,91.58,10.02Z"/>
          <path class="cls-5" d="M245.53,1.09l20.69-1.09,21.88,13.12c-14.49,2.04-33.74,7.77-34.46,7.77.17-.14.92-.41,2.39-.92,15.61-8.79,6.1-14.83-10.5-18.88Z"/>
          <path class="cls-7" d="M313.52,28.36l-61.31,2.66s33.09-5.86,46.32-11.66l15,9Z"/>
        </g>
      </g>
    </g>
  </g>
</svg>