<?xml version="1.0" encoding="UTF-8"?>
<svg xmlns="http://www.w3.org/2000/svg" xmlns:xlink="http://www.w3.org/1999/xlink" viewBox="0 0 188.21 183.42">
  <defs>
    <style>
      .cls-1 {
        fill: url(#_ÂÁ_Ï_ÌÌ_È_ËÂÌÚ_9-2);
      }

      .cls-1, .cls-2, .cls-3, .cls-4, .cls-5, .cls-6, .cls-7, .cls-8, .cls-9, .cls-10, .cls-11, .cls-12, .cls-13, .cls-14, .cls-15, .cls-16, .cls-17, .cls-18, .cls-19, .cls-20, .cls-21, .cls-22, .cls-23, .cls-24, .cls-25, .cls-26, .cls-27, .cls-28, .cls-29, .cls-30, .cls-31, .cls-32, .cls-33, .cls-34, .cls-35, .cls-36, .cls-37 {
        fill-rule: evenodd;
        stroke-width: 0px;
      }

      .cls-2 {
        fill: url(#_ÂÁ_Ï_ÌÌ_È_ËÂÌÚ_9-20);
      }

      .cls-3 {
        fill: url(#_ÂÁ_Ï_ÌÌ_È_ËÂÌÚ_3);
      }

      .cls-3, .cls-7, .cls-8, .cls-26, .cls-35, .cls-36 {
        mix-blend-mode: multiply;
        opacity: .5;
      }

      .cls-4 {
        fill: url(#_ÂÁ_Ï_ÌÌ_È_ËÂÌÚ_10-7);
      }

      .cls-5 {
        fill: url(#_ÂÁ_Ï_ÌÌ_È_ËÂÌÚ_9-15);
      }

      .cls-6 {
        fill: url(#_ÂÁ_Ï_ÌÌ_È_ËÂÌÚ_10-5);
      }

      .cls-7 {
        fill: url(#_ÂÁ_Ï_ÌÌ_È_ËÂÌÚ_3-5);
      }

      .cls-38 {
        isolation: isolate;
      }

      .cls-8 {
        fill: url(#_ÂÁ_Ï_ÌÌ_È_ËÂÌÚ_3-3);
      }

      .cls-9 {
        fill: url(#_ÂÁ_Ï_ÌÌ_È_ËÂÌÚ_9-12);
      }

      .cls-10 {
        fill: url(#_ÂÁ_Ï_ÌÌ_È_ËÂÌÚ_9-13);
      }

      .cls-11 {
        fill: url(#_ÂÁ_Ï_ÌÌ_È_ËÂÌÚ_10-6);
      }

      .cls-12 {
        fill: url(#_ÂÁ_Ï_ÌÌ_È_ËÂÌÚ_10);
      }

      .cls-13 {
        fill: url(#_ÂÁ_Ï_ÌÌ_È_ËÂÌÚ_10-2);
      }

      .cls-14 {
        fill: url(#_ÂÁ_Ï_ÌÌ_È_ËÂÌÚ_9-3);
      }

      .cls-15 {
        fill: url(#_ÂÁ_Ï_ÌÌ_È_ËÂÌÚ_9-19);
      }

      .cls-16 {
        fill: url(#_ÂÁ_Ï_ÌÌ_È_ËÂÌÚ_10-4);
      }

      .cls-17 {
        fill: #b25460;
        mix-blend-mode: color-dodge;
        opacity: .4;
      }

      .cls-18 {
        fill: url(#_ÂÁ_Ï_ÌÌ_È_ËÂÌÚ_9-5);
      }

      .cls-19 {
        fill: url(#_ÂÁ_Ï_ÌÌ_È_ËÂÌÚ_9-9);
      }

      .cls-20 {
        fill: url(#_ÂÁ_Ï_ÌÌ_È_ËÂÌÚ_9-10);
      }

      .cls-21 {
        fill: url(#_ÂÁ_Ï_ÌÌ_È_ËÂÌÚ_9-11);
      }

      .cls-22 {
        fill: url(#_ÂÁ_Ï_ÌÌ_È_ËÂÌÚ_9-21);
      }

      .cls-23 {
        fill: url(#_ÂÁ_Ï_ÌÌ_È_ËÂÌÚ_9);
      }

      .cls-24 {
        fill: url(#_ÂÁ_Ï_ÌÌ_È_ËÂÌÚ_9-18);
      }

      .cls-25 {
        fill: url(#_ÂÁ_Ï_ÌÌ_È_ËÂÌÚ_9-8);
      }

      .cls-26 {
        fill: url(#_ÂÁ_Ï_ÌÌ_È_ËÂÌÚ_3-2);
      }

      .cls-27 {
        fill: url(#_ÂÁ_Ï_ÌÌ_È_ËÂÌÚ_9-22);
      }

      .cls-28 {
        fill: url(#_ÂÁ_Ï_ÌÌ_È_ËÂÌÚ_10-3);
      }

      .cls-29 {
        fill: url(#_ÂÁ_Ï_ÌÌ_È_ËÂÌÚ_9-16);
      }

      .cls-30 {
        fill: url(#_ÂÁ_Ï_ÌÌ_È_ËÂÌÚ_9-17);
      }

      .cls-31 {
        fill: url(#_ÂÁ_Ï_ÌÌ_È_ËÂÌÚ_9-4);
      }

      .cls-32 {
        fill: #7a1137;
      }

      .cls-33 {
        fill: url(#_ÂÁ_Ï_ÌÌ_È_ËÂÌÚ_9-6);
      }

      .cls-34 {
        fill: url(#_ÂÁ_Ï_ÌÌ_È_ËÂÌÚ_9-7);
      }

      .cls-35 {
        fill: url(#_ÂÁ_Ï_ÌÌ_È_ËÂÌÚ_3-4);
      }

      .cls-36 {
        fill: url(#_ÂÁ_Ï_ÌÌ_È_ËÂÌÚ_3-6);
      }

      .cls-37 {
        fill: url(#_ÂÁ_Ï_ÌÌ_È_ËÂÌÚ_9-14);
      }
    </style>
    <linearGradient id="_ÂÁ_Ï_ÌÌ_È_ËÂÌÚ_10" data-name="¡ÂÁ˚ÏˇÌÌ˚È „‡‰ËÂÌÚ 10" x1="3799.91" y1="150.63" x2="3967.15" y2="45.9" gradientTransform="translate(3987.36) rotate(-180) scale(1 -1)" gradientUnits="userSpaceOnUse">
      <stop offset="0" stop-color="#cf3111"/>
      <stop offset="1" stop-color="#991632"/>
    </linearGradient>
    <linearGradient id="_ÂÁ_Ï_ÌÌ_È_ËÂÌÚ_9" data-name="¡ÂÁ˚ÏˇÌÌ˚È „‡‰ËÂÌÚ 9" x1="3898" y1="161.47" x2="3838.72" y2="21.44" gradientTransform="translate(3987.36) rotate(-180) scale(1 -1)" gradientUnits="userSpaceOnUse">
      <stop offset="0" stop-color="#bc2927"/>
      <stop offset="1" stop-color="#d76f00"/>
    </linearGradient>
    <linearGradient id="_ÂÁ_Ï_ÌÌ_È_ËÂÌÚ_9-2" data-name="¡ÂÁ˚ÏˇÌÌ˚È „‡‰ËÂÌÚ 9" x1="3839.46" y1="-10.83" x2="3856.89" y2="82.45" xlink:href="#_ÂÁ_Ï_ÌÌ_È_ËÂÌÚ_9"/>
    <linearGradient id="_ÂÁ_Ï_ÌÌ_È_ËÂÌÚ_9-3" data-name="¡ÂÁ˚ÏˇÌÌ˚È „‡‰ËÂÌÚ 9" x1="3899.83" y1="192.66" x2="3891.9" y2="142.76" xlink:href="#_ÂÁ_Ï_ÌÌ_È_ËÂÌÚ_9"/>
    <linearGradient id="_ÂÁ_Ï_ÌÌ_È_ËÂÌÚ_9-4" data-name="¡ÂÁ˚ÏˇÌÌ˚È „‡‰ËÂÌÚ 9" x1="3866.74" y1="197.04" x2="3859.82" y2="153.52" xlink:href="#_ÂÁ_Ï_ÌÌ_È_ËÂÌÚ_9"/>
    <linearGradient id="_ÂÁ_Ï_ÌÌ_È_ËÂÌÚ_9-5" data-name="¡ÂÁ˚ÏˇÌÌ˚È „‡‰ËÂÌÚ 9" x1="3982.74" y1="236.77" x2="3921.65" y2="99.42" xlink:href="#_ÂÁ_Ï_ÌÌ_È_ËÂÌÚ_9"/>
    <linearGradient id="_ÂÁ_Ï_ÌÌ_È_ËÂÌÚ_9-6" data-name="¡ÂÁ˚ÏˇÌÌ˚È „‡‰ËÂÌÚ 9" x1="3975.35" y1="202.72" x2="3945.62" y2="135.87" xlink:href="#_ÂÁ_Ï_ÌÌ_È_ËÂÌÚ_9"/>
    <linearGradient id="_ÂÁ_Ï_ÌÌ_È_ËÂÌÚ_9-7" data-name="¡ÂÁ˚ÏˇÌÌ˚È „‡‰ËÂÌÚ 9" x1="3987.41" y1="83.92" x2="3868.02" y2="59.71" xlink:href="#_ÂÁ_Ï_ÌÌ_È_ËÂÌÚ_9"/>
    <linearGradient id="_ÂÁ_Ï_ÌÌ_È_ËÂÌÚ_9-8" data-name="¡ÂÁ˚ÏˇÌÌ˚È „‡‰ËÂÌÚ 9" x1="3962.54" y1="179.58" x2="3843.57" y2="45.57" xlink:href="#_ÂÁ_Ï_ÌÌ_È_ËÂÌÚ_9"/>
    <linearGradient id="_ÂÁ_Ï_ÌÌ_È_ËÂÌÚ_9-9" data-name="¡ÂÁ˚ÏˇÌÌ˚È „‡‰ËÂÌÚ 9" x1="3885.64" y1="86.76" x2="3867.62" y2="50.14" xlink:href="#_ÂÁ_Ï_ÌÌ_È_ËÂÌÚ_9"/>
    <linearGradient id="_ÂÁ_Ï_ÌÌ_È_ËÂÌÚ_3" data-name="¡ÂÁ˚ÏˇÌÌ˚È „‡‰ËÂÌÚ 3" x1="3879.75" y1="127.97" x2="3867.68" y2="37.42" gradientTransform="translate(3987.36) rotate(-180) scale(1 -1)" gradientUnits="userSpaceOnUse">
      <stop offset="0" stop-color="#eb72ae"/>
      <stop offset="1" stop-color="#c33e60"/>
    </linearGradient>
    <linearGradient id="_ÂÁ_Ï_ÌÌ_È_ËÂÌÚ_9-10" data-name="¡ÂÁ˚ÏˇÌÌ˚È „‡‰ËÂÌÚ 9" x1="3964.26" y1="82.59" x2="3930.52" y2="36.53" xlink:href="#_ÂÁ_Ï_ÌÌ_È_ËÂÌÚ_9"/>
    <linearGradient id="_ÂÁ_Ï_ÌÌ_È_ËÂÌÚ_9-11" data-name="¡ÂÁ˚ÏˇÌÌ˚È „‡‰ËÂÌÚ 9" x1="3977.09" y1="122.46" x2="3877.9" y2="20.25" xlink:href="#_ÂÁ_Ï_ÌÌ_È_ËÂÌÚ_9"/>
    <linearGradient id="_ÂÁ_Ï_ÌÌ_È_ËÂÌÚ_3-2" data-name="¡ÂÁ˚ÏˇÌÌ˚È „‡‰ËÂÌÚ 3" x1="3995.13" y1="175.02" x2="3887.62" y2="64.24" xlink:href="#_ÂÁ_Ï_ÌÌ_È_ËÂÌÚ_3"/>
    <linearGradient id="_ÂÁ_Ï_ÌÌ_È_ËÂÌÚ_10-2" data-name="¡ÂÁ˚ÏˇÌÌ˚È „‡‰ËÂÌÚ 10" x1="3879.11" y1="189.33" x2="3935.6" y2="148.15" xlink:href="#_ÂÁ_Ï_ÌÌ_È_ËÂÌÚ_10"/>
    <linearGradient id="_ÂÁ_Ï_ÌÌ_È_ËÂÌÚ_9-12" data-name="¡ÂÁ˚ÏˇÌÌ˚È „‡‰ËÂÌÚ 9" x1="3937.47" y1="159.83" x2="3870.8" y2="112.89" xlink:href="#_ÂÁ_Ï_ÌÌ_È_ËÂÌÚ_9"/>
    <linearGradient id="_ÂÁ_Ï_ÌÌ_È_ËÂÌÚ_10-3" data-name="¡ÂÁ˚ÏˇÌÌ˚È „‡‰ËÂÌÚ 10" x1="3906.01" y1="167.27" x2="3959.97" y2="144" xlink:href="#_ÂÁ_Ï_ÌÌ_È_ËÂÌÚ_10"/>
    <linearGradient id="_ÂÁ_Ï_ÌÌ_È_ËÂÌÚ_10-4" data-name="¡ÂÁ˚ÏˇÌÌ˚È „‡‰ËÂÌÚ 10" x1="3849.72" y1="139.14" x2="3855.74" y2="164.53" xlink:href="#_ÂÁ_Ï_ÌÌ_È_ËÂÌÚ_10"/>
    <linearGradient id="_ÂÁ_Ï_ÌÌ_È_ËÂÌÚ_9-13" data-name="¡ÂÁ˚ÏˇÌÌ˚È „‡‰ËÂÌÚ 9" x1="3950.19" y1="208.37" x2="3916.17" y2="131.86" xlink:href="#_ÂÁ_Ï_ÌÌ_È_ËÂÌÚ_9"/>
    <linearGradient id="_ÂÁ_Ï_ÌÌ_È_ËÂÌÚ_9-14" data-name="¡ÂÁ˚ÏˇÌÌ˚È „‡‰ËÂÌÚ 9" x1="3959.79" y1="213.11" x2="3922.62" y2="129.54" xlink:href="#_ÂÁ_Ï_ÌÌ_È_ËÂÌÚ_9"/>
    <linearGradient id="_ÂÁ_Ï_ÌÌ_È_ËÂÌÚ_3-3" data-name="¡ÂÁ˚ÏˇÌÌ˚È „‡‰ËÂÌÚ 3" x1="3950.27" y1="181.96" x2="3935.77" y2="171.74" xlink:href="#_ÂÁ_Ï_ÌÌ_È_ËÂÌÚ_3"/>
    <linearGradient id="_ÂÁ_Ï_ÌÌ_È_ËÂÌÚ_9-15" data-name="¡ÂÁ˚ÏˇÌÌ˚È „‡‰ËÂÌÚ 9" x1="3861.15" y1="171.04" x2="3847.7" y2="155.75" xlink:href="#_ÂÁ_Ï_ÌÌ_È_ËÂÌÚ_9"/>
    <linearGradient id="_ÂÁ_Ï_ÌÌ_È_ËÂÌÚ_3-4" data-name="¡ÂÁ˚ÏˇÌÌ˚È „‡‰ËÂÌÚ 3" x1="3852.81" y1="168.87" x2="3851.15" y2="156.4" xlink:href="#_ÂÁ_Ï_ÌÌ_È_ËÂÌÚ_3"/>
    <linearGradient id="_ÂÁ_Ï_ÌÌ_È_ËÂÌÚ_9-16" data-name="¡ÂÁ˚ÏˇÌÌ˚È „‡‰ËÂÌÚ 9" x1="3830.65" y1="183.63" x2="3830.53" y2="182.74" xlink:href="#_ÂÁ_Ï_ÌÌ_È_ËÂÌÚ_9"/>
    <linearGradient id="_ÂÁ_Ï_ÌÌ_È_ËÂÌÚ_9-17" data-name="¡ÂÁ˚ÏˇÌÌ˚È „‡‰ËÂÌÚ 9" x1="3827.77" y1="194.05" x2="3820.64" y2="140.53" xlink:href="#_ÂÁ_Ï_ÌÌ_È_ËÂÌÚ_9"/>
    <linearGradient id="_ÂÁ_Ï_ÌÌ_È_ËÂÌÚ_9-18" data-name="¡ÂÁ˚ÏˇÌÌ˚È „‡‰ËÂÌÚ 9" x1="3890.12" y1="201.1" x2="3882.44" y2="143.45" xlink:href="#_ÂÁ_Ï_ÌÌ_È_ËÂÌÚ_9"/>
    <linearGradient id="_ÂÁ_Ï_ÌÌ_È_ËÂÌÚ_3-5" data-name="¡ÂÁ˚ÏˇÌÌ˚È „‡‰ËÂÌÚ 3" x1="4101.5" y1="436.53" x2="3817.15" y2="116.23" xlink:href="#_ÂÁ_Ï_ÌÌ_È_ËÂÌÚ_3"/>
    <linearGradient id="_ÂÁ_Ï_ÌÌ_È_ËÂÌÚ_9-19" data-name="¡ÂÁ˚ÏˇÌÌ˚È „‡‰ËÂÌÚ 9" x1="3873" y1="62.02" x2="3856" y2="42.69" xlink:href="#_ÂÁ_Ï_ÌÌ_È_ËÂÌÚ_9"/>
    <linearGradient id="_ÂÁ_Ï_ÌÌ_È_ËÂÌÚ_10-5" data-name="¡ÂÁ˚ÏˇÌÌ˚È „‡‰ËÂÌÚ 10" x1="3952.06" y1="100.77" x2="3867.01" y2="113.15" xlink:href="#_ÂÁ_Ï_ÌÌ_È_ËÂÌÚ_10"/>
    <linearGradient id="_ÂÁ_Ï_ÌÌ_È_ËÂÌÚ_10-6" data-name="¡ÂÁ˚ÏˇÌÌ˚È „‡‰ËÂÌÚ 10" x1="3847.05" y1="67.56" x2="3854.62" y2="42.3" xlink:href="#_ÂÁ_Ï_ÌÌ_È_ËÂÌÚ_10"/>
    <linearGradient id="_ÂÁ_Ï_ÌÌ_È_ËÂÌÚ_10-7" data-name="¡ÂÁ˚ÏˇÌÌ˚È „‡‰ËÂÌÚ 10" x1="3880.82" y1="95.43" x2="3935.01" y2="140.88" xlink:href="#_ÂÁ_Ï_ÌÌ_È_ËÂÌÚ_10"/>
    <linearGradient id="_ÂÁ_Ï_ÌÌ_È_ËÂÌÚ_3-6" data-name="¡ÂÁ˚ÏˇÌÌ˚È „‡‰ËÂÌÚ 3" x1="3891.32" y1="124.63" x2="3937.06" y2="163.81" xlink:href="#_ÂÁ_Ï_ÌÌ_È_ËÂÌÚ_3"/>
    <linearGradient id="_ÂÁ_Ï_ÌÌ_È_ËÂÌÚ_9-20" data-name="¡ÂÁ˚ÏˇÌÌ˚È „‡‰ËÂÌÚ 9" x1="3884.99" y1="101.85" x2="3871.28" y2="86.4" xlink:href="#_ÂÁ_Ï_ÌÌ_È_ËÂÌÚ_9"/>
    <linearGradient id="_ÂÁ_Ï_ÌÌ_È_ËÂÌÚ_9-21" data-name="¡ÂÁ˚ÏˇÌÌ˚È „‡‰ËÂÌÚ 9" x1="3890.92" y1="108.35" x2="3872.55" y2="87.65" xlink:href="#_ÂÁ_Ï_ÌÌ_È_ËÂÌÚ_9"/>
    <linearGradient id="_ÂÁ_Ï_ÌÌ_È_ËÂÌÚ_9-22" data-name="¡ÂÁ˚ÏˇÌÌ˚È „‡‰ËÂÌÚ 9" x1="3942.64" y1="225.69" x2="3903.23" y2="137.09" xlink:href="#_ÂÁ_Ï_ÌÌ_È_ËÂÌÚ_9"/>
  </defs>
  <g class="cls-38">
    <g id="Layer_2" data-name="Layer 2">
      <g id="Layer_1-2" data-name="Layer 1">
        <g>
          <polygon class="cls-12" points="148.02 135.35 144.43 131.63 144.8 116.07 140.34 110.95 136.29 111.35 96.11 115.42 95.58 108.16 98.12 106.27 111.6 96.21 111.6 96.21 111.15 86.89 112.98 85.7 113.93 93.02 114.06 92.85 139.14 58.47 139.49 57.99 141.07 55.83 141.1 55.79 143.71 55.11 150.47 36.67 179.88 27.07 181.07 22.92 185.72 6.77 187.49 .61 168.45 4.9 168.44 4.9 119.49 15.91 103.85 19.43 59.76 29.36 59.33 29.45 58.56 29.63 48.57 36.16 48.55 36.17 44.13 39.06 34.4 45.42 35.41 58.18 35.45 58.65 43.59 73.17 44.99 109.48 45.17 114.14 47.79 139.75 47.64 140.05 35.45 163.22 26.79 163.22 22.58 176.02 1.05 179.01 0 183.28 185.65 183.28 182.51 165.78 165.12 152.89 165.12 152.89 164.65 152.55 159.01 146.72 153.88 141.41 149.05 136.42 148.02 135.35"/>
          <polygon class="cls-23" points="114.28 45.52 116.63 44.86 116.86 44.79 177.46 27.75 179.88 27.07 181.15 22.92 182.92 17.19 185.09 10.15 186.12 6.81 188.21 0 155.74 3.52 121 7.28 117.05 29.76 116.79 31.29 116.36 33.69 114.41 44.79 114.28 45.52"/>
          <polygon class="cls-1" points="150.47 36.68 125.49 52.19 123.99 55.83 145.27 55.83 150.47 36.68"/>
          <polygon class="cls-14" points="51.93 132.91 58.61 133.82 100.84 139.58 144.8 116.07 140.42 110.45 138.25 110.7 96.11 115.42 87.77 120.16 65.74 124.41 51.93 132.91"/>
          <polygon class="cls-31" points="90.39 154.76 92.25 159.61 120.6 156.84 123.46 156.57 164.65 152.55 159.01 146.72 153.88 141.41 149.05 136.42 148.02 135.35 144.43 131.63 90.39 154.76"/>
          <polygon class="cls-18" points="44.09 171.75 39.98 172.96 26.79 163.22 35.45 163.22 44.09 171.75"/>
          <polygon class="cls-33" points="22.58 176.02 42.97 181.46 1.05 179.01 22.58 176.02"/>
          <polygon class="cls-34" points="56.03 107.42 65 102.89 65.09 102.84 88.32 91.09 88.48 91.47 91.39 98.32 95.58 108.16 98.12 106.27 111.6 96.21 111.6 96.21 111.15 86.89 110.95 82.79 110.18 66.76 110.56 63.75 110.83 61.65 111.46 56.71 111.82 53.91 113 44.76 114.37 34.05 116.6 16.63 103.85 19.43 59.77 29.13 59.76 29.36 59.54 33.98 59.5 34.84 58.67 52.15 58.36 58.56 57.84 69.51 57.49 76.87 57.31 80.66 57.11 84.79 56.03 107.42"/>
          <polygon class="cls-25" points="110.92 69.79 112.98 85.7 113.93 93.02 114.06 92.85 114.09 93.08 138.42 74.83 139.27 58.43 139.58 58 139.49 57.99 113.54 56.44 110.92 69.79"/>
          <polygon class="cls-19" points="125.49 44.91 123.24 55.23 116.15 55.83 115.4 46.73 125.49 44.91"/>
          <polygon class="cls-3" points="88.48 91.47 91.39 98.32 95.58 108.16 98.12 106.27 111.6 96.21 111.6 96.21 111.15 86.89 112.98 85.7 113.93 93.02 114.06 92.85 114.09 93.08 138.79 74.16 139.29 58.42 110.92 69.79 111.36 82.64 111.03 94.39 91.11 96.42 88.48 91.47"/>
          <path class="cls-20" d="M49.31,53.41c.37-.61,8.59-4.25,8.59-4.25l1.49-20.63-14.48,10.21,4.4,14.67Z"/>
          <polygon class="cls-21" points="57.15 51.59 55.66 103.17 54.91 104.38 47.82 55.83 57.15 51.59"/>
          <polygon class="cls-26" points="47.82 55.83 52.3 104.38 44.99 109.48 48.57 127.45 47.64 140.05 47.68 140.43 51.93 132.91 65.74 124.41 95.61 125.02 136.29 111.35 138.25 110.7 96.11 115.42 95.58 108.16 95.58 108.11 88.66 91.62 88.54 91.44 88.32 91.09 82.55 94.07 71.18 99.88 67 102.02 66.99 102.03 55.61 107.86 55.29 108.03 55.41 105.23 55.41 105.22 55.49 103.45 55.96 92.95 55.96 92.89 57.9 49.16 48.94 50.98 44.91 38.74 44.13 39.06 34.4 45.42 35.41 58.18 47.82 55.83"/>
          <polygon class="cls-32" points="50.63 75.1 54.54 111.67 52.67 129.27 47.79 139.75 51.93 132.91 57.24 129.44 55.34 104.23 54.91 104.38 50.63 75.1"/>
          <polygon class="cls-13" points="92.78 160.46 93 148.69 58.65 132.91 51.93 132.91 35.7 162.53 44.46 172.36 92.78 160.46"/>
          <polygon class="cls-32" points="91.44 98.34 86.13 93.04 65 102.89 88.58 91.42 91.44 98.34"/>
          <polygon class="cls-9" points="100.84 139.58 93 148.69 59.99 133.51 100.84 139.58"/>
          <polygon class="cls-28" points="53.05 148.69 54.17 157.18 47.07 154.76 54.17 135.34 52.3 134.12 35.45 163.22 43.77 171.69 41.54 162.18 49.62 163.83 51.18 172.96 62.38 168.11 58.96 160.63 76.57 153.54 75.45 146.26 53.05 148.69"/>
          <polygon class="cls-16" points="166.56 156.58 164.65 152.55 92.25 159.61 95.12 182.74 167.7 183.36 166.56 156.58"/>
          <polygon class="cls-10" points="75.45 146.26 61.26 145.05 53.05 148.69 75.45 146.26"/>
          <polygon class="cls-37" points="49.31 163.86 61.64 156.58 47.45 154.76 41.1 162.65 49.31 163.86"/>
          <polygon class="cls-8" points="39.98 172.96 42.97 181.46 45.95 182.67 44.09 171.75 39.98 172.96"/>
          <polygon class="cls-32" points="57.5 54.44 54.17 51.59 57.78 49.95 57.5 54.44"/>
          <polygon class="cls-5" points="140.42 159.01 132.21 158.4 138.18 163.25 140.42 159.01"/>
          <polygon class="cls-35" points="132.58 163.86 132.21 158.4 138.18 163.25 138.55 166.89 132.58 163.86"/>
          <polygon class="cls-29" points="158.68 183.17 154.83 183.15 154.83 183.2 158.72 183.28 158.68 183.17"/>
          <polygon class="cls-30" points="155.73 174.18 158.68 183.17 185.65 183.28 182.51 165.78 169.17 151.72 141.91 159.61 139.02 163.6 155.73 174.18"/>
          <polygon class="cls-24" points="45.95 171.75 45.95 182.67 83.14 182.84 88.49 182.86 154.83 183.15 153.49 173.57 129.22 158.4 121.89 158.76 121.89 158.76 119.07 158.89 119.06 158.89 66.86 161.43 45.95 171.75"/>
          <polygon class="cls-7" points="182.5 165.78 155.73 174.18 45.95 171.75 45.95 182.67 185.65 183.28 182.5 165.78"/>
          <polygon class="cls-15" points="130.71 46.73 128.1 43.09 125.49 49.16 130.71 46.73"/>
          <polygon class="cls-17" points="155.74 3.52 186.12 6.81 188.21 0 155.74 3.52"/>
          <path class="cls-17" d="M116.73,31.3s.02,0,.06,0c1.85-.2,48.7-5.21,51.27-5.8,1.15-.27,5.23.89,9.41,2.26l2.42-.68,1.28-4.14c-5.84.16-13.63.78-21.69,2.57-16.43,3.64-41.08-2.04-41.08-2.04l-1.33,6.31-.32,1.54Z"/>
          <path class="cls-17" d="M58.36,58.56c2.98.94,28.25,5.03,53.31-5.16l.15.5c-30.53,10.06-49.19.6-53.15-1.76l-.31,6.41Z"/>
          <path class="cls-17" d="M59.5,34.84c4.75,1.81,10.22,4.04,13.34,5.83,5.14,2.95,30.63,3.85,40.16,4.1l1.37-10.71c-8.6,1.55-30.06,5.14-38.92,4.18-5.18-.56-11.07-2.42-15.91-4.25l-.04.86Z"/>
          <path class="cls-17" d="M57.49,76.87c14.89-11.4,45.27-12.91,53.07-13.11l-.1-.89-15.59,2.07s-23.34.27-37.03,4.57l-.35,7.36Z"/>
          <path class="cls-17" d="M57.11,84.79l6.76-8.33s-2.73,0-6.56,4.19l-.2,4.14Z"/>
          <path class="cls-17" d="M88.49,182.86l-.1-9.62,33.5-14.48h0l.43-.19.63-1.86s.18-.05.5-.14c3.38-.93,22.93-6.34,35.55-9.85l-5.13-5.3c-8.38,4.54-19.2,9.87-19.43,7.28-.28-3.16,9.73-8.98,14.6-12.27l-1.03-1.07-27.35,21.15-.07.35-.34,1.55-1.19.49h0l-34.61,14.35-1.31,9.6,5.35.02Z"/>
          <path class="cls-17" d="M77.32,172.36c-14.56-.61-27.96-2.43-27.96-2.43l-4.9,2.43h32.86Z"/>
          <polygon class="cls-6" points="63.5 106.21 85.53 101.35 75.45 110.45 63.88 111.67 63.5 106.21"/>
          <polygon class="cls-11" points="150.47 36.68 131.09 48.55 130.71 46.73 128.1 43.09 125.49 49.16 124.56 49.52 125.49 44.91 115.4 46.73 114.28 45.52 150.47 36.68"/>
          <polygon class="cls-4" points="88.15 100.14 75.82 112.88 72.84 122.59 95.61 115.31 95.61 107.42 88.15 100.14"/>
          <polygon class="cls-36" points="45.95 182.67 44.09 171.75 60.82 164.54 67.04 161.84 88.62 160.49 90.39 156.58 93.19 149.02 59.16 132.84 51.93 132.91 35.45 163.22 26.79 163.22 22.58 176.02 33.84 181.4 33.84 183.42 45.95 182.67"/>
          <polygon class="cls-2" points="113.1 85.62 112.98 85.7 113.93 93.02 114.06 92.85 113.1 85.62"/>
          <polygon class="cls-22" points="111.03 86.97 111.6 96.21 111.6 96.21 111.15 86.89 111.03 86.97"/>
          <polygon class="cls-17" points="140.42 110.45 135.93 120.7 144.8 116.07 140.42 110.45"/>
          <polygon class="cls-27" points="85.91 147.47 90.39 156.58 58.65 160.83 60.14 159.01 85.91 147.47"/>
        </g>
      </g>
    </g>
  </g>
</svg>