<?xml version="1.0" encoding="UTF-8"?>
<svg xmlns="http://www.w3.org/2000/svg" xmlns:xlink="http://www.w3.org/1999/xlink" viewBox="0 0 211.26 142.18">
  <defs>
    <style>
      .cls-1 {
        fill: #eb7e2d;
      }

      .cls-1, .cls-2, .cls-3, .cls-4, .cls-5, .cls-6, .cls-7, .cls-8, .cls-9, .cls-10, .cls-11, .cls-12, .cls-13 {
        fill-rule: evenodd;
        stroke-width: 0px;
      }

      .cls-14 {
        isolation: isolate;
      }

      .cls-2 {
        fill: #eb5c07;
      }

      .cls-3 {
        fill: #eca61a;
        mix-blend-mode: color-dodge;
        opacity: .15;
      }

      .cls-4 {
        fill: #ed8102;
      }

      .cls-4, .cls-8, .cls-9 {
        mix-blend-mode: soft-light;
      }

      .cls-4, .cls-11 {
        opacity: .5;
      }

      .cls-5 {
        fill: url(#linear-gradient);
      }

      .cls-6 {
        fill: #ee7d07;
      }

      .cls-7 {
        fill: #bc130c;
      }

      .cls-8 {
        fill: #ece237;
      }

      .cls-9 {
        fill: #a75881;
      }

      .cls-10 {
        fill: #ec8702;
      }

      .cls-11, .cls-13 {
        fill: #8b0a05;
      }

      .cls-12 {
        fill: #ec9a02;
        mix-blend-mode: multiply;
        opacity: .46;
      }
    </style>
    <linearGradient id="linear-gradient" x1="105.63" y1="142.16" x2="105.63" y2="25.93" gradientUnits="userSpaceOnUse">
      <stop offset="0" stop-color="#891006"/>
      <stop offset=".97" stop-color="#b41405"/>
    </linearGradient>
  </defs>
  <g class="cls-14">
    <g id="Layer_2" data-name="Layer 2">
      <g id="Layer_1-2" data-name="Layer 1">
        <g>
          <polygon class="cls-5" points="111.81 48.08 35.17 5.64 28.83 50.18 36.99 111.49 20.01 108.85 0 132.29 1.96 141.58 211.26 141.58 198.65 101.92 148 64.07 135.98 71.62 131.63 83.59 111.81 48.08"/>
          <polygon class="cls-8" points="35.17 5.64 66.98 98.59 59.5 50.78 79.25 114.38 106.9 132.43 145.29 131.11 131.63 83.59 111.81 48.08 66.07 0 35.17 5.64"/>
          <polygon class="cls-8" points="20.01 108.85 0 132.29 55.99 136.44 36.99 111.49 20.01 108.85"/>
          <polygon class="cls-8" points="135.98 71.62 162.56 138.29 171.49 139.16 167.16 115.81 179.84 136.44 209.78 136.93 198.65 101.92 148 64.07 135.98 71.62"/>
          <polygon class="cls-6" points="135.98 71.62 149.72 101.61 198.65 101.92 148 64.07 135.98 71.62"/>
          <polygon class="cls-6" points="20.01 108.85 22.26 134.1 55.99 136.44 36.99 111.49 20.01 108.85"/>
          <polygon class="cls-6" points="35.17 5.64 43.41 29.72 111.81 48.08 66.07 0 35.17 5.64"/>
          <polygon class="cls-11" points="43.41 29.72 29.64 56.25 31.95 73.61 45.16 34.83 43.41 29.72"/>
          <polygon class="cls-11" points="47.17 40.7 32.87 80.49 35.72 101.92 58.43 73.61 47.17 40.7"/>
          <polygon class="cls-13" points="79.25 114.38 55.99 136.44 26.52 142.18 128.15 141 106.9 132.43 79.25 114.38"/>
          <polygon class="cls-13" points="66.98 98.59 54.03 132.43 74.46 98.97 59.5 50.78 66.98 98.59"/>
          <polygon class="cls-13" points="145.29 131.11 144.19 141.58 161.63 141.58 162.56 138.29 139.47 80.39 133.94 91.61 145.29 131.11"/>
          <polygon class="cls-2" points="40.64 23.26 54.03 32.34 50 48.97 40.64 23.26"/>
          <polygon class="cls-2" points="145.93 96.26 159.42 101.61 153.33 115.81 145.93 96.26"/>
          <polygon class="cls-1" points="50.15 29.72 61.43 34.55 53.49 34.55 50.15 29.72"/>
          <polygon class="cls-1" points="159.42 101.61 167.31 101.72 157.79 105.4 159.42 101.61"/>
          <polygon class="cls-1" points="18.83 133.68 22.04 131.64 35.17 134.99 18.83 133.68"/>
          <polygon class="cls-1" points="77.04 38.75 92.59 40.7 111.81 48.08 77.04 38.75"/>
          <polygon class="cls-4" points="71.23 37.19 94.42 108.85 115.61 112.24 90.23 58.91 95.5 56.88 121.64 108.85 139.86 112.24 131.63 83.59 111.81 48.08 71.23 37.19"/>
          <polygon class="cls-4" points="198.65 101.92 198.35 136.74 209.78 136.93 198.65 101.92"/>
          <polygon class="cls-4" points="179.84 136.44 162.55 103.56 167.31 101.72 175.5 101.92 185.8 136.54 179.84 136.44"/>
          <polygon class="cls-9" points="36.99 111.49 28.83 50.18 41.3 98.59 48.44 103.58 43.41 29.72 66.98 98.59 54.03 132.43 36.99 111.49"/>
          <polygon class="cls-7" points="79.25 114.38 117.57 132.06 106.9 132.43 79.25 114.38"/>
          <polygon class="cls-3" points="125.08 71.85 63.84 64.75 62.29 68.57 55.47 64.95 31.95 73.61 32.87 83 58.43 73.61 63.25 74.71 65.51 70.14 126.49 74.38 125.08 71.85"/>
          <polygon class="cls-3" points="129.85 80.39 68.69 80.39 64.52 82.85 60.99 81.07 34.58 93.35 34.35 91.61 60.42 79.4 64.24 81.07 67.73 77.63 128.3 77.63 129.85 80.39"/>
          <polygon class="cls-12" points="32.87 83 34.35 91.61 60.42 79.4 64.24 81.07 67.73 77.63 128.3 77.63 126.49 74.38 65.51 70.14 63.25 74.71 58.43 73.61 32.87 83"/>
          <polygon class="cls-3" points="139.86 112.24 77.33 106.03 58.43 119.43 47.34 125.07 20.95 119.43 8.23 122.64 5.82 125.47 20.97 120.71 49 127.25 60.05 120.71 77.53 108.85 140.89 115.81 139.86 112.24"/>
          <polygon class="cls-3" points="204.68 122.64 175.67 129.64 179.84 136.44 207.03 128.28 204.68 122.64"/>
          <polygon class="cls-10" points="113.89 51.82 115.61 65.4 125.08 71.85 113.89 51.82"/>
          <polygon class="cls-10" points="83.42 80.53 92.59 83 98.41 80.39 83.42 80.53"/>
          <polygon class="cls-10" points="101.52 77.63 104.31 74.71 115.39 73.61 117.57 77.63 101.52 77.63"/>
          <polygon class="cls-10" points="80.58 101.61 80.58 96.26 82.1 101.92 80.58 105.4 80.58 101.61"/>
          <polygon class="cls-10" points="92.87 96.26 98.41 103.51 101.52 101.92 103.16 99.88 92.87 96.26"/>
          <polygon class="cls-10" points="98.41 93.35 99.73 96.26 103.16 94.81 98.41 93.35"/>
          <polygon class="cls-10" points="82.1 44.83 83.42 48.97 87.05 48.97 85.41 43.42 82.1 44.83"/>
          <polygon class="cls-10" points="160.59 114.38 160.59 119.43 164.17 122.64 160.59 114.38"/>
          <polygon class="cls-10" points="186.84 106.64 191.35 106.64 194.3 114.38 190.57 114.38 186.84 106.64"/>
          <polygon class="cls-10" points="183.11 103.51 186.84 110.99 184.98 110.99 181.02 105.4 183.11 103.51"/>
        </g>
      </g>
    </g>
  </g>
</svg>