<?xml version="1.0" encoding="UTF-8"?>
<svg xmlns="http://www.w3.org/2000/svg" xmlns:xlink="http://www.w3.org/1999/xlink" viewBox="0 0 133.83 195.03">
  <defs>
    <style>
      .cls-1 {
        filter: url(#luminosity-noclip-7);
      }

      .cls-2 {
        filter: url(#luminosity-noclip-5);
      }

      .cls-3 {
        fill: #874f29;
      }

      .cls-3, .cls-4, .cls-5, .cls-6, .cls-7, .cls-8, .cls-9, .cls-10, .cls-11, .cls-12, .cls-13, .cls-14, .cls-15, .cls-16, .cls-17, .cls-18, .cls-19 {
        stroke-width: 0px;
      }

      .cls-20 {
        mask: url(#mask-2);
      }

      .cls-4 {
        fill: #e5ac77;
      }

      .cls-21 {
        isolation: isolate;
      }

      .cls-22 {
        mask: url(#mask-3);
      }

      .cls-5 {
        fill: url(#linear-gradient-5);
      }

      .cls-5, .cls-7, .cls-10, .cls-12, .cls-16, .cls-18 {
        mix-blend-mode: multiply;
      }

      .cls-6 {
        fill: #bc723f;
      }

      .cls-7 {
        fill: url(#linear-gradient-9);
      }

      .cls-23 {
        mask: url(#mask-9);
      }

      .cls-24 {
        mask: url(#mask-5);
      }

      .cls-8 {
        fill: url(#linear-gradient-2);
      }

      .cls-8, .cls-11, .cls-14, .cls-15 {
        mix-blend-mode: overlay;
        opacity: .73;
      }

      .cls-25 {
        filter: url(#luminosity-noclip-9);
      }

      .cls-9 {
        fill: #995a37;
      }

      .cls-10 {
        fill: url(#_ÂÁ_Ï_ÌÌ_È_ËÂÌÚ_4);
        opacity: .3;
      }

      .cls-26 {
        mask: url(#mask-8);
      }

      .cls-27 {
        mask: url(#mask-4);
      }

      .cls-11 {
        fill: url(#linear-gradient-8);
      }

      .cls-12 {
        fill: url(#linear-gradient);
      }

      .cls-28 {
        mask: url(#mask-6);
      }

      .cls-13 {
        fill: #986038;
      }

      .cls-14 {
        fill: url(#linear-gradient-4);
      }

      .cls-29 {
        filter: url(#luminosity-noclip);
      }

      .cls-30 {
        mask: url(#mask-1);
      }

      .cls-31 {
        mask: url(#mask);
      }

      .cls-15 {
        fill: url(#linear-gradient-6);
      }

      .cls-32 {
        mask: url(#mask-7);
      }

      .cls-16 {
        fill: url(#linear-gradient-3);
      }

      .cls-17 {
        fill: url(#linear-gradient-10);
      }

      .cls-18 {
        fill: url(#linear-gradient-7);
      }

      .cls-19 {
        fill: #b17b5a;
      }

      .cls-33 {
        filter: url(#luminosity-noclip-3);
      }
    </style>
    <linearGradient id="_ÂÁ_Ï_ÌÌ_È_ËÂÌÚ_4" data-name="¡ÂÁ˚ÏˇÌÌ˚È „‡‰ËÂÌÚ 4" x1="23.33" y1="74.47" x2="64.97" y2="74.47" gradientUnits="userSpaceOnUse">
      <stop offset="0" stop-color="#a86349"/>
      <stop offset=".26" stop-color="#a06245"/>
      <stop offset=".65" stop-color="#8c603d"/>
      <stop offset="1" stop-color="#745f34"/>
    </linearGradient>
    <filter id="luminosity-noclip" x="12.42" y="109.61" width="31.68" height="83.57" color-interpolation-filters="sRGB" filterUnits="userSpaceOnUse">
      <feFlood flood-color="#fff" result="bg"/>
      <feBlend in="SourceGraphic" in2="bg"/>
    </filter>
    <filter id="luminosity-noclip-2" x="12.42" y="-8226.91" width="31.68" height="32766" color-interpolation-filters="sRGB" filterUnits="userSpaceOnUse">
      <feFlood flood-color="#fff" result="bg"/>
      <feBlend in="SourceGraphic" in2="bg"/>
    </filter>
    <mask id="mask-1" x="12.42" y="-8226.91" width="31.68" height="32766" maskUnits="userSpaceOnUse"/>
    <linearGradient id="linear-gradient" x1="30.86" y1="108.76" x2="25.6" y2="219.71" gradientUnits="userSpaceOnUse">
      <stop offset=".23" stop-color="#4d4d4d"/>
      <stop offset=".82" stop-color="#b3b3b3"/>
    </linearGradient>
    <mask id="mask" x="12.42" y="109.61" width="31.68" height="83.57" maskUnits="userSpaceOnUse">
      <g class="cls-29">
        <g class="cls-30">
          <path class="cls-12" d="M44.1,136.32c-8.52,4.77-9.64,38.91-9.64,56.86l-5.25-.51c4.33-16.92,9.84-45.07-.43-47.35-10.04-2.23-12.7,27.01-13.36,45.98l-3-.3c1.8-17.98,4.38-46.99,2.81-51.02,14,4.23,8.45-25.61,7.48-30.38.21.87.68,2.96,1.82,7.92,4.36,17.8,7.35,20.98,19.58,18.79Z"/>
        </g>
      </g>
    </mask>
    <linearGradient id="linear-gradient-2" x1="30.86" y1="108.76" x2="25.6" y2="219.71" gradientUnits="userSpaceOnUse">
      <stop offset=".23" stop-color="#533418"/>
      <stop offset=".82" stop-color="#533418"/>
    </linearGradient>
    <filter id="luminosity-noclip-3" x="44.1" y="135.76" width="2.67" height=".57" color-interpolation-filters="sRGB" filterUnits="userSpaceOnUse">
      <feFlood flood-color="#fff" result="bg"/>
      <feBlend in="SourceGraphic" in2="bg"/>
    </filter>
    <filter id="luminosity-noclip-4" x="44.1" y="-8226.91" width="2.67" height="32766" color-interpolation-filters="sRGB" filterUnits="userSpaceOnUse">
      <feFlood flood-color="#fff" result="bg"/>
      <feBlend in="SourceGraphic" in2="bg"/>
    </filter>
    <mask id="mask-3" x="44.1" y="-8226.91" width="2.67" height="32766" maskUnits="userSpaceOnUse"/>
    <linearGradient id="linear-gradient-3" x1="45.45" y1="135.71" x2="45.41" y2="136.61" xlink:href="#linear-gradient"/>
    <mask id="mask-2" x="44.1" y="135.76" width="2.67" height=".57" maskUnits="userSpaceOnUse">
      <g class="cls-33">
        <g class="cls-22">
          <path class="cls-16" d="M46.77,135.8c-.94.2-1.83.38-2.67.53.83-.46,1.72-.66,2.67-.53Z"/>
        </g>
      </g>
    </mask>
    <linearGradient id="linear-gradient-4" x1="45.45" y1="135.71" x2="45.41" y2="136.61" xlink:href="#linear-gradient-2"/>
    <filter id="luminosity-noclip-5" x="67.59" y="15.44" width="43.67" height="43.22" color-interpolation-filters="sRGB" filterUnits="userSpaceOnUse">
      <feFlood flood-color="#fff" result="bg"/>
      <feBlend in="SourceGraphic" in2="bg"/>
    </filter>
    <filter id="luminosity-noclip-6" x="67.59" y="-8226.91" width="43.67" height="32766" color-interpolation-filters="sRGB" filterUnits="userSpaceOnUse">
      <feFlood flood-color="#fff" result="bg"/>
      <feBlend in="SourceGraphic" in2="bg"/>
    </filter>
    <mask id="mask-5" x="67.59" y="-8226.91" width="43.67" height="32766" maskUnits="userSpaceOnUse"/>
    <linearGradient id="linear-gradient-5" x1="90.1" y1="14.4" x2="87.28" y2="73.83" xlink:href="#linear-gradient"/>
    <mask id="mask-4" x="67.59" y="15.44" width="43.67" height="43.22" maskUnits="userSpaceOnUse">
      <g class="cls-2">
        <g class="cls-24">
          <path class="cls-5" d="M111.26,26.75l-4.16,13.41c-8.47-.08-18.52.51-18.56,3.75.07,2.56,7.99,2.79,16.67,2.29l-1.09,3.5c-1.5.07-3.09.1-4.77.08-3.37-2.18-8.06-1.54-12.98.41-5.02,2-10.25,5.37-14.5,8.47,2.18-1.98,4.41-4.21,6.19-6.46,1.83-2.31,3.22-4.62,3.65-6.72,1.19-5.96-8.5-12.05-14.13-15.04,9.36,4.42,32.82,14.41,36.44,5.12,4.56-11.66-17.75-7.76-26.04-9.71,12.3,0,20.08-10.42,20.08-10.42l13.19,11.31Z"/>
        </g>
      </g>
    </mask>
    <linearGradient id="linear-gradient-6" x1="90.1" y1="14.4" x2="87.28" y2="73.83" xlink:href="#linear-gradient-2"/>
    <filter id="luminosity-noclip-7" x="37.11" y="65.81" width="96.71" height="49.66" color-interpolation-filters="sRGB" filterUnits="userSpaceOnUse">
      <feFlood flood-color="#fff" result="bg"/>
      <feBlend in="SourceGraphic" in2="bg"/>
    </filter>
    <filter id="luminosity-noclip-8" x="37.11" y="-8226.91" width="96.71" height="32766" color-interpolation-filters="sRGB" filterUnits="userSpaceOnUse">
      <feFlood flood-color="#fff" result="bg"/>
      <feBlend in="SourceGraphic" in2="bg"/>
    </filter>
    <mask id="mask-7" x="37.11" y="-8226.91" width="96.71" height="32766" maskUnits="userSpaceOnUse"/>
    <linearGradient id="linear-gradient-7" x1="87.52" y1="63.32" x2="84.41" y2="129.11" xlink:href="#linear-gradient"/>
    <mask id="mask-6" x="37.11" y="65.81" width="96.71" height="49.66" maskUnits="userSpaceOnUse">
      <g class="cls-1">
        <g class="cls-32">
          <path class="cls-18" d="M124.67,65.81l9.16,25.47v13.24c-4.03-6.47-12.91-19.96-15.21-17.29-1.73,2.03,7.33,16.03,15.21,27.39v.84c-6.29-8.11-13.31-16.82-14.97-17.53-3.15-1.35-26.75,12.6-30.31,11.67-2.25-4.52-45.98-11.08-51.43-11.89,4.9.64,40.56,5.3,55.49,3.58,33.51-7.66,0-12.25,0-12.25,0,0,29.8-2.99,25.72-9.67-3.95-6.5-50.6,11.33-53.08,12.28l59.42-25.85Z"/>
        </g>
      </g>
    </mask>
    <linearGradient id="linear-gradient-8" x1="87.52" y1="63.32" x2="84.41" y2="129.11" gradientUnits="userSpaceOnUse">
      <stop offset=".23" stop-color="#836347"/>
      <stop offset=".82" stop-color="#836347"/>
    </linearGradient>
    <filter id="luminosity-noclip-9" x="83.36" y="119.96" width="10.38" height="75.08" color-interpolation-filters="sRGB" filterUnits="userSpaceOnUse">
      <feFlood flood-color="#fff" result="bg"/>
      <feBlend in="SourceGraphic" in2="bg"/>
    </filter>
    <filter id="luminosity-noclip-10" x="83.36" y="-8226.91" width="10.38" height="32766" color-interpolation-filters="sRGB" filterUnits="userSpaceOnUse">
      <feFlood flood-color="#fff" result="bg"/>
      <feBlend in="SourceGraphic" in2="bg"/>
    </filter>
    <mask id="mask-9" x="83.36" y="-8226.91" width="10.38" height="32766" maskUnits="userSpaceOnUse"/>
    <linearGradient id="linear-gradient-9" x1="90.25" y1="119.03" x2="85.5" y2="219.36" xlink:href="#linear-gradient"/>
    <mask id="mask-8" x="83.36" y="119.96" width="10.38" height="75.08" maskUnits="userSpaceOnUse">
      <g class="cls-25">
        <g class="cls-23">
          <polygon class="cls-7" points="93.74 188.58 93.74 132.89 86.1 119.96 83.36 121.13 85.84 137.23 86.41 195.03 93.74 188.58"/>
        </g>
      </g>
    </mask>
    <linearGradient id="linear-gradient-10" x1="90.25" y1="119.03" x2="85.5" y2="219.36" xlink:href="#linear-gradient-2"/>
  </defs>
  <g class="cls-21">
    <g id="Layer_2" data-name="Layer 2">
      <g id="Layer_1-2" data-name="Layer 1">
        <g>
          <polygon class="cls-6" points="133.83 64.44 133.83 129.09 123.48 163.8 123.48 187.49 93.74 188.58 86.41 195.03 53.23 195.03 44.33 194.16 5.17 190.3 7.31 168.96 0 99.36 59.09 63.68 78.06 52.22 78.07 52.21 82.1 49.78 86.36 50.19 86.38 50.19 103.45 51.88 128 54.3 133.83 64.44"/>
          <polygon class="cls-6" points="114.21 17.26 111.26 26.75 107.1 40.16 105.22 46.2 104.13 49.7 103.45 51.88 99.55 64.44 68.75 79.32 68.73 79.32 61 67.89 59.25 65.3 59.09 63.68 54.94 21.57 57.45 15.57 59.9 9.71 65.15 8.49 101.49 0 114.21 17.26"/>
          <polygon class="cls-9" points="69.95 9.48 68.75 79.32 68.73 79.32 61 67.89 59.25 65.3 54.94 21.57 57.45 15.57 59.9 9.71 65.15 8.49 69.95 9.48"/>
          <polygon class="cls-3" points="61 67.89 59.25 65.3 54.94 21.57 57.45 15.57 59.9 9.71 65.15 8.49 61 67.89"/>
          <polygon class="cls-9" points="77.99 123.4 44.33 194.16 34.46 193.18 29.21 192.67 15.42 191.3 12.42 191.01 5.17 190.3 7.31 168.96 0 99.36 77.99 123.4"/>
          <polygon class="cls-9" points="116.99 106.84 77.99 123.4 81.73 138.01 133.82 129.09 116.99 106.84"/>
          <polygon class="cls-19" points="44.34 194.16 81.73 138.01 77.99 123.4 44.34 194.16"/>
          <polygon class="cls-9" points="128.01 54.31 116.99 106.84 133.82 129.09 133.82 64.44 128.01 54.31"/>
          <polygon class="cls-4" points="114.22 17.25 99.36 4.42 69.96 9.49 65.53 10.25 61.07 11.01 57.46 15.57 59.9 9.71 101.49 0 114.22 17.25"/>
          <polygon class="cls-3" points="91.93 68.12 99.36 4.43 96.13 4.98 85.84 72.77 91.93 68.12"/>
          <polygon class="cls-3" points="44.34 194.16 85.84 137.23 83.36 121.13 77.99 123.4 44.34 194.16"/>
          <polygon class="cls-4" points="0 99.36 83.36 121.13 77.99 123.4 75.34 128.03 0 99.36"/>
          <polygon class="cls-19" points="59.09 63.68 68.75 79.32 85.84 72.77 99.55 64.44 103.46 51.89 122.99 54.31 103.17 80.6 6.95 95.16 59.09 63.68"/>
          <polygon class="cls-13" points="59.09 63.68 68.75 79.32 85.84 72.77 99.55 64.44 103.46 51.89 122.99 54.31 103.17 80.6 6.95 95.16 59.09 63.68"/>
          <polygon class="cls-9" points="86.41 195.03 85.84 137.23 83.36 121.13 92.6 117.2 104.83 134.05 93.74 188.58 86.41 195.03"/>
          <polygon class="cls-4" points="116.99 106.84 133.82 122.71 133.82 129.09 127.33 130.21 116.99 106.84"/>
          <polygon class="cls-10" points="59.09 63.68 64.97 73.19 23.33 85.27 59.09 63.68"/>
          <polygon class="cls-9" points="123.48 163.8 123.48 187.49 93.74 188.58 96.14 176.84 111.57 176.84 123.48 163.8"/>
          <polygon class="cls-13" points="15.23 191.29 10.52 166.93 8.16 103.98 0 99.36 7.31 168.96 5.17 190.3 15.23 191.29"/>
          <g class="cls-31">
            <path class="cls-8" d="M44.1,136.32c-8.52,4.77-9.64,38.91-9.64,56.86l-5.25-.51c4.33-16.92,9.84-45.07-.43-47.35-10.04-2.23-12.7,27.01-13.36,45.98l-3-.3c1.8-17.98,4.38-46.99,2.81-51.02,14,4.23,8.45-25.61,7.48-30.38.21.87.68,2.96,1.82,7.92,4.36,17.8,7.35,20.98,19.58,18.79Z"/>
          </g>
          <g class="cls-20">
            <path class="cls-14" d="M46.77,135.8c-.94.2-1.83.38-2.67.53.83-.46,1.72-.66,2.67-.53Z"/>
          </g>
          <g class="cls-27">
            <path class="cls-15" d="M111.26,26.75l-4.16,13.41c-8.47-.08-18.52.51-18.56,3.75.07,2.56,7.99,2.79,16.67,2.29l-1.09,3.5c-1.5.07-3.09.1-4.77.08-3.37-2.18-8.06-1.54-12.98.41-5.02,2-10.25,5.37-14.5,8.47,2.18-1.98,4.41-4.21,6.19-6.46,1.83-2.31,3.22-4.62,3.65-6.72,1.19-5.96-8.5-12.05-14.13-15.04,9.36,4.42,32.82,14.41,36.44,5.12,4.56-11.66-17.75-7.76-26.04-9.71,12.3,0,20.08-10.42,20.08-10.42l13.19,11.31Z"/>
          </g>
          <g class="cls-28">
            <path class="cls-11" d="M124.67,65.81l9.16,25.47v13.24c-4.03-6.47-12.91-19.96-15.21-17.29-1.73,2.03,7.33,16.03,15.21,27.39v.84c-6.29-8.11-13.31-16.82-14.97-17.53-3.15-1.35-26.75,12.6-30.31,11.67-2.25-4.52-45.98-11.08-51.43-11.89,4.9.64,40.56,5.3,55.49,3.58,33.51-7.66,0-12.25,0-12.25,0,0,29.8-2.99,25.72-9.67-3.95-6.5-50.6,11.33-53.08,12.28l59.42-25.85Z"/>
          </g>
          <g class="cls-26">
            <polygon class="cls-17" points="93.74 188.58 93.74 132.89 86.1 119.96 83.36 121.13 85.84 137.23 86.41 195.03 93.74 188.58"/>
          </g>
        </g>
      </g>
    </g>
  </g>
</svg>