<?xml version="1.0" encoding="UTF-8"?>
<svg xmlns="http://www.w3.org/2000/svg" xmlns:xlink="http://www.w3.org/1999/xlink" viewBox="0 0 287.7 122.97">
  <defs>
    <style>
      .cls-1 {
        fill: url(#_ÂÁ_Ï_ÌÌ_È_ËÂÌÚ_9-2);
      }

      .cls-1, .cls-2, .cls-3, .cls-4, .cls-5, .cls-6, .cls-7, .cls-8, .cls-9, .cls-10, .cls-11, .cls-12, .cls-13, .cls-14, .cls-15, .cls-16, .cls-17, .cls-18, .cls-19, .cls-20, .cls-21, .cls-22, .cls-23, .cls-24, .cls-25, .cls-26, .cls-27, .cls-28, .cls-29, .cls-30, .cls-31, .cls-32, .cls-33, .cls-34, .cls-35, .cls-36, .cls-37, .cls-38, .cls-39, .cls-40, .cls-41, .cls-42, .cls-43, .cls-44 {
        stroke-width: 0px;
      }

      .cls-1, .cls-2, .cls-3, .cls-4, .cls-6, .cls-7, .cls-8, .cls-9, .cls-10, .cls-11, .cls-12, .cls-13, .cls-14, .cls-15, .cls-16, .cls-17, .cls-18, .cls-19, .cls-20, .cls-21, .cls-22, .cls-23, .cls-24, .cls-25, .cls-26, .cls-27, .cls-28, .cls-29, .cls-30, .cls-31, .cls-32, .cls-33, .cls-34, .cls-35, .cls-36, .cls-37, .cls-38, .cls-39, .cls-40, .cls-41, .cls-42, .cls-43, .cls-44 {
        fill-rule: evenodd;
      }

      .cls-2 {
        fill: url(#_ÂÁ_Ï_ÌÌ_È_ËÂÌÚ_9-20);
      }

      .cls-3 {
        fill: url(#_ÂÁ_Ï_ÌÌ_È_ËÂÌÚ_3);
      }

      .cls-3, .cls-4, .cls-10, .cls-11, .cls-13, .cls-19, .cls-27, .cls-29, .cls-31, .cls-34, .cls-39, .cls-40, .cls-41, .cls-43, .cls-44 {
        mix-blend-mode: multiply;
      }

      .cls-3, .cls-11, .cls-13, .cls-19, .cls-27, .cls-29, .cls-31, .cls-34, .cls-38, .cls-39, .cls-40, .cls-41, .cls-44 {
        opacity: .5;
      }

      .cls-4 {
        fill: url(#_ÂÁ_Ï_ÌÌ_È_ËÂÌÚ_3-5);
        opacity: .3;
      }

      .cls-5, .cls-16 {
        opacity: .4;
      }

      .cls-5, .cls-16, .cls-38 {
        fill: #b25460;
        mix-blend-mode: color-dodge;
      }

      .cls-6 {
        fill: url(#_ÂÁ_Ï_ÌÌ_È_ËÂÌÚ_9-15);
      }

      .cls-45 {
        isolation: isolate;
      }

      .cls-7 {
        fill: url(#_ÂÁ_Ï_ÌÌ_È_ËÂÌÚ_9-12);
      }

      .cls-8 {
        fill: url(#_ÂÁ_Ï_ÌÌ_È_ËÂÌÚ_9-13);
      }

      .cls-9 {
        fill: url(#_ÂÁ_Ï_ÌÌ_È_ËÂÌÚ_10);
      }

      .cls-10 {
        fill: url(#_ÂÁ_Ï_ÌÌ_È_ËÂÌÚ_3-3);
      }

      .cls-10, .cls-43 {
        opacity: .6;
      }

      .cls-11 {
        fill: url(#_ÂÁ_Ï_ÌÌ_È_ËÂÌÚ_3-11);
      }

      .cls-12 {
        fill: url(#_ÂÁ_Ï_ÌÌ_È_ËÂÌÚ_10-2);
      }

      .cls-13 {
        fill: url(#_ÂÁ_Ï_ÌÌ_È_ËÂÌÚ_3-14);
      }

      .cls-14 {
        fill: url(#_ÂÁ_Ï_ÌÌ_È_ËÂÌÚ_9-3);
      }

      .cls-15 {
        fill: url(#_ÂÁ_Ï_ÌÌ_È_ËÂÌÚ_9-19);
      }

      .cls-17 {
        fill: url(#_ÂÁ_Ï_ÌÌ_È_ËÂÌÚ_9-5);
      }

      .cls-18 {
        fill: url(#_ÂÁ_Ï_ÌÌ_È_ËÂÌÚ_9-9);
      }

      .cls-19 {
        fill: url(#_ÂÁ_Ï_ÌÌ_È_ËÂÌÚ_3-10);
      }

      .cls-20 {
        fill: url(#_ÂÁ_Ï_ÌÌ_È_ËÂÌÚ_9-10);
      }

      .cls-21 {
        fill: url(#_ÂÁ_Ï_ÌÌ_È_ËÂÌÚ_9-11);
      }

      .cls-22 {
        fill: url(#_ÂÁ_Ï_ÌÌ_È_ËÂÌÚ_9-21);
      }

      .cls-23 {
        fill: url(#_ÂÁ_Ï_ÌÌ_È_ËÂÌÚ_9);
      }

      .cls-24 {
        fill: url(#_ÂÁ_Ï_ÌÌ_È_ËÂÌÚ_9-18);
      }

      .cls-25 {
        fill: url(#_ÂÁ_Ï_ÌÌ_È_ËÂÌÚ_9-8);
      }

      .cls-26 {
        fill: url(#_ÂÁ_Ï_ÌÌ_È_ËÂÌÚ_9-22);
      }

      .cls-27 {
        fill: url(#_ÂÁ_Ï_ÌÌ_È_ËÂÌÚ_3-9);
      }

      .cls-28 {
        fill: url(#_ÂÁ_Ï_ÌÌ_È_ËÂÌÚ_10-3);
      }

      .cls-29 {
        fill: url(#_ÂÁ_Ï_ÌÌ_È_ËÂÌÚ_3-12);
      }

      .cls-30 {
        fill: url(#_ÂÁ_Ï_ÌÌ_È_ËÂÌÚ_9-16);
      }

      .cls-31 {
        fill: url(#_ÂÁ_Ï_ÌÌ_È_ËÂÌÚ_3-7);
      }

      .cls-32 {
        fill: url(#_ÂÁ_Ï_ÌÌ_È_ËÂÌÚ_9-17);
      }

      .cls-33 {
        fill: url(#_ÂÁ_Ï_ÌÌ_È_ËÂÌÚ_9-4);
      }

      .cls-34 {
        fill: url(#_ÂÁ_Ï_ÌÌ_È_ËÂÌÚ_3-15);
      }

      .cls-35 {
        fill: #7a1137;
      }

      .cls-36 {
        fill: url(#_ÂÁ_Ï_ÌÌ_È_ËÂÌÚ_9-6);
      }

      .cls-37 {
        fill: url(#_ÂÁ_Ï_ÌÌ_È_ËÂÌÚ_9-7);
      }

      .cls-39 {
        fill: url(#_ÂÁ_Ï_ÌÌ_È_ËÂÌÚ_3-4);
      }

      .cls-40 {
        fill: url(#_ÂÁ_Ï_ÌÌ_È_ËÂÌÚ_3-6);
      }

      .cls-41 {
        fill: url(#_ÂÁ_Ï_ÌÌ_È_ËÂÌÚ_3-13);
      }

      .cls-42 {
        fill: url(#_ÂÁ_Ï_ÌÌ_È_ËÂÌÚ_9-14);
      }

      .cls-43 {
        fill: url(#_ÂÁ_Ï_ÌÌ_È_ËÂÌÚ_3-2);
      }

      .cls-44 {
        fill: url(#_ÂÁ_Ï_ÌÌ_È_ËÂÌÚ_3-8);
      }
    </style>
    <linearGradient id="_ÂÁ_Ï_ÌÌ_È_ËÂÌÚ_10" data-name="¡ÂÁ˚ÏˇÌÌ˚È „‡‰ËÂÌÚ 10" x1="96.38" y1="-42.17" x2="113.57" y2="84.8" gradientTransform="translate(27.47 27.21) rotate(-.99)" gradientUnits="userSpaceOnUse">
      <stop offset="0" stop-color="#cf3111"/>
      <stop offset="1" stop-color="#991632"/>
    </linearGradient>
    <linearGradient id="_ÂÁ_Ï_ÌÌ_È_ËÂÌÚ_9" data-name="¡ÂÁ˚ÏˇÌÌ˚È „‡‰ËÂÌÚ 9" x1="43.58" y1="98.75" x2="34.92" y2="59.48" gradientTransform="translate(27.47 27.21) rotate(-.99)" gradientUnits="userSpaceOnUse">
      <stop offset="0" stop-color="#bc2927"/>
      <stop offset="1" stop-color="#d76f00"/>
    </linearGradient>
    <linearGradient id="_ÂÁ_Ï_ÌÌ_È_ËÂÌÚ_9-2" data-name="¡ÂÁ˚ÏˇÌÌ˚È „‡‰ËÂÌÚ 9" x1="106.64" y1="157.99" x2="11.17" y2="1.95" xlink:href="#_ÂÁ_Ï_ÌÌ_È_ËÂÌÚ_9"/>
    <linearGradient id="_ÂÁ_Ï_ÌÌ_È_ËÂÌÚ_9-3" data-name="¡ÂÁ˚ÏˇÌÌ˚È „‡‰ËÂÌÚ 9" x1="103.05" y1="64.56" x2="31.33" y2="-25.76" xlink:href="#_ÂÁ_Ï_ÌÌ_È_ËÂÌÚ_9"/>
    <linearGradient id="_ÂÁ_Ï_ÌÌ_È_ËÂÌÚ_9-4" data-name="¡ÂÁ˚ÏˇÌÌ˚È „‡‰ËÂÌÚ 9" x1="176.38" y1="115.32" x2="80.91" y2="-40.72" xlink:href="#_ÂÁ_Ï_ÌÌ_È_ËÂÌÚ_9"/>
    <linearGradient id="_ÂÁ_Ï_ÌÌ_È_ËÂÌÚ_9-5" data-name="¡ÂÁ˚ÏˇÌÌ˚È „‡‰ËÂÌÚ 9" x1="122.55" y1="80.89" x2="96.95" y2="39.05" xlink:href="#_ÂÁ_Ï_ÌÌ_È_ËÂÌÚ_9"/>
    <linearGradient id="_ÂÁ_Ï_ÌÌ_È_ËÂÌÚ_9-6" data-name="¡ÂÁ˚ÏˇÌÌ˚È „‡‰ËÂÌÚ 9" x1="140.86" y1="94.05" x2="140.8" y2="93.96" xlink:href="#_ÂÁ_Ï_ÌÌ_È_ËÂÌÚ_9"/>
    <linearGradient id="_ÂÁ_Ï_ÌÌ_È_ËÂÌÚ_9-7" data-name="¡ÂÁ˚ÏˇÌÌ˚È „‡‰ËÂÌÚ 9" x1="206.91" y1="105.11" x2="113.94" y2="-46.84" xlink:href="#_ÂÁ_Ï_ÌÌ_È_ËÂÌÚ_9"/>
    <linearGradient id="_ÂÁ_Ï_ÌÌ_È_ËÂÌÚ_9-8" data-name="¡ÂÁ˚ÏˇÌÌ˚È „‡‰ËÂÌÚ 9" x1="68.66" y1="66.93" x2="16.21" y2=".87" xlink:href="#_ÂÁ_Ï_ÌÌ_È_ËÂÌÚ_9"/>
    <linearGradient id="_ÂÁ_Ï_ÌÌ_È_ËÂÌÚ_9-9" data-name="¡ÂÁ˚ÏˇÌÌ˚È „‡‰ËÂÌÚ 9" x1="77.36" y1="60.03" x2="24.9" y2="-6.03" xlink:href="#_ÂÁ_Ï_ÌÌ_È_ËÂÌÚ_9"/>
    <linearGradient id="_ÂÁ_Ï_ÌÌ_È_ËÂÌÚ_9-10" data-name="¡ÂÁ˚ÏˇÌÌ˚È „‡‰ËÂÌÚ 9" x1="220.36" y1="88.42" x2="124.89" y2="-67.63" xlink:href="#_ÂÁ_Ï_ÌÌ_È_ËÂÌÚ_9"/>
    <linearGradient id="_ÂÁ_Ï_ÌÌ_È_ËÂÌÚ_3" data-name="¡ÂÁ˚ÏˇÌÌ˚È „‡‰ËÂÌÚ 3" x1="244.65" y1="78.73" x2="246.4" y2="91.62" gradientTransform="translate(27.47 27.21) rotate(-.99)" gradientUnits="userSpaceOnUse">
      <stop offset="0" stop-color="#eb72ae"/>
      <stop offset="1" stop-color="#c33e60"/>
    </linearGradient>
    <linearGradient id="_ÂÁ_Ï_ÌÌ_È_ËÂÌÚ_3-2" data-name="¡ÂÁ˚ÏˇÌÌ˚È „‡‰ËÂÌÚ 3" x1="94.81" y1="115.27" x2="46.39" y2="36.12" xlink:href="#_ÂÁ_Ï_ÌÌ_È_ËÂÌÚ_3"/>
    <linearGradient id="_ÂÁ_Ï_ÌÌ_È_ËÂÌÚ_3-3" data-name="¡ÂÁ˚ÏˇÌÌ˚È „‡‰ËÂÌÚ 3" x1="18.59" y1="111.61" x2="-6" y2="71.42" xlink:href="#_ÂÁ_Ï_ÌÌ_È_ËÂÌÚ_3"/>
    <linearGradient id="_ÂÁ_Ï_ÌÌ_È_ËÂÌÚ_3-4" data-name="¡ÂÁ˚ÏˇÌÌ˚È „‡‰ËÂÌÚ 3" x1="101.15" y1="95.58" x2="92.24" y2="81.01" xlink:href="#_ÂÁ_Ï_ÌÌ_È_ËÂÌÚ_3"/>
    <linearGradient id="_ÂÁ_Ï_ÌÌ_È_ËÂÌÚ_10-2" data-name="¡ÂÁ˚ÏˇÌÌ˚È „‡‰ËÂÌÚ 10" x1="12.77" y1="13.17" x2="43.06" y2="33.58" xlink:href="#_ÂÁ_Ï_ÌÌ_È_ËÂÌÚ_10"/>
    <linearGradient id="_ÂÁ_Ï_ÌÌ_È_ËÂÌÚ_3-5" data-name="¡ÂÁ˚ÏˇÌÌ˚È „‡‰ËÂÌÚ 3" x1="-.99" y1="-31.75" x2="4.14" y2="55.6" xlink:href="#_ÂÁ_Ï_ÌÌ_È_ËÂÌÚ_3"/>
    <linearGradient id="_ÂÁ_Ï_ÌÌ_È_ËÂÌÚ_9-11" data-name="¡ÂÁ˚ÏˇÌÌ˚È „‡‰ËÂÌÚ 9" x1="94.44" y1="119.49" x2="62.83" y2="59.79" xlink:href="#_ÂÁ_Ï_ÌÌ_È_ËÂÌÚ_9"/>
    <linearGradient id="_ÂÁ_Ï_ÌÌ_È_ËÂÌÚ_9-12" data-name="¡ÂÁ˚ÏˇÌÌ˚È „‡‰ËÂÌÚ 9" x1="165.99" y1="93.76" x2="124.19" y2="52.39" xlink:href="#_ÂÁ_Ï_ÌÌ_È_ËÂÌÚ_9"/>
    <linearGradient id="_ÂÁ_Ï_ÌÌ_È_ËÂÌÚ_9-13" data-name="¡ÂÁ˚ÏˇÌÌ˚È „‡‰ËÂÌÚ 9" x1="180.51" y1="88.92" x2="151.54" y2="45.46" xlink:href="#_ÂÁ_Ï_ÌÌ_È_ËÂÌÚ_9"/>
    <linearGradient id="_ÂÁ_Ï_ÌÌ_È_ËÂÌÚ_3-6" data-name="¡ÂÁ˚ÏˇÌÌ˚È „‡‰ËÂÌÚ 3" x1="155.68" y1="38.48" x2="125.92" y2="1.07" xlink:href="#_ÂÁ_Ï_ÌÌ_È_ËÂÌÚ_3"/>
    <linearGradient id="_ÂÁ_Ï_ÌÌ_È_ËÂÌÚ_9-14" data-name="¡ÂÁ˚ÏˇÌÌ˚È „‡‰ËÂÌÚ 9" x1="157.32" y1="44.69" x2="119.79" y2="-2.5" xlink:href="#_ÂÁ_Ï_ÌÌ_È_ËÂÌÚ_9"/>
    <linearGradient id="_ÂÁ_Ï_ÌÌ_È_ËÂÌÚ_9-15" data-name="¡ÂÁ˚ÏˇÌÌ˚È „‡‰ËÂÌÚ 9" x1="261.34" y1="183.19" x2="147.77" y2="-1.09" xlink:href="#_ÂÁ_Ï_ÌÌ_È_ËÂÌÚ_9"/>
    <linearGradient id="_ÂÁ_Ï_ÌÌ_È_ËÂÌÚ_9-16" data-name="¡ÂÁ˚ÏˇÌÌ˚È „‡‰ËÂÌÚ 9" x1="86.52" y1="80.47" x2="81.4" y2="45.06" xlink:href="#_ÂÁ_Ï_ÌÌ_È_ËÂÌÚ_9"/>
    <linearGradient id="_ÂÁ_Ï_ÌÌ_È_ËÂÌÚ_3-7" data-name="¡ÂÁ˚ÏˇÌÌ˚È „‡‰ËÂÌÚ 3" x1="74.19" y1="-21.99" x2="81.23" y2="29.95" xlink:href="#_ÂÁ_Ï_ÌÌ_È_ËÂÌÚ_3"/>
    <linearGradient id="_ÂÁ_Ï_ÌÌ_È_ËÂÌÚ_9-17" data-name="¡ÂÁ˚ÏˇÌÌ˚È „‡‰ËÂÌÚ 9" x1="173" y1="76.66" x2="128.23" y2="18.94" xlink:href="#_ÂÁ_Ï_ÌÌ_È_ËÂÌÚ_9"/>
    <linearGradient id="_ÂÁ_Ï_ÌÌ_È_ËÂÌÚ_3-8" data-name="¡ÂÁ˚ÏˇÌÌ˚È „‡‰ËÂÌÚ 3" x1="125.38" y1="74.81" x2="104.37" y2="40.48" xlink:href="#_ÂÁ_Ï_ÌÌ_È_ËÂÌÚ_3"/>
    <linearGradient id="_ÂÁ_Ï_ÌÌ_È_ËÂÌÚ_9-18" data-name="¡ÂÁ˚ÏˇÌÌ˚È „‡‰ËÂÌÚ 9" x1="74.5" y1="99.28" x2="62.21" y2="57.43" xlink:href="#_ÂÁ_Ï_ÌÌ_È_ËÂÌÚ_9"/>
    <linearGradient id="_ÂÁ_Ï_ÌÌ_È_ËÂÌÚ_3-9" data-name="¡ÂÁ˚ÏˇÌÌ˚È „‡‰ËÂÌÚ 3" x1="158.1" y1="-24.73" x2="172.09" y2="78.58" xlink:href="#_ÂÁ_Ï_ÌÌ_È_ËÂÌÚ_3"/>
    <linearGradient id="_ÂÁ_Ï_ÌÌ_È_ËÂÌÚ_9-19" data-name="¡ÂÁ˚ÏˇÌÌ˚È „‡‰ËÂÌÚ 9" x1="162.09" y1="8.24" x2="150.83" y2="-18.97" xlink:href="#_ÂÁ_Ï_ÌÌ_È_ËÂÌÚ_9"/>
    <linearGradient id="_ÂÁ_Ï_ÌÌ_È_ËÂÌÚ_9-20" data-name="¡ÂÁ˚ÏˇÌÌ˚È „‡‰ËÂÌÚ 9" x1="226.99" y1="118.21" x2="217.55" y2="80.02" xlink:href="#_ÂÁ_Ï_ÌÌ_È_ËÂÌÚ_9"/>
    <linearGradient id="_ÂÁ_Ï_ÌÌ_È_ËÂÌÚ_3-10" data-name="¡ÂÁ˚ÏˇÌÌ˚È „‡‰ËÂÌÚ 3" x1="175.6" y1="-25.71" x2="181.02" y2="14.31" xlink:href="#_ÂÁ_Ï_ÌÌ_È_ËÂÌÚ_3"/>
    <linearGradient id="_ÂÁ_Ï_ÌÌ_È_ËÂÌÚ_3-11" data-name="¡ÂÁ˚ÏˇÌÌ˚È „‡‰ËÂÌÚ 3" x1="184.53" y1="22.68" x2="188.43" y2="51.48" xlink:href="#_ÂÁ_Ï_ÌÌ_È_ËÂÌÚ_3"/>
    <linearGradient id="_ÂÁ_Ï_ÌÌ_È_ËÂÌÚ_3-12" data-name="¡ÂÁ˚ÏˇÌÌ˚È „‡‰ËÂÌÚ 3" x1="184.15" y1="59.41" x2="185.19" y2="67.1" xlink:href="#_ÂÁ_Ï_ÌÌ_È_ËÂÌÚ_3"/>
    <linearGradient id="_ÂÁ_Ï_ÌÌ_È_ËÂÌÚ_3-13" data-name="¡ÂÁ˚ÏˇÌÌ˚È „‡‰ËÂÌÚ 3" x1="25.6" y1="2.76" x2="43.16" y2="16.81" xlink:href="#_ÂÁ_Ï_ÌÌ_È_ËÂÌÚ_3"/>
    <linearGradient id="_ÂÁ_Ï_ÌÌ_È_ËÂÌÚ_3-14" data-name="¡ÂÁ˚ÏˇÌÌ˚È „‡‰ËÂÌÚ 3" x1="49.77" y1="-27.45" x2="67.32" y2="-13.4" xlink:href="#_ÂÁ_Ï_ÌÌ_È_ËÂÌÚ_3"/>
    <linearGradient id="_ÂÁ_Ï_ÌÌ_È_ËÂÌÚ_3-15" data-name="¡ÂÁ˚ÏˇÌÌ˚È „‡‰ËÂÌÚ 3" x1="34.63" y1="-8.52" x2="52.18" y2="5.52" xlink:href="#_ÂÁ_Ï_ÌÌ_È_ËÂÌÚ_3"/>
    <linearGradient id="_ÂÁ_Ï_ÌÌ_È_ËÂÌÚ_10-3" data-name="¡ÂÁ˚ÏˇÌÌ˚È „‡‰ËÂÌÚ 10" x1="27.83" y1="-15.33" x2="47.03" y2="9.14" xlink:href="#_ÂÁ_Ï_ÌÌ_È_ËÂÌÚ_10"/>
    <linearGradient id="_ÂÁ_Ï_ÌÌ_È_ËÂÌÚ_9-21" data-name="¡ÂÁ˚ÏˇÌÌ˚È „‡‰ËÂÌÚ 9" x1="37.06" y1="69.78" x2="27.7" y2="58.08" xlink:href="#_ÂÁ_Ï_ÌÌ_È_ËÂÌÚ_9"/>
    <linearGradient id="_ÂÁ_Ï_ÌÌ_È_ËÂÌÚ_9-22" data-name="¡ÂÁ˚ÏˇÌÌ˚È „‡‰ËÂÌÚ 9" x1="115.33" y1="74.52" x2="110.51" y2="19.65" xlink:href="#_ÂÁ_Ï_ÌÌ_È_ËÂÌÚ_9"/>
  </defs>
  <g class="cls-45">
    <g id="Layer_2" data-name="Layer 2">
      <g id="Layer_1-2" data-name="Layer 1">
        <g>
          <g>
            <path class="cls-9" d="M281.03,101.29v-.03s0,0,0,0l-.07-.34-.07-.36-2.63-.49-1.29-.24-.21-.04-22.17-4.09-9.24-1.71h0s-30.11-5.56-30.11-5.56l-.33-.06.18-2.48h0s.16-2.25.16-2.25l-1.85-7.71,5.14-16.03.52-1.62,1.27-3.96-3.71-15.41.25-1.77,5.12-35.72h-.07s-18.02-.42-18.02-.42h-.43s0,0,0,0l-1.86-.05h-.17s-21.53-.5-21.53-.5l-8.63-.2-2.61-.06-14.62,2.25-3.86.6-2.59.4h0s-26.08,4.02-26.08,4.02l.04,2.15-33.09,4.52-2.93.4-3.38-1.92h0s-.03-.02-.03-.02l-.09-.05-7.94-4.52-.29-.17-6.76,6.99L0,16l1.77,2.56.15,1.09,1.32,9.61,5.19,3.56h0s3.48,2.4,3.48,2.4l11.84,8.13,1.48,1.02,12.72,8.74h0s0,0,0,0l.07.05,21.53,2.21,7.9,18.81.05.12.12.28-24.07.42-1.84,2.46-8.24,11.04.02.06.75,2.14.13.36-25.42,16.34-1.19.76-5.7,3.66L.11,121.75l8.05.08,16.73.16h0s47.25.45,47.25.45h.62s1.06.02,1.06.02h0s.35,0,.35,0l53.05.5h1.42s7.97-3.56,7.97-3.56h0s.98-.45.98-.45l21.32-.33h0s10.91-.17,10.91-.17l1.69-.03,28.66-.44,16.84-.26,9.5-.15,41.04-.64,20.06-.55-6.61-15.08ZM155.06,43.99v.02s-5.31,9.19-5.31,9.19l-1.03,1.78-1.76,3.06-1.34,2.31-5,8.68-4.05-.61-.09.11-.3-.05.08-.11-2.37-.36-30.89-4.66-.73-.11-5.71-6.78-3.1-5.1,3.82-11.14.29-.17,3.24-8.94.34-.95.1-.28,32.37-2.66,10.3-.85,3.31-.27.2-.02.26-.02,2.07-.17.19.56,3.46,10.05,2.23,6.48-.58,1.01Z"/>
            <polygon class="cls-23" points="126.82 99.59 131.27 100.14 127.23 122.95 74.18 122.45 73.84 122.44 73.83 122.44 72.77 122.43 72.15 122.43 24.9 121.99 24.89 121.99 8.17 121.83 .11 121.75 2.08 111.82 7.79 108.17 8.98 107.4 34.4 91.06 34.27 90.71 33.52 88.57 33.5 88.5 41.73 77.46 43.58 75 55.86 76.3 55.89 76.3 97.58 80.68 99.64 80.9 99.65 80.9 134.88 84.6 126.42 93.35 126.82 99.59"/>
            <polygon class="cls-1" points="65.03 47.98 68.92 74.13 68.84 74.14 67.52 74.3 67.48 74.19 59.57 55.38 38.04 53.18 37.98 53.13 37.97 53.12 37.96 53.12 25.24 44.38 23.75 43.36 11.92 35.24 8.43 32.84 8.43 32.84 3.24 29.27 1.92 19.66 1.77 18.57 0 16 39.08 14.02 63.63 12.77 63.99 12.75 64.45 14.89 65.39 19.3 66.64 25.17 70.94 45.41 70.95 45.45 71.01 45.73 65.03 47.98"/>
            <polygon class="cls-14" points="74.1 7.85 72.24 42.27 75.25 42.22 83.45 6.95 74.1 7.85"/>
            <path class="cls-33" d="M196.18,75.37l-8.73,1.97h0s-.03,0-.03,0l-3.66.83-30.83,6.97-16.05,2.75-.27.04c-.17.03-.3.05-.36.06-.03,0-.05,0-.05,0l-.64-2.25h0s-.37-1.3-.37-1.3l-.81-2.88-2.3-8.11-.44-.85,3.4-2.21h0s.02-.03.02-.03l.07-.09,1.33-1.76.09-.11,6.18-8.17,1.95-2.57,1.75-2.31,1.25-1.66,7.35-9.7v-.02s.79-1.02.79-1.02h0s.65-.86.65-.86l-.04-.08h0s-2.2-4.02-2.2-4.02l-.83-1.52-5.67-10.33-.06-.11-.08-.13-18.91-2.47-4.36-.57-26.28,4.18-16.16,2.57,6.54-15.51.04-.1,3.14-.67,29.91-3.75-.04-2.15,26.08-4.02h0s2.59-.4,2.59-.4l3.86-.6,14.62-2.25,2.61.06,14.53,22.75,7.15,11.2.21.34.92,1.43,1.02,1.59-.17,1.4-.1.83h0s0,.02,0,.02l-.05.42-.34,2.91-.55,4.66-.04.39-.63,5.32,2.82,20.84.14,1.03Z"/>
            <polygon class="cls-17" points="169.85 118.81 158.09 119.01 136.64 119.39 130.32 119.5 132.99 113.22 140.94 94.53 143.95 87.45 169.31 87.44 169.85 118.81"/>
            <polygon class="cls-36" points="169.85 118.81 170.02 118.8 169.85 118.81 169.85 118.81"/>
            <polygon class="cls-37" points="286.05 113.09 279.37 113.05 279.33 112.91 277.06 104.07 263.33 105.16 210.39 101.35 200.91 75.29 179.09 80.72 178.65 80.83 174.02 86.5 171.54 118.41 171.52 118.69 170.02 118.8 200.18 118.27 261.15 117.2 287.7 116.5 286.05 113.09"/>
            <polygon class="cls-25" points="69.77 73.26 80.96 74.36 76.75 54.23 67.25 51.81 69.77 73.26"/>
            <polygon class="cls-18" points="69.34 48.34 70.26 51.76 76.29 52.94 79.15 44.3 69.34 48.34"/>
            <polygon class="cls-20" points="195.02 39.11 210.59 38.16 193.35 35.87 195.02 39.11"/>
            <polygon class="cls-3" points="281.03 101.29 281.02 101.26 281.02 101.25 281.03 101.25 281.02 100.64 280.87 100.56 263.33 105.16 266.95 115.85 267.17 115.8 279.33 112.91 280.01 112.75 280.65 112.6 285.75 112.46 281.03 101.29"/>
            <path class="cls-43" d="M159.95,118.12l-1.02.48-.84.41-21.47.37-7.97,3.58h-1.42s-53.06-.51-53.06-.51l.02-.1.67-4.89.35-2.59s1.44-.01,3.78-.03h.91s.33-.01.33-.01h1.37c2.04-.02,4.43-.04,7-.05l2.77-.03c.32,0,.64,0,.94,0h2.39s.95-.03.95-.03h1.42c.49,0,.97,0,1.44-.02h1.89c.64-.01,1.25-.01,1.86-.02l3.1-.02c.43,0,.86,0,1.26-.01l3.45-.02h.35s1.3-.02,1.3-.02l4.32-.02,6.44-6.09-29.19-5.88-59.02-11.9-.75-2.14,92.9,4.78,8.45-8.75.34.57.37.6,1.3,2.13h0s.01.02.01.02l.14.24,2.7,4.41,1.2,1.97v.02s5.88,9.61,5.88,9.61l11.59-1.06,1.54,15.02Z"/>
            <polygon class="cls-10" points="72.7 118.77 72.77 122.72 72.08 122.89 72.15 122.43 24.9 121.98 24.89 121.98 8.16 121.82 .11 121.75 2.09 111.83 34.48 115.02 53.43 116.88 72.7 118.77"/>
            <polygon class="cls-39" points="117.05 122.74 115.63 115.02 131.27 100.14 127.24 122.95 117.05 122.74"/>
            <polygon class="cls-12" points="37.8 53.17 71.18 45.35 65.03 47.98 59.57 55.38 37.8 53.17"/>
            <path class="cls-4" d="M55.13,47.29c.41.4-15.39,5.28-17.17,5.83h0s-.08.02-.11.03c-.03,0-.05.01-.05.01l-12.66-8.76-1.47-1.01-11.79-8.15-3.48-2.41-5.16-3.57,9.01-1.02s2.46,1.08,6.21,2.73c.78.34,1.61.71,2.49,1.09,3.97,1.75,8.86,3.9,13.68,6.03,1.33.58,2.64,1.17,3.94,1.74,8.77,3.88,16.39,7.27,16.57,7.45Z"/>
            <path class="cls-21" d="M100.62,97.96c-.34-.3-25.41,16.9-25.41,16.9,0,0,40.94-.29,40.89-.28-.06,0,15.17-14.44,15.17-14.44l-30.65-2.18Z"/>
            <polygon class="cls-35" points="74.91 117.43 74.56 122.26 74.19 122.36 73.83 122.45 73.83 122.45 72.77 122.72 72.08 122.89 72.15 122.43 72.7 118.77 74.86 117.46 74.91 117.43"/>
            <polygon class="cls-35" points="155.65 42.97 196.43 40.12 211.02 38.58 217.64 44.06 216.17 38.06 194.34 35.9 193.1 34.17 156.06 42.11 155.65 42.97"/>
            <polygon class="cls-7" points="143.95 87.45 175.65 81.32 168.89 87.88 143.95 87.45"/>
            <polygon class="cls-8" points="174.27 87.39 200.91 75.29 179.41 80.28 174.27 87.39"/>
            <polygon class="cls-40" points="163.56 28.22 149.96 26.45 147.75 26.16 147.38 26.11 147.23 26.09 146.62 26.01 128.66 23.67 128.71 23.45 128.94 22.37 128.96 22.31 130.25 16.33 147.58 3.44 147.59 3.44 150.18 3.04 154.04 2.44 156.98 2.88 163.56 28.22"/>
            <polygon class="cls-42" points="121.5 7.46 126.91 21.98 157.95 27.03 149.78 1.81 121.5 7.46"/>
            <polygon class="cls-6" points="210.39 101.35 214.07 115.47 211.92 115.08 205.55 94.98 201.69 95.48 200.16 118.56 267.63 117.06 263.33 105.16 210.39 101.35"/>
            <polygon class="cls-30" points="81.31 74.24 103.25 63.67 138.17 68.78 131.36 73.14 81.31 74.24"/>
            <polygon class="cls-31" points="147.61 25.92 147.43 26.07 147.38 26.11 147.23 26.09 143.93 26.36 133.62 27.21 101.69 30.15 101.15 30.15 100.81 31.1 101.22 31.08 93.46 51.36 102.65 62.92 102.26 63.24 103 63.35 133.89 68.01 136.26 68.37 136.18 68.48 135.47 69.54 133.93 69.54 133.56 69.53 133.54 69.54 132.94 69.53 132.66 69.53 96.35 69.36 81.31 74.24 76.73 53.37 76.29 52.94 79.15 44.3 69.47 48.81 69.44 48.82 70.26 52.19 72.86 53 72.86 53.19 72.86 53.24 72.8 73.56 72.8 73.59 69.34 73.27 65.03 47.98 71.01 45.73 71.03 45.41 71.03 45.39 71.35 38.47 72.47 38.06 76.44 36.61 82.02 12.54 82.03 12.53 82.11 12.59 82.14 12.6 83.65 13.67 80.22 31.38 81.91 29.63 98.07 27.06 124.35 22.88 128.71 23.45 147.61 25.92"/>
            <polygon class="cls-32" points="196 39.7 195.88 40.16 194.93 43.82 193.9 47.8 193.81 48.16 189.95 63.01 184.68 65.26 184.67 65.27 155.71 77.63 151.44 79.46 151.12 79.59 144.95 76.06 139.38 72.88 135.36 70.57 135.06 70.4 133.54 69.54 133.11 69.29 132.89 69.16 133.78 68.13 133.89 68.01 140.68 60.2 143.09 57.42 144.6 55.68 144.6 55.68 145.92 54.16 155.65 42.97 155.84 42.96 194.84 39.79 194.84 39.79 196 39.7"/>
            <polygon class="cls-44" points="152.43 80.86 133.23 69.12 130.8 72.63 136.22 88.02 152.94 85.15 152.43 80.86"/>
            <polygon class="cls-24" points="43.58 75 69.35 74.13 97.84 80.74 100.04 81 80.13 76.09 132.12 74.76 135.37 84.48 43.58 75"/>
            <polygon class="cls-35" points="200.91 75.29 213.39 75.94 196.21 74.28 170.23 82.42 200.91 75.29"/>
            <path class="cls-27" d="M245.34,94l-.9.19h0s-34.04,7.16-34.04,7.16l-9.48-26.06-13.46,2.06h-.03s-1.44.23-1.44.23l-1.03.24h0s-32,7.34-32,7.34l-1.39-5.56,33.11-14.31h.02s1.88-.92,1.88-.92h0s2.2-1.07,2.2-1.07l4.06-15.71,1.29-4.99.6-2.34.11-.43h0s0-.02,0-.02h0s.17-.68.17-.68l4.53-.34-1.39-2.27-.15-.24-.12-.2-3.85-.59h-.03s-.18-.3-.18-.3v-.02s-.42-.66-.42-.66c-.02,0-.04,0-.06,0-.06,0-.12.02-.18.03-6.58,1.14-36.67,7.56-36.67,7.56l-.04-.08h0s-2.24-4-2.24-4l.04-.02,31.55-15.01.44-.21-3.98-6.5-.97-5.62v-.02s-1.73-10.05-1.73-10.05h.35s17.15.34,17.15.34h.09s6.07.12,6.07.12h.66s18.03.36,18.03.36h.07s-5.12,35.72-5.12,35.72l-.25,1.77,3.71,15.41-1.27,3.96-.52,1.62-5.14,16.03,1.85,7.71-.16,2.24h0s.15,2.56.15,2.56l30.11,5.56Z"/>
            <polygon class="cls-15" points="171.27 .25 182.2 17.24 179.84 0 171.27 .25"/>
            <polygon class="cls-2" points="281.02 100.54 276.96 99.84 276.75 99.8 257.88 96.52 252.09 95.52 250.69 95.27 244.43 94.19 244.43 94.19 235.82 92.69 210.39 101.35 220.65 102.09 229.61 102.73 263.33 105.16 265.55 104.99 271.81 104.48 277.06 104.07 277.37 103.85 281.02 101.26 281.02 101.25 281.03 101.25 281.02 100.54"/>
            <polygon class="cls-19" points="186.6 .92 187.56 24.37 196.63 26.36 201.39 1.54 203.92 .87 197.89 36.06 216.87 37.14 221.98 .99 186.6 .92"/>
            <polygon class="cls-11" points="220.32 54.32 219.05 58.28 218.53 59.9 213.39 75.94 209.94 75.14 209.35 57.27 209.23 53.56 209.02 47.21 220.32 54.32"/>
            <polygon class="cls-29" points="215.23 88.44 215.23 88.44 211.51 91.44 211.4 85.43 214.91 83.07 215.08 85.88 215.08 85.89 215.23 88.44"/>
            <polygon class="cls-35" points="136.22 88.02 140.96 88.79 132.69 114.12 143.95 87.45 159.51 84.47 136.22 88.02"/>
            <polygon class="cls-35" points="69.34 48.34 70.3 51.91 74.36 53.56 67.25 51.81 66.76 48.38 69.34 48.34"/>
            <polygon class="cls-41" points="103.25 63.67 92.52 69.27 92.41 68.89 87.89 52.31 93.46 51.36 102.65 62.92 103 63.35 103.25 63.67"/>
            <polygon class="cls-13" points="147.61 25.92 146.62 26.01 133.62 27.21 101.69 30.15 101.15 30.15 81.46 30.1 81.3 30.1 81.49 30.07 98.07 27.06 126.05 21.99 128.94 22.37 130.41 22.56 147.61 25.92"/>
            <polygon class="cls-34" points="101.22 31.08 93.46 51.36 82.28 51.12 86.25 32.14 100.81 31.1 101.22 31.08"/>
            <polygon class="cls-28" points="63.56 12.33 69.07 45.86 71.01 45.73 72.27 15.4 63.56 12.33"/>
            <polygon class="cls-22" points="41.73 77.47 57.37 76.17 43.58 75 41.73 77.47"/>
            <path class="cls-26" d="M132.89,69.16l-2.09,3.48,5.42,15.38s16.29-2.86,16.28-3.29-.08-4.73-.08-4.73l-19.53-10.84Z"/>
            <polygon class="cls-35" points="171.54 118.41 169.85 118.38 173.96 88.94 171.54 118.41"/>
          </g>
          <path class="cls-16" d="M83.05,109.52s.02,0,.03,0l-4.36,3.03s-.05,0-.14.02c-1.32.22-11.86,2-25.14,4.32-8.93,1.56-19.1,3.36-28.54,5.1h0s-16.73-.16-16.73-.16c8.68-2.19,18.5-4.71,26.32-6.81,8.36-2.25,14.45-4.02,14.44-4.43-.01-.77-22.74-1.75-41.13-2.42l1.19-.76c33.92,2.22,72.6,2.62,72.6,2.62,0,0,.47-.19,1.47-.51Z"/>
          <path class="cls-16" d="M127.04,104.08s0-.43-18.89,1.19c-.39.03-.77.07-1.15.1-13.44,1.22-20.96,3.21-23.92,4.14l.52-.37.28-.19,5.03-3.5h.15s13.21-1.04,13.21-1.04l26.68-2.07h0s.2-.02.2-.02l-1.81,19.8-.31-18.05Z"/>
          <path class="cls-16" d="M72.18,22.65l-.3,2.18-.33,2.4-4.91-2.07-1.01-.43s0,0-.03.03c-.54.49-9,7.98-27.04,15.07-3.97,1.56-8.4,3.1-13.32,4.54,0,0,0,0,0,0-.03,0-.06.02-.1.03l-1.47-1.01s.05-.03.08-.04c2.04-.96,6.18-2.91,10.87-5.26,10.76-5.39,24.4-12.83,22.24-14.91-2.19-2.12-21.71,4.02-35.92,8.89-3.42,1.17-6.53,2.27-9.02,3.16-.01,0-.03,0-.03.01l-3.48-2.41s.02,0,.03,0h0c2.95-.4,6.37-1.05,10.02-1.85,17-3.75,38.79-10.81,38.79-10.81l7.42-1.1.21-.03.52.25,6.59,3.25.2.1Z"/>
          <path class="cls-16" d="M39.08,14.02c-3.09.47-6.34.97-9.65,1.48-9.24,1.42-19.02,2.9-27.51,4.16l-.15-1.09-1.77-2.56,39.08-1.99Z"/>
          <path class="cls-16" d="M146.96,58.04l39.51,6.3c-1.88-.25-24.21-3.24-40.85-3.98-.98-.04-1.94-.08-2.87-.11-.71-.02-1.4-.04-2.07-.05l2.41-2.78,1.61.26,2.26.36Z"/>
          <path class="cls-16" d="M219.05,58.28l-.52,1.62-9.18-2.63-.59-.17-14.91-8.92-.05-.03-.97-.58-.14-.08-43.97,7.49-2.28.39-1.84.32,1.32-1.52,1.78-.45,2.05-.52,44.15-11.14s.04.18.22.53c.08.15.18.34.32.56.13.2.29.42.48.68,1.4,1.77,4.63,4.78,12.03,8.59.78.4,1.54.79,2.27,1.16,4.12,2.08,7.37,3.62,9.82,4.72Z"/>
          <polygon class="cls-38" points="144 74.78 157.1 77.34 151.55 79.58 144 74.78"/>
          <polygon class="cls-38" points="43.58 75 54.34 76.11 41.73 77.47 43.58 75"/>
          <polygon class="cls-5" points="281.02 100.54 276.96 99.84 276.75 99.8 254.58 95.71 250.69 95.27 249.11 95.1 220.65 102.09 219.01 102.49 217.04 117.71 217.01 117.9 218.67 117.95 222.56 118.06 226.53 118.17 226.53 117.97 226.54 117.81 226.54 117.56 226.76 103.65 229.61 102.73 252.09 95.52 252.19 95.49 257.88 96.52 262.46 97.36 232.7 102.7 268.48 98.42 278.25 100.07 281.02 100.54 281.02 100.54"/>
          <polygon class="cls-5" points="281.03 101.29 281.02 101.26 281.02 101.25 281.03 101.25 281.02 100.9 280.95 100.92 265.55 104.99 264.06 105.38 271.81 104.48 277.37 103.85 277.5 103.83 281.04 101.9 281.03 101.29"/>
        </g>
      </g>
    </g>
  </g>
</svg>