<?xml version="1.0" encoding="UTF-8"?>
<svg xmlns="http://www.w3.org/2000/svg" xmlns:xlink="http://www.w3.org/1999/xlink" viewBox="0 0 225.82 135.81">
  <defs>
    <style>
      .cls-1 {
        fill: #eb7e2d;
      }

      .cls-1, .cls-2, .cls-3, .cls-4, .cls-5, .cls-6, .cls-7, .cls-8, .cls-9, .cls-10, .cls-11, .cls-12, .cls-13 {
        fill-rule: evenodd;
        stroke-width: 0px;
      }

      .cls-14 {
        isolation: isolate;
      }

      .cls-2 {
        fill: #eb5c07;
      }

      .cls-3 {
        fill: #eca61a;
        mix-blend-mode: color-dodge;
        opacity: .15;
      }

      .cls-4 {
        fill: #ed8102;
      }

      .cls-4, .cls-8, .cls-9 {
        mix-blend-mode: soft-light;
      }

      .cls-4, .cls-11 {
        opacity: .5;
      }

      .cls-5 {
        fill: url(#linear-gradient);
      }

      .cls-6 {
        fill: url(#linear-gradient-2);
      }

      .cls-7 {
        fill: #ee7d07;
      }

      .cls-8 {
        fill: #ece237;
      }

      .cls-9 {
        fill: #a75881;
      }

      .cls-10 {
        fill: #ec8702;
      }

      .cls-11, .cls-13 {
        fill: #8b0a05;
      }

      .cls-12 {
        fill: #ec9a02;
        mix-blend-mode: multiply;
        opacity: .46;
      }
    </style>
    <linearGradient id="linear-gradient" x1="112.91" y1="136.39" x2="112.91" y2="20.27" gradientUnits="userSpaceOnUse">
      <stop offset="0" stop-color="#891006"/>
      <stop offset=".97" stop-color="#b41405"/>
    </linearGradient>
    <linearGradient id="linear-gradient-2" x1="106.35" y1="85.18" x2="106.35" y2="60.34" xlink:href="#linear-gradient"/>
  </defs>
  <g class="cls-14">
    <g id="Layer_2" data-name="Layer 2">
      <g id="Layer_1-2" data-name="Layer 1">
        <g>
          <polygon class="cls-5" points="0 129.32 25.58 46.18 105.22 0 110.28 0 97.88 29.39 105.6 73.13 108.04 85.05 106.82 56 128.75 39.96 138.5 42.8 190.08 112.25 187.24 118.97 196.17 116.23 225.82 135.81 129.56 135.81 25.58 133.77 0 129.32"/>
          <polygon class="cls-8" points="97.88 29.39 55.04 77 66.81 67.8 39.29 130.02 118.43 135.81 105.6 73.13 97.88 29.39"/>
          <polygon class="cls-8" points="138.5 42.8 124.89 70.31 122.66 135.68 136.82 135.81 135.8 94.43 141.09 125.44 175.54 121.6 190.08 112.25 138.5 42.8"/>
          <polygon class="cls-8" points="196.17 116.23 154.8 132.54 175.49 128.83 154.8 135.81 225.82 135.81 196.17 116.23"/>
          <polygon class="cls-7" points="25.58 46.18 56.76 50 83.69 45.16 97.88 29.39 110.28 0 105.22 0 25.58 46.18"/>
          <polygon class="cls-7" points="128.75 39.96 106.82 56 124.89 70.31 138.5 42.8 128.75 39.96"/>
          <polygon class="cls-2" points="119.1 65.72 129.02 61.96 124.06 83.85 119.1 65.72"/>
          <polygon class="cls-2" points="56.76 50 55.04 77 83.69 45.16 56.76 50"/>
          <polygon class="cls-13" points="55.04 77 0 129.32 58.16 85.14 66.81 67.8 55.04 77"/>
          <polygon class="cls-13" points="107.75 78.17 124.06 91.13 122.66 135.68 117.25 130.02 108.04 85.05 107.75 78.17"/>
          <polygon class="cls-11" points="107.1 62.74 124.06 83.85 121.43 74.24 106.82 59.43 107.1 62.74"/>
          <polygon class="cls-9" points="25.58 46.18 4.86 113.51 12.22 110.05 33.4 65.5 37.11 64.3 25.58 93.13 37.11 92.24 55.04 61.08 56.76 50 25.58 46.18"/>
          <polygon class="cls-9" points="106.82 56 107.75 78.17 124.06 91.13 124.06 83.85 119.1 65.72 106.82 56"/>
          <polygon class="cls-4" points="97.88 29.39 116.43 126.02 97.88 56.6 92.13 61.94 92.13 99.83 69.36 121.6 66.81 67.8 97.88 29.39"/>
          <polygon class="cls-4" points="138.5 42.8 150.16 58.5 134.93 50 138.5 42.8"/>
          <polygon class="cls-4" points="141.09 125.44 134.93 74.09 156.37 113.51 162.88 113.51 148.91 83.85 175.54 121.6 141.09 125.44"/>
          <polygon class="cls-2" points="110.28 0 115.9 50 106.82 56 108.04 85.05 104.07 66.12 97.88 29.39 110.28 0"/>
          <polygon class="cls-6" points="106.82 56 104.66 67.8 108.04 85.05 106.82 56"/>
          <polygon class="cls-1" points="91.62 36.35 104.14 14.56 98.53 32.75 91.62 36.35"/>
          <polygon class="cls-1" points="78.86 46.4 86.06 42.53 82.66 48.2 78.86 46.4"/>
          <polygon class="cls-1" points="125.94 63.13 132.57 54.78 128.21 65.5 125.94 63.13"/>
          <polygon class="cls-3" points="159.91 71.64 137.77 105.96 136.04 104.08 123.53 107.88 112.52 106.92 46.97 112.65 29.48 106.92 16.63 113.51 4.86 113.51 3.57 117.71 13.76 116.23 27.94 109.17 44.74 117.71 112.91 108.86 123.58 111.5 134.93 106.92 138.5 110.23 164.42 77.71 159.91 71.64"/>
          <polygon class="cls-3" points="158.05 69.13 136.09 96.12 123.82 98.56 111.94 102.62 49.51 106.92 32.05 104.97 21 109.36 5.85 110.3 6.38 108.59 22.41 107.86 36.46 101.62 50.37 104.97 111.2 101.31 123.72 96.22 134.93 94.43 156.77 67.41 158.05 69.13"/>
          <polygon class="cls-12" points="156.77 67.41 152.07 61.08 134.93 91.13 124.01 92.59 110.48 97.67 52.09 101.08 39.29 99.76 32.36 98.56 27.04 103.62 7.91 103.62 6.38 108.59 22.41 107.86 36.46 101.62 50.37 104.97 111.2 101.31 123.72 96.22 134.93 94.43 156.77 67.41"/>
          <g>
            <polygon class="cls-10" points="112.3 17.97 108.04 32.75 112.91 23.41 112.3 17.97"/>
            <polygon class="cls-10" points="92.13 68.42 88.2 70.53 88.2 80.24 92.13 72.2 92.13 68.42"/>
            <polygon class="cls-10" points="55.82 96.51 58.07 91.13 58.8 92.8 56.76 96.51 55.82 96.51"/>
            <polygon class="cls-10" points="57.85 96.51 59.38 94.67 60.18 95.59 58.8 96.95 57.85 96.51"/>
            <polygon class="cls-10" points="91.62 93.02 91.62 91.85 92.79 91.85 92.79 93.82 91.62 93.02"/>
            <polygon class="cls-10" points="65.69 105.81 76.2 105.81 82.39 104.66 65.69 105.81"/>
            <polygon class="cls-10" points="83.69 109.44 84.49 108.08 86.68 106.92 90.17 108.59 83.69 109.44"/>
            <polygon class="cls-10" points="91.62 106.92 92.79 106.34 94.32 106.34 92.97 107.72 91.62 106.92"/>
            <polygon class="cls-10" points="97.3 124.68 98.32 123.51 99.78 124.09 99.41 128.32 95.85 127.44 97.3 124.68"/>
            <polygon class="cls-10" points="168.59 83.31 167.32 91.85 171.1 95.93 177.95 100.95 180.8 99.76 168.59 83.31"/>
            <polygon class="cls-10" points="165.43 89.31 164.42 91.13 164.42 93.82 165.43 94.67 165.43 89.31"/>
            <polygon class="cls-10" points="59.42 38.18 58.91 39.71 60.29 40.71 61.46 40.71 59.42 38.18"/>
            <polygon class="cls-10" points="161.21 105.23 157.64 108.18 158.95 109.44 161.21 105.23"/>
            <polygon class="cls-10" points="183.48 110.3 184.93 109.44 184.93 107.72 183.48 110.3"/>
            <polygon class="cls-10" points="214.26 130.28 218.49 134.21 224.84 135.16 214.26 130.28"/>
          </g>
          <polygon class="cls-11" points="104.66 67.8 97.81 134.3 118.43 135.81 104.66 67.8"/>
        </g>
      </g>
    </g>
  </g>
</svg>