<?xml version="1.0" encoding="UTF-8"?>
<svg xmlns="http://www.w3.org/2000/svg" xmlns:xlink="http://www.w3.org/1999/xlink" viewBox="0 0 212.28 228.1">
  <defs>
    <style>
      .cls-1 {
        fill: #eb7e2d;
      }

      .cls-1, .cls-2, .cls-3, .cls-4, .cls-5, .cls-6, .cls-7, .cls-8, .cls-9, .cls-10, .cls-11, .cls-12, .cls-13, .cls-14, .cls-15, .cls-16, .cls-17 {
        stroke-width: 0px;
      }

      .cls-1, .cls-2, .cls-3, .cls-4, .cls-5, .cls-6, .cls-7, .cls-9, .cls-10, .cls-11, .cls-12, .cls-13, .cls-14, .cls-15, .cls-16, .cls-17 {
        fill-rule: evenodd;
      }

      .cls-2 {
        opacity: .69;
      }

      .cls-2, .cls-6 {
        fill: #ed8102;
      }

      .cls-2, .cls-6, .cls-11, .cls-12 {
        mix-blend-mode: soft-light;
      }

      .cls-18 {
        isolation: isolate;
      }

      .cls-3 {
        fill: #eb5c07;
      }

      .cls-4 {
        fill: #eca61a;
      }

      .cls-4, .cls-5 {
        mix-blend-mode: color-dodge;
        opacity: .15;
      }

      .cls-5 {
        fill: #e66c03;
      }

      .cls-6, .cls-14 {
        opacity: .5;
      }

      .cls-7 {
        fill: url(#linear-gradient);
      }

      .cls-8, .cls-13 {
        fill: #ec8702;
      }

      .cls-9 {
        fill: url(#linear-gradient-2);
      }

      .cls-10 {
        fill: #ee7d07;
      }

      .cls-11 {
        fill: #ece237;
      }

      .cls-12 {
        fill: #a75881;
      }

      .cls-14, .cls-16 {
        fill: #8b0a05;
      }

      .cls-15 {
        fill: #ec9a02;
        mix-blend-mode: multiply;
        opacity: .46;
      }

      .cls-17 {
        fill: #df4005;
      }
    </style>
    <linearGradient id="linear-gradient" x1="65.2" y1="229.06" x2="65.2" y2="34.05" gradientUnits="userSpaceOnUse">
      <stop offset="0" stop-color="#891006"/>
      <stop offset=".97" stop-color="#b41405"/>
    </linearGradient>
    <linearGradient id="linear-gradient-2" x1="164.33" y1="228.3" x2="164.33" y2="187.93" xlink:href="#linear-gradient"/>
  </defs>
  <g class="cls-18">
    <g id="Layer_2" data-name="Layer 2">
      <g id="Layer_1-2" data-name="Layer 1">
        <g>
          <g>
            <polygon class="cls-7" points="0 228.1 11.2 184.29 19.28 179.08 24.97 151.23 36.33 47.56 37.72 44.23 62.78 28.65 69.07 29.98 68.76 45.79 68.76 58.51 70.59 26.74 82.97 2.74 100.9 0 103.56 12.65 105.47 13.22 100.99 100.98 103.8 100.98 105.4 210.38 106.98 212.96 128.12 223.38 130.41 228.1 0 228.1"/>
            <polygon class="cls-11" points="100.9 0 88.69 16.36 88.69 30.08 90.97 30.08 103.56 12.65 100.9 0"/>
            <polygon class="cls-11" points="103.8 100.98 78.97 132.95 55.83 206.67 86.69 153.83 96.13 144.66 50.97 216.67 48.11 228.1 78.97 226.39 105.4 210.38 103.8 100.98"/>
            <polygon class="cls-10" points="106.98 212.96 78.97 227.55 128.12 223.38 106.98 212.96"/>
            <polygon class="cls-10" points="11.2 184.29 53.26 160.66 39.54 179.08 11.2 184.29"/>
            <polygon class="cls-10" points="88.69 16.36 70.59 26.74 82.97 2.74 100.9 0 88.69 16.36"/>
            <polygon class="cls-10" points="103.56 12.65 90.97 30.08 92.83 30.08 105.47 13.22 103.56 12.65"/>
            <polygon class="cls-10" points="52.3 45.41 37.72 44.23 62.78 28.65 69.07 29.98 52.3 45.41"/>
            <polygon class="cls-10" points="100.99 100.98 78.97 111.9 78.97 132.95 103.8 100.98 100.99 100.98"/>
            <polygon class="cls-16" points="19.28 179.08 42.97 160.66 51.83 143.23 65.2 164.54 53.26 160.66 19.28 179.08"/>
            <polygon class="cls-14" points="70.59 26.74 69.66 39.21 71.16 62.56 88.69 45.41 92.83 30.08 88.69 30.08 88.69 16.36 70.59 26.74"/>
            <polygon class="cls-16" points="74.33 111.9 78.97 106.56 94.4 89.42 96.13 89.04 78.97 111.9 78.97 132.95 69.66 138.83 74.33 111.9"/>
            <polygon class="cls-16" points="39.54 179.08 29.25 212.96 39.54 191.14 29.25 228.1 0 228.1 11.2 184.29 39.54 179.08"/>
            <polygon class="cls-14" points="71.91 74.22 85.74 67.34 84.81 72.26 72.11 77.43 71.91 74.22"/>
            <polygon class="cls-14" points="72.69 86.37 82.13 86.37 82.13 86.37 72.86 89.04 72.69 86.37"/>
            <polygon class="cls-14" points="51.83 52.26 34.68 62.56 28.72 116.96 48.11 105.71 51.83 52.26"/>
            <polygon class="cls-11" points="105.47 13.22 92.83 30.08 78.97 102.94 78.97 106.56 94.4 89.42 96.13 89.04 78.97 111.9 100.99 100.98 105.47 13.22"/>
            <polygon class="cls-11" points="69.07 29.98 74.33 111.9 65.2 164.54 51.83 143.23 51.83 83.8 46.4 130.37 52.3 45.41 69.07 29.98"/>
            <polygon class="cls-16" points="46.4 130.37 23.04 160.66 51.52 127.52 51.83 83.8 46.4 130.37"/>
            <polygon class="cls-12" points="0 228.1 7.5 198.78 16.26 197.53 13.44 215.72 15.73 219.53 24.72 181.8 33.08 180.27 19.28 228.1 0 228.1"/>
            <polygon class="cls-12" points="88.69 16.36 88.69 30.08 92.83 30.08 83.83 77.43 81.25 77.43 87.04 39.46 81.25 42.56 72.69 84.61 69.66 39.21 70.59 26.74 88.69 16.36"/>
            <polygon class="cls-12" points="52.3 45.41 50.08 77.43 42.97 100.98 37.43 103.9 36.11 77.43 33.06 111.9 28.72 118.37 36.19 48.83 40.51 49.22 52.3 45.41"/>
            <polygon class="cls-11" points="53.26 160.66 53.38 204.18 42.24 228.1 29.25 228.1 39.54 191.14 39.54 179.08 53.26 160.66"/>
            <polygon class="cls-17" points="47.43 45.02 55.68 42.31 52.06 48.99 47.43 45.02"/>
            <polygon class="cls-17" points="86.42 17.66 90.3 14.21 88.69 19.15 86.42 17.66"/>
            <polygon class="cls-17" points="33.08 180.27 39.54 182.24 42.55 175.03 33.08 180.27"/>
            <polygon class="cls-4" points="102.91 63.39 83.57 78.78 72.2 78.78 51.75 94.66 50.56 94.66 48.54 96.23 30.59 100.98 30.59 98.94 48.68 95.34 50.77 92.86 51.68 93.73 72.11 77.43 84.12 74.8 103.12 59.22 102.91 63.39"/>
            <polygon class="cls-5" points="103.56 50.57 86.42 63.78 71.91 63.78 50.43 72.39 33.61 72.39 34.25 64.51 50.83 64.51 71.91 60.22 88.36 53.6 104.19 38.36 103.56 50.57"/>
            <polygon class="cls-4" points="102.78 66 83.19 80.8 72.39 80.1 51.71 99.87 50.07 98.84 48.52 99.87 30.25 102.44 30.25 104.11 48.32 102.78 49.82 100.98 51.71 100.98 72.69 81.15 82.81 82.75 88.83 78.58 102.39 73.51 102.78 66"/>
            <polygon class="cls-5" points="105.02 184.54 52.18 214.75 48.91 213.78 32.23 217.42 1.4 222.61 .66 225.5 31.83 218.86 48.42 214.83 51.83 216.48 81.16 199.72 105.12 190.76 105.02 184.54"/>
            <polygon class="cls-4" points="105.19 195.74 84.26 200.6 50.5 218.54 47.31 217.23 31.44 220.25 21.14 221.66 .46 225.85 0 228.1 19.35 227.86 30.5 223.67 44.46 223.34 49.17 223.86 105.4 205.02 105.12 204.18 49.18 223.03 50.33 219.6 85.4 202.24 105.23 198.31 105.19 195.74"/>
            <polygon class="cls-6" points="103.8 100.98 83.93 128.18 70.78 169.05 74.97 167.62 85.16 136.47 78.97 159.43 86.12 150.28 99.55 135.01 103.8 100.98"/>
            <polygon class="cls-6" points="93.83 151.81 72.54 186.09 76.76 186.09 104.88 175.03 104.42 143.23 93.83 151.81"/>
            <polygon class="cls-6" points="104.69 150.09 84.88 171.05 73.02 181.51 96.13 144.66 104.27 132.95 104.69 150.09"/>
            <polygon class="cls-2" points="52.06 48.99 53.39 109.66 56.54 111.9 56.54 76.23 60.36 72.39 62.54 137.23 70.78 114.94 64.14 34.52 55.68 42.31 52.06 48.99"/>
            <g>
              <polygon class="cls-13" points="68.21 199.14 68.21 197.43 72.54 194.38 74.33 194.95 68.21 199.14"/>
              <polygon class="cls-13" points="72.54 190.48 74.33 188 76.76 188 76.02 189.24 73.73 190.48 72.54 190.48"/>
              <rect class="cls-8" x="93.36" y="212.59" width="1.62" height=".72"/>
              <polygon class="cls-13" points="77.54 155.52 77.54 152.76 78.97 152.76 78.37 157.23 77.54 155.52"/>
              <polygon class="cls-13" points="41.32 185.31 43.54 182.24 42.55 184.54 41.32 185.31"/>
              <polygon class="cls-13" points="46.9 175.95 46.4 174.52 46.9 173.59 47.61 175.95 46.9 175.95"/>
              <polygon class="cls-13" points="55.9 143.23 55.04 140.66 55.47 138.38 56.4 143.23 55.9 143.23"/>
              <polygon class="cls-13" points="67.61 137.23 68.11 136.23 68.76 136.73 68.19 138.38 67.61 137.23"/>
              <polygon class="cls-13" points="105.4 19.15 102.78 24.79 102.78 35.51 104.19 38.36 105.4 19.15"/>
              <polygon class="cls-13" points="100.9 37.03 99.69 38.36 99.69 42.31 100.9 37.03"/>
              <polygon class="cls-13" points="92.83 10.81 96.13 9.08 96.13 6.39 92.83 10.81"/>
              <polygon class="cls-13" points="51.34 59.22 52.06 66 50.43 72.39 51.34 59.22"/>
              <polygon class="cls-13" points="68.9 92.13 66.86 94.94 67.88 99.23 68.9 98.23 68.9 92.13"/>
              <polygon class="cls-13" points="103.12 55.37 96.13 64.96 103.12 59.22 103.12 55.37"/>
              <polygon class="cls-13" points="92.22 68.16 90.3 68.16 87.06 72.39 92.22 68.16"/>
              <polygon class="cls-13" points="82.89 197.19 86.26 192.81 97.26 188 102.05 186.24 82.89 197.19"/>
              <polygon class="cls-13" points="105.12 190.76 87.92 197.19 85.23 198.2 91.38 198.94 105.19 195.74 105.12 190.76"/>
            </g>
            <polygon class="cls-15" points="102.39 73.51 88.83 78.58 82.81 82.75 72.69 81.15 51.71 100.98 49.82 100.98 48.32 102.78 30.25 104.11 29.97 105.3 48.11 103.59 49.97 101.8 51.83 102.09 72.69 84.61 82.13 84.61 88.85 79.44 102.25 76.27 102.39 73.51"/>
          </g>
          <g>
            <polygon class="cls-9" points="116.38 228.1 128.5 185.9 156.16 180.88 196.58 201.35 199.5 204.49 212.28 227.1 116.38 228.1"/>
            <polygon class="cls-11" points="128.5 185.9 136.65 223.89 137.44 193.29 153.33 228.04 212.28 227.1 199.5 204.49 146.55 200.83 128.5 185.9"/>
            <polygon class="cls-10" points="128.5 185.9 146.55 200.83 199.5 204.49 196.58 201.35 156.16 180.88 128.5 185.9"/>
            <polygon class="cls-16" points="136.92 213.59 150.94 222.81 145.93 211.85 137.19 202.85 136.92 213.59"/>
            <polygon class="cls-4" points="205.42 214.96 150.94 222.81 136.78 218.88 135.58 218.88 119.69 216.6 118.47 220.85 136 220.85 136.92 221.83 151.91 224.94 207.02 217.79 205.42 214.96"/>
            <polygon class="cls-15" points="207.02 217.79 151.91 224.94 136.92 221.83 118.47 220.85 117.29 224.94 136.65 223.89 153.33 228.04 210.4 223.77 207.02 217.79"/>
            <polygon class="cls-3" points="137.44 193.29 155.65 201.46 145.93 211.85 137.44 193.29"/>
            <polygon class="cls-1" points="151.91 199.78 160.22 201.78 154.61 202.57 151.91 199.78"/>
            <polygon class="cls-13" points="202.21 209.28 197.15 213.91 197.15 219.07 207.02 217.79 202.21 209.28"/>
            <polygon class="cls-13" points="164 220.93 168.74 217.32 182.16 215.29 185.77 217.79 164 220.93"/>
            <polygon class="cls-13" points="161.34 221.31 160.22 219.95 157.21 220.93 156.06 222.07 161.34 221.31"/>
            <polygon class="cls-13" points="164.33 210.89 166.01 209.28 168.67 211.22 164.33 210.89"/>
          </g>
        </g>
      </g>
    </g>
  </g>
</svg>