<?xml version="1.0" encoding="UTF-8"?>
<svg xmlns="http://www.w3.org/2000/svg" xmlns:xlink="http://www.w3.org/1999/xlink" viewBox="0 0 152.01 60.57">
  <defs>
    <style>
      .cls-1 {
        fill: url(#linear-gradient-2);
      }

      .cls-1, .cls-2, .cls-3, .cls-4, .cls-5, .cls-6, .cls-7, .cls-8, .cls-9, .cls-10 {
        stroke-width: 0px;
      }

      .cls-1, .cls-3, .cls-4, .cls-6, .cls-7, .cls-8, .cls-9, .cls-10 {
        mix-blend-mode: multiply;
      }

      .cls-1, .cls-3, .cls-8, .cls-9 {
        opacity: .3;
      }

      .cls-11 {
        isolation: isolate;
      }

      .cls-2 {
        fill: #d8a46c;
      }

      .cls-3 {
        fill: url(#linear-gradient-3);
      }

      .cls-4 {
        fill: url(#linear-gradient-5);
      }

      .cls-4, .cls-6, .cls-7, .cls-10 {
        opacity: .13;
      }

      .cls-5 {
        fill: #aa7139;
      }

      .cls-6 {
        fill: url(#linear-gradient-8);
      }

      .cls-7 {
        fill: url(#linear-gradient-7);
      }

      .cls-8 {
        fill: url(#linear-gradient);
      }

      .cls-9 {
        fill: url(#linear-gradient-4);
      }

      .cls-10 {
        fill: url(#linear-gradient-6);
      }
    </style>
    <linearGradient id="linear-gradient" x1="73.32" y1="68.74" x2="73.32" y2="160.79" gradientUnits="userSpaceOnUse">
      <stop offset="0" stop-color="#a86349"/>
      <stop offset=".27" stop-color="#a36247"/>
      <stop offset=".56" stop-color="#966142"/>
      <stop offset=".85" stop-color="#816039"/>
      <stop offset="1" stop-color="#745f34"/>
    </linearGradient>
    <linearGradient id="linear-gradient-2" x1="135.98" y1="68.74" x2="135.98" y2="160.79" xlink:href="#linear-gradient"/>
    <linearGradient id="linear-gradient-3" x1="26.18" y1="68.74" x2="26.18" y2="160.79" xlink:href="#linear-gradient"/>
    <linearGradient id="linear-gradient-4" x1="96.6" y1="65.7" x2="96.6" y2="127.63" xlink:href="#linear-gradient"/>
    <linearGradient id="linear-gradient-5" x1="47.21" y1="14.45" x2="47.21" y2="31.95" xlink:href="#linear-gradient"/>
    <linearGradient id="linear-gradient-6" x1="96.35" y1="22.04" x2="96.35" y2="35.26" xlink:href="#linear-gradient"/>
    <linearGradient id="linear-gradient-7" x1="19.09" y1="10.57" x2="19.09" y2="22.9" xlink:href="#linear-gradient"/>
    <linearGradient id="linear-gradient-8" x1="120.62" y1=".13" x2="120.62" y2="13.55" xlink:href="#linear-gradient"/>
  </defs>
  <g class="cls-11">
    <g id="Layer_2" data-name="Layer 2">
      <g id="Layer_1-2" data-name="Layer 1">
        <g>
          <polygon class="cls-2" points="152.01 6.85 143.78 32.92 122.52 38.52 66.75 28.35 60.11 8.68 69.26 1.6 103.4 .83 106.27 .76 127.46 .28 133.89 .13 139.44 0 152.01 6.85"/>
          <polygon class="cls-5" points="152.01 6.85 143.78 32.92 122.52 38.52 66.75 28.35 60.11 8.68 85.49 15.32 127.79 19.89 152.01 6.85"/>
          <polygon class="cls-8" points="85.49 15.32 60.11 8.68 66.75 28.35 86.52 31.95 85.49 15.32"/>
          <polygon class="cls-1" points="127.79 19.89 152.01 6.85 143.78 32.92 119.96 40.71 127.79 19.89"/>
          <polygon class="cls-2" points="131.67 28.35 121.15 55.09 105.15 59.44 24.45 60.57 20.8 60.57 7.54 52.12 0 19.89 3.1 17.58 12.5 10.57 12.56 10.52 38.76 14.45 62.87 18.05 89.6 22.04 101.27 23.79 131.67 28.35"/>
          <polygon class="cls-5" points="131.67 28.35 121.15 55.09 105.15 59.44 24.45 60.57 20.8 60.57 7.54 52.12 0 19.89 21.48 38.52 31.55 41.14 111.33 38.52 131.67 28.35"/>
          <polygon class="cls-3" points="21.48 38.52 20.8 60.57 30.31 60.57 31.55 41.14 21.48 38.52"/>
          <polygon class="cls-9" points="111.33 38.52 100.99 38.52 81.88 59.44 105.15 59.44 111.33 38.52"/>
          <path class="cls-4" d="M38.76,14.45l24.1,3.6c-10.32,3.14-17.62,11.38-31.32,13.9,12.99-6.62,12.53-12.65,7.21-17.5Z"/>
          <path class="cls-10" d="M103.1,35.26s-8.04-8.35-13.5-13.22l11.67,1.75,1.83,11.47Z"/>
          <path class="cls-7" d="M34.42,21.03c-3.85,4.39-20.21.13-31.32-3.45l9.39-7.02c11.39,2.16,25.8,6.04,21.92,10.47Z"/>
          <path class="cls-6" d="M131.67,13.55c-9.03-2.84-22.75-9.84-28.26-12.73l2.87-.07c2.72.64,6.87,1.6,13.14,3.05,7.07,1.65,8.72-.4,8.04-3.53l6.44-.15c1.32,1.6,2.66,3.38,3.95,5.35-6.67-1.45-13.79,2.34-6.17,8.07Z"/>
        </g>
      </g>
    </g>
  </g>
</svg>