<?xml version="1.0" encoding="UTF-8"?>
<svg xmlns="http://www.w3.org/2000/svg" xmlns:xlink="http://www.w3.org/1999/xlink" viewBox="0 0 158.3 149.75">
  <defs>
    <style>
      .cls-1 {
        fill: url(#_ÂÁ_Ï_ÌÌ_È_ËÂÌÚ_4-3);
      }

      .cls-1, .cls-2, .cls-3, .cls-4, .cls-5, .cls-6, .cls-7, .cls-8, .cls-9, .cls-10, .cls-11, .cls-12, .cls-13, .cls-14, .cls-15, .cls-16 {
        stroke-width: 0px;
      }

      .cls-1, .cls-2, .cls-4, .cls-6, .cls-8, .cls-9, .cls-11, .cls-14, .cls-16 {
        mix-blend-mode: multiply;
      }

      .cls-1, .cls-8, .cls-9, .cls-16 {
        opacity: .3;
      }

      .cls-17 {
        filter: url(#luminosity-noclip-5);
      }

      .cls-2 {
        fill: url(#_ÂÁ_Ï_ÌÌ_È_ËÂÌÚ_4-4);
      }

      .cls-2, .cls-6 {
        opacity: .18;
      }

      .cls-18 {
        mask: url(#mask-2);
      }

      .cls-3 {
        fill: #e5ac77;
      }

      .cls-19 {
        isolation: isolate;
      }

      .cls-20 {
        mask: url(#mask-3);
      }

      .cls-4 {
        fill: url(#linear-gradient-5);
      }

      .cls-5 {
        fill: #bc723f;
      }

      .cls-21 {
        mask: url(#mask-5);
      }

      .cls-6 {
        fill: url(#_ÂÁ_Ï_ÌÌ_È_ËÂÌÚ_4-5);
      }

      .cls-7 {
        fill: #995a37;
      }

      .cls-8 {
        fill: url(#_ÂÁ_Ï_ÌÌ_È_ËÂÌÚ_4-2);
      }

      .cls-9 {
        fill: url(#_ÂÁ_Ï_ÌÌ_È_ËÂÌÚ_4);
      }

      .cls-10 {
        fill: url(#linear-gradient-4);
      }

      .cls-10, .cls-12, .cls-13 {
        mix-blend-mode: overlay;
        opacity: .28;
      }

      .cls-22 {
        mask: url(#mask-4);
      }

      .cls-11 {
        fill: url(#linear-gradient);
      }

      .cls-12 {
        fill: url(#linear-gradient-2);
      }

      .cls-13 {
        fill: url(#linear-gradient-6);
      }

      .cls-23 {
        filter: url(#luminosity-noclip);
      }

      .cls-24 {
        mask: url(#mask-1);
      }

      .cls-25 {
        mask: url(#mask);
      }

      .cls-14 {
        fill: url(#linear-gradient-3);
      }

      .cls-15 {
        fill: #b17b5a;
      }

      .cls-26 {
        filter: url(#luminosity-noclip-3);
      }

      .cls-16 {
        fill: url(#_ÂÁ_Ï_ÌÌ_È_ËÂÌÚ_4-6);
      }
    </style>
    <filter id="luminosity-noclip" x="28.76" y="9.69" width="69.44" height="61.75" color-interpolation-filters="sRGB" filterUnits="userSpaceOnUse">
      <feFlood flood-color="#fff" result="bg"/>
      <feBlend in="SourceGraphic" in2="bg"/>
    </filter>
    <filter id="luminosity-noclip-2" x="28.76" y="-8176.55" width="69.44" height="32766" color-interpolation-filters="sRGB" filterUnits="userSpaceOnUse">
      <feFlood flood-color="#fff" result="bg"/>
      <feBlend in="SourceGraphic" in2="bg"/>
    </filter>
    <mask id="mask-1" x="28.76" y="-8176.55" width="69.44" height="32766" maskUnits="userSpaceOnUse"/>
    <linearGradient id="linear-gradient" x1="28.76" y1="40.57" x2="98.2" y2="40.57" gradientUnits="userSpaceOnUse">
      <stop offset=".23" stop-color="#4d4d4d"/>
      <stop offset=".82" stop-color="#b3b3b3"/>
    </linearGradient>
    <mask id="mask" x="28.76" y="9.69" width="69.44" height="61.75" maskUnits="userSpaceOnUse">
      <g class="cls-23">
        <g class="cls-24">
          <path class="cls-11" d="M75.94,14.56l-47.19,56.03s46.39-51.35,57.11-45.32c10.71,6.03,2.68,38.13,0,46.18,17.41-30.78,11.29-61.75,11.29-61.75l-21.21,4.87Z"/>
        </g>
      </g>
    </mask>
    <linearGradient id="linear-gradient-2" x1="28.76" y1="40.57" x2="98.2" y2="40.57" gradientUnits="userSpaceOnUse">
      <stop offset=".23" stop-color="#534212"/>
      <stop offset=".82" stop-color="#534212"/>
    </linearGradient>
    <filter id="luminosity-noclip-3" x="35.22" y="55.96" width="47.69" height="43.16" color-interpolation-filters="sRGB" filterUnits="userSpaceOnUse">
      <feFlood flood-color="#fff" result="bg"/>
      <feBlend in="SourceGraphic" in2="bg"/>
    </filter>
    <filter id="luminosity-noclip-4" x="35.22" y="-8176.55" width="47.69" height="32766" color-interpolation-filters="sRGB" filterUnits="userSpaceOnUse">
      <feFlood flood-color="#fff" result="bg"/>
      <feBlend in="SourceGraphic" in2="bg"/>
    </filter>
    <mask id="mask-3" x="35.22" y="-8176.55" width="47.69" height="32766" maskUnits="userSpaceOnUse"/>
    <linearGradient id="linear-gradient-3" x1="35.22" y1="77.54" x2="82.91" y2="77.54" xlink:href="#linear-gradient"/>
    <mask id="mask-2" x="35.22" y="55.96" width="47.69" height="43.16" maskUnits="userSpaceOnUse">
      <g class="cls-26">
        <g class="cls-20">
          <path class="cls-14" d="M35.22,87.1s20.4-11.83,25.14-31.14c-7.31,28.23-4.54,36.73,3.12,36.5,7.66-.23,19.43-10.72,19.43-10.72l-11.32,17.38-36.37-12.01Z"/>
        </g>
      </g>
    </mask>
    <linearGradient id="linear-gradient-4" x1="35.22" y1="77.54" x2="82.91" y2="77.54" xlink:href="#linear-gradient-2"/>
    <filter id="luminosity-noclip-5" x="102.09" y="1.76" width="29.6" height="55.09" color-interpolation-filters="sRGB" filterUnits="userSpaceOnUse">
      <feFlood flood-color="#fff" result="bg"/>
      <feBlend in="SourceGraphic" in2="bg"/>
    </filter>
    <filter id="luminosity-noclip-6" x="102.09" y="-8176.55" width="29.6" height="32766" color-interpolation-filters="sRGB" filterUnits="userSpaceOnUse">
      <feFlood flood-color="#fff" result="bg"/>
      <feBlend in="SourceGraphic" in2="bg"/>
    </filter>
    <mask id="mask-5" x="102.09" y="-8176.55" width="29.6" height="32766" maskUnits="userSpaceOnUse"/>
    <linearGradient id="linear-gradient-5" x1="102.09" y1="29.3" x2="131.69" y2="29.3" xlink:href="#linear-gradient"/>
    <mask id="mask-4" x="102.09" y="1.76" width="29.6" height="55.09" maskUnits="userSpaceOnUse">
      <g class="cls-17">
        <g class="cls-21">
          <path class="cls-4" d="M131.69,1.76c-1.46,7.47-4.79,14.33-12.01,15.04-17.06.24-3.01,27.88-17.59,40.04,4.85-18.64,0-48.29,0-48.29l3.16-.73c1.1.97,2.34,2.32,3.39,4.23,4.1.84,8.29-2.77,11.99-7.75l11.06-2.54Z"/>
        </g>
      </g>
    </mask>
    <linearGradient id="linear-gradient-6" x1="102.09" y1="29.3" x2="131.69" y2="29.3" xlink:href="#linear-gradient-2"/>
    <linearGradient id="_ÂÁ_Ï_ÌÌ_È_ËÂÌÚ_4" data-name="¡ÂÁ˚ÏˇÌÌ˚È „‡‰ËÂÌÚ 4" x1="9.85" y1="110.51" x2="97.15" y2="110.51" gradientUnits="userSpaceOnUse">
      <stop offset="0" stop-color="#a86349"/>
      <stop offset=".26" stop-color="#a06245"/>
      <stop offset=".65" stop-color="#8c603d"/>
      <stop offset="1" stop-color="#745f34"/>
    </linearGradient>
    <linearGradient id="_ÂÁ_Ï_ÌÌ_È_ËÂÌÚ_4-2" data-name="¡ÂÁ˚ÏˇÌÌ˚È „‡‰ËÂÌÚ 4" x1="38.35" y1="47.28" x2="82.91" y2="47.28" xlink:href="#_ÂÁ_Ï_ÌÌ_È_ËÂÌÚ_4"/>
    <linearGradient id="_ÂÁ_Ï_ÌÌ_È_ËÂÌÚ_4-3" data-name="¡ÂÁ˚ÏˇÌÌ˚È „‡‰ËÂÌÚ 4" x1="70.56" y1="63.67" x2="226.65" y2="142.75" xlink:href="#_ÂÁ_Ï_ÌÌ_È_ËÂÌÚ_4"/>
    <linearGradient id="_ÂÁ_Ï_ÌÌ_È_ËÂÌÚ_4-4" data-name="¡ÂÁ˚ÏˇÌÌ˚È „‡‰ËÂÌÚ 4" x1="23.12" y1="112.84" x2="59.33" y2="112.84" xlink:href="#_ÂÁ_Ï_ÌÌ_È_ËÂÌÚ_4"/>
    <linearGradient id="_ÂÁ_Ï_ÌÌ_È_ËÂÌÚ_4-5" data-name="¡ÂÁ˚ÏˇÌÌ˚È „‡‰ËÂÌÚ 4" x1="63.48" y1="111.14" x2="81.43" y2="111.14" xlink:href="#_ÂÁ_Ï_ÌÌ_È_ËÂÌÚ_4"/>
    <linearGradient id="_ÂÁ_Ï_ÌÌ_È_ËÂÌÚ_4-6" data-name="¡ÂÁ˚ÏˇÌÌ˚È „‡‰ËÂÌÚ 4" x1="23.12" y1="135.6" x2="37.31" y2="135.6" xlink:href="#_ÂÁ_Ï_ÌÌ_È_ËÂÌÚ_4"/>
  </defs>
  <g class="cls-19">
    <g id="Layer_2" data-name="Layer 2">
      <g id="Layer_1-2" data-name="Layer 1">
        <g>
          <polygon class="cls-5" points="158.3 29.02 138.09 67.62 129.8 138.86 92.49 142.3 68.15 142.3 37.31 149.75 0 142.3 2.6 116.57 15.29 109.48 9.84 78.72 24.1 57.76 39.39 53.63 38.34 44.14 46.63 26.95 60.36 18.13 75.95 14.56 97.15 9.7 102.09 8.55 105.25 7.82 120.63 4.31 131.69 1.76 139.38 0 158.3 29.02"/>
          <g class="cls-25">
            <path class="cls-12" d="M75.94,14.56l-47.19,56.03s46.39-51.35,57.11-45.32c10.71,6.03,2.68,38.13,0,46.18,17.41-30.78,11.29-61.75,11.29-61.75l-21.21,4.87Z"/>
          </g>
          <g class="cls-18">
            <path class="cls-10" d="M35.22,87.1s20.4-11.83,25.14-31.14c-7.31,28.23-4.54,36.73,3.12,36.5,7.66-.23,19.43-10.72,19.43-10.72l-11.32,17.38-36.37-12.01Z"/>
          </g>
          <g class="cls-22">
            <path class="cls-13" d="M131.69,1.76c-1.46,7.47-4.79,14.33-12.01,15.04-17.06.24-3.01,27.88-17.59,40.04,4.85-18.64,0-48.29,0-48.29l3.16-.73c1.1.97,2.34,2.32,3.39,4.23,4.1.84,8.29-2.77,11.99-7.75l11.06-2.54Z"/>
          </g>
          <polygon class="cls-3" points="2.6 116.57 28.76 122.8 47.68 119.7 15.29 109.48 2.6 116.57"/>
          <polygon class="cls-15" points="0 142.3 2.6 116.57 28.76 122.8 37.31 149.75 0 142.3"/>
          <polygon class="cls-15" points="68.14 142.3 47.67 119.69 15.29 109.47 9.85 78.72 97.15 107.56 97.15 141.87 68.14 142.3"/>
          <polygon class="cls-7" points="0 142.3 2.6 116.57 28.76 122.8 37.31 149.75 0 142.3"/>
          <polygon class="cls-7" points="68.14 142.3 47.67 119.69 15.29 109.47 9.85 78.72 97.15 107.56 97.15 141.87 68.14 142.3"/>
          <polygon class="cls-9" points="68.14 142.3 47.67 119.69 15.29 109.47 9.85 78.72 97.15 107.56 97.15 141.87 68.14 142.3"/>
          <polygon class="cls-3" points="158.29 29.02 139.38 0 142.23 39.46 158.29 29.02"/>
          <polygon class="cls-15" points="38.35 44.14 82.91 40.93 39.38 53.63 38.35 44.14"/>
          <polygon class="cls-8" points="38.35 44.14 82.91 40.93 39.38 53.63 38.35 44.14"/>
          <polygon class="cls-7" points="142.23 39.46 105.44 89.64 97.15 107.56 97.15 141.87 129.8 138.86 138.09 67.62 158.29 29.02 142.23 39.46"/>
          <polygon class="cls-3" points="77.18 100.96 105.44 89.64 97.15 107.56 77.18 100.96"/>
          <polygon class="cls-1" points="142.23 39.46 113.99 87.1 113.99 140.32 105.44 141.87 105.44 89.64 142.23 39.46"/>
          <polygon class="cls-7" points="28.76 122.8 47.67 119.69 68.14 142.3 37.31 149.75 28.76 122.8"/>
          <path class="cls-2" d="M23.35,112.02l24.32,7.67,11.66,12.88s.18-37.13-23.58-39.42c-15.4-1.1-12.41,18.86-12.41,18.86Z"/>
          <path class="cls-6" d="M63.48,96.44s4.13,25.29,13.7,29.06c9.57,3.78,0-24.54,0-24.54l-13.7-4.53Z"/>
          <polygon class="cls-16" points="28.76 122.8 23.12 121.46 37.31 149.75 28.76 122.8"/>
        </g>
      </g>
    </g>
  </g>
</svg>