<?xml version="1.0" encoding="UTF-8"?>
<svg xmlns="http://www.w3.org/2000/svg" xmlns:xlink="http://www.w3.org/1999/xlink" viewBox="0 0 189.61 180.76">
  <defs>
    <style>
      .cls-1 {
        fill: url(#_ÂÁ_Ï_ÌÌ_È_ËÂÌÚ_4-3);
      }

      .cls-1, .cls-2, .cls-3, .cls-4, .cls-5, .cls-6, .cls-7, .cls-8, .cls-9, .cls-10, .cls-11, .cls-12, .cls-13, .cls-14, .cls-15, .cls-16, .cls-17, .cls-18, .cls-19, .cls-20, .cls-21, .cls-22, .cls-23, .cls-24, .cls-25, .cls-26, .cls-27 {
        stroke-width: 0px;
      }

      .cls-1, .cls-2, .cls-6, .cls-7, .cls-8, .cls-9, .cls-11, .cls-13, .cls-14, .cls-16, .cls-17, .cls-20, .cls-23, .cls-24, .cls-25, .cls-26, .cls-27 {
        mix-blend-mode: multiply;
      }

      .cls-1, .cls-9, .cls-11, .cls-14, .cls-17, .cls-20, .cls-23, .cls-27 {
        opacity: .3;
      }

      .cls-28 {
        filter: url(#luminosity-noclip-11);
      }

      .cls-2 {
        fill: url(#_ÂÁ_Ï_ÌÌ_È_ËÂÌÚ_4-5);
        opacity: .58;
      }

      .cls-3 {
        fill: url(#linear-gradient-12);
      }

      .cls-3, .cls-10, .cls-12, .cls-15, .cls-19, .cls-21, .cls-22 {
        mix-blend-mode: overlay;
      }

      .cls-29 {
        mask: url(#mask-10);
      }

      .cls-4 {
        fill: #ad6e3e;
      }

      .cls-30 {
        filter: url(#luminosity-noclip-7);
      }

      .cls-31 {
        filter: url(#luminosity-noclip-13);
      }

      .cls-32 {
        filter: url(#luminosity-noclip-5);
      }

      .cls-33 {
        mask: url(#mask-2);
      }

      .cls-5 {
        fill: #e5ac77;
      }

      .cls-6 {
        fill: url(#linear-gradient-11);
      }

      .cls-34 {
        isolation: isolate;
      }

      .cls-35 {
        mask: url(#mask-13);
      }

      .cls-36 {
        mask: url(#mask-3);
      }

      .cls-7 {
        fill: url(#linear-gradient-5);
      }

      .cls-8 {
        fill: url(#linear-gradient-9);
      }

      .cls-9 {
        fill: url(#_ÂÁ_Ï_ÌÌ_È_ËÂÌÚ_4-4);
      }

      .cls-37 {
        mask: url(#mask-9);
      }

      .cls-38 {
        mask: url(#mask-12);
      }

      .cls-10 {
        fill: url(#linear-gradient-14);
      }

      .cls-10, .cls-12, .cls-19, .cls-22 {
        opacity: .73;
      }

      .cls-39 {
        mask: url(#mask-5);
      }

      .cls-11 {
        fill: url(#_ÂÁ_Ï_ÌÌ_È_ËÂÌÚ_4-7);
      }

      .cls-12 {
        fill: url(#linear-gradient-2);
      }

      .cls-13 {
        fill: url(#_ÂÁ_Ï_ÌÌ_È_ËÂÌÚ_4);
        opacity: .4;
      }

      .cls-40 {
        filter: url(#luminosity-noclip-9);
      }

      .cls-14 {
        fill: url(#_ÂÁ_Ï_ÌÌ_È_ËÂÌÚ_4-2);
      }

      .cls-15 {
        fill: url(#linear-gradient-10);
      }

      .cls-41 {
        mask: url(#mask-8);
      }

      .cls-42 {
        mask: url(#mask-4);
      }

      .cls-16 {
        fill: url(#linear-gradient);
      }

      .cls-17 {
        fill: url(#_ÂÁ_Ï_ÌÌ_È_ËÂÌÚ_4-10);
      }

      .cls-43 {
        mask: url(#mask-6);
      }

      .cls-18 {
        fill: #986038;
      }

      .cls-19 {
        fill: url(#linear-gradient-4);
      }

      .cls-44 {
        filter: url(#luminosity-noclip);
      }

      .cls-45 {
        mask: url(#mask-1);
      }

      .cls-46 {
        mask: url(#mask);
      }

      .cls-20 {
        fill: url(#_ÂÁ_Ï_ÌÌ_È_ËÂÌÚ_4-9);
      }

      .cls-21 {
        fill: url(#linear-gradient-8);
        opacity: .25;
      }

      .cls-22 {
        fill: url(#linear-gradient-6);
      }

      .cls-23 {
        fill: url(#_ÂÁ_Ï_ÌÌ_È_ËÂÌÚ_4-8);
      }

      .cls-47 {
        mask: url(#mask-7);
      }

      .cls-24 {
        fill: url(#linear-gradient-3);
      }

      .cls-25 {
        fill: url(#linear-gradient-7);
      }

      .cls-26 {
        fill: url(#linear-gradient-13);
      }

      .cls-48 {
        mask: url(#mask-11);
      }

      .cls-49 {
        filter: url(#luminosity-noclip-3);
      }

      .cls-27 {
        fill: url(#_ÂÁ_Ï_ÌÌ_È_ËÂÌÚ_4-6);
      }
    </style>
    <linearGradient id="_ÂÁ_Ï_ÌÌ_È_ËÂÌÚ_4" data-name="¡ÂÁ˚ÏˇÌÌ˚È „‡‰ËÂÌÚ 4" x1="100.12" y1="189.27" x2="95.07" y2="66.52" gradientUnits="userSpaceOnUse">
      <stop offset="0" stop-color="#a86349"/>
      <stop offset=".26" stop-color="#a06245"/>
      <stop offset=".65" stop-color="#8c603d"/>
      <stop offset="1" stop-color="#745f34"/>
    </linearGradient>
    <linearGradient id="_ÂÁ_Ï_ÌÌ_È_ËÂÌÚ_4-2" data-name="¡ÂÁ˚ÏˇÌÌ˚È „‡‰ËÂÌÚ 4" x1="87.23" y1="111.77" x2="117.78" y2="111.77" xlink:href="#_ÂÁ_Ï_ÌÌ_È_ËÂÌÚ_4"/>
    <linearGradient id="_ÂÁ_Ï_ÌÌ_È_ËÂÌÚ_4-3" data-name="¡ÂÁ˚ÏˇÌÌ˚È „‡‰ËÂÌÚ 4" x1="26.56" y1="73.43" x2="53.12" y2="73.43" xlink:href="#_ÂÁ_Ï_ÌÌ_È_ËÂÌÚ_4"/>
    <linearGradient id="_ÂÁ_Ï_ÌÌ_È_ËÂÌÚ_4-4" data-name="¡ÂÁ˚ÏˇÌÌ˚È „‡‰ËÂÌÚ 4" x1="50.35" y1="157.83" x2="90.36" y2="157.05" xlink:href="#_ÂÁ_Ï_ÌÌ_È_ËÂÌÚ_4"/>
    <linearGradient id="_ÂÁ_Ï_ÌÌ_È_ËÂÌÚ_4-5" data-name="¡ÂÁ˚ÏˇÌÌ˚È „‡‰ËÂÌÚ 4" x1="50.35" y1="157.83" x2="90.36" y2="157.05" xlink:href="#_ÂÁ_Ï_ÌÌ_È_ËÂÌÚ_4"/>
    <linearGradient id="_ÂÁ_Ï_ÌÌ_È_ËÂÌÚ_4-6" data-name="¡ÂÁ˚ÏˇÌÌ˚È „‡‰ËÂÌÚ 4" x1="0" y1="165.77" x2="53.66" y2="165.77" xlink:href="#_ÂÁ_Ï_ÌÌ_È_ËÂÌÚ_4"/>
    <linearGradient id="_ÂÁ_Ï_ÌÌ_È_ËÂÌÚ_4-7" data-name="¡ÂÁ˚ÏˇÌÌ˚È „‡‰ËÂÌÚ 4" x1="0" y1="165.9" x2="23.96" y2="165.9" xlink:href="#_ÂÁ_Ï_ÌÌ_È_ËÂÌÚ_4"/>
    <filter id="luminosity-noclip" x="117.89" y="56.52" width="20.57" height="124.23" color-interpolation-filters="sRGB" filterUnits="userSpaceOnUse">
      <feFlood flood-color="#fff" result="bg"/>
      <feBlend in="SourceGraphic" in2="bg"/>
    </filter>
    <filter id="luminosity-noclip-2" x="117.89" y="-8213.09" width="20.57" height="32766" color-interpolation-filters="sRGB" filterUnits="userSpaceOnUse">
      <feFlood flood-color="#fff" result="bg"/>
      <feBlend in="SourceGraphic" in2="bg"/>
    </filter>
    <mask id="mask-1" x="117.89" y="-8213.09" width="20.57" height="32766" maskUnits="userSpaceOnUse"/>
    <linearGradient id="linear-gradient" x1="145.16" y1="214.9" x2="98.93" y2="-27.5" gradientUnits="userSpaceOnUse">
      <stop offset=".23" stop-color="#4d4d4d"/>
      <stop offset=".82" stop-color="#b3b3b3"/>
    </linearGradient>
    <mask id="mask" x="117.89" y="56.52" width="20.57" height="124.23" maskUnits="userSpaceOnUse">
      <g class="cls-44">
        <g class="cls-45">
          <polygon class="cls-16" points="128.81 113 128.81 110.8 135.71 56.52 131.14 58.66 117.89 180.76 128.81 177.94 128.81 124.75 138.46 111.77 128.81 113"/>
        </g>
      </g>
    </mask>
    <linearGradient id="linear-gradient-2" x1="145.16" y1="214.9" x2="98.93" y2="-27.5" gradientUnits="userSpaceOnUse">
      <stop offset=".23" stop-color="#533418"/>
      <stop offset=".82" stop-color="#533418"/>
    </linearGradient>
    <linearGradient id="_ÂÁ_Ï_ÌÌ_È_ËÂÌÚ_4-8" data-name="¡ÂÁ˚ÏˇÌÌ˚È „‡‰ËÂÌÚ 4" x1="140.15" y1="138.58" x2="186.49" y2="138.58" xlink:href="#_ÂÁ_Ï_ÌÌ_È_ËÂÌÚ_4"/>
    <linearGradient id="_ÂÁ_Ï_ÌÌ_È_ËÂÌÚ_4-9" data-name="¡ÂÁ˚ÏˇÌÌ˚È „‡‰ËÂÌÚ 4" x1="76.75" y1="42.42" x2="30.64" y2="58.51" xlink:href="#_ÂÁ_Ï_ÌÌ_È_ËÂÌÚ_4"/>
    <linearGradient id="_ÂÁ_Ï_ÌÌ_È_ËÂÌÚ_4-10" data-name="¡ÂÁ˚ÏˇÌÌ˚È „‡‰ËÂÌÚ 4" x1="176.64" y1="88.01" x2="57.46" y2="129.59" xlink:href="#_ÂÁ_Ï_ÌÌ_È_ËÂÌÚ_4"/>
    <filter id="luminosity-noclip-3" x="51.02" y="44.88" width="36.83" height="135.88" color-interpolation-filters="sRGB" filterUnits="userSpaceOnUse">
      <feFlood flood-color="#fff" result="bg"/>
      <feBlend in="SourceGraphic" in2="bg"/>
    </filter>
    <filter id="luminosity-noclip-4" x="51.02" y="-8213.09" width="36.83" height="32766" color-interpolation-filters="sRGB" filterUnits="userSpaceOnUse">
      <feFlood flood-color="#fff" result="bg"/>
      <feBlend in="SourceGraphic" in2="bg"/>
    </filter>
    <mask id="mask-3" x="51.02" y="-8213.09" width="36.83" height="32766" maskUnits="userSpaceOnUse"/>
    <linearGradient id="linear-gradient-3" x1="173.43" y1="41.14" x2="-93.61" y2="233.53" xlink:href="#linear-gradient"/>
    <mask id="mask-2" x="51.02" y="44.88" width="36.83" height="135.88" maskUnits="userSpaceOnUse">
      <g class="cls-49">
        <g class="cls-36">
          <path class="cls-24" d="M87.23,138.58c-2.91-7.03-5.21,25.58-6.16,42.18h-.54c-.24-22.22-1.79-76.92-10.96-76.86-14.47.06-1.5,61.47,1.97,76.86h-11.2s2.2-75.43,0-82.88c-2.2-7.45-3.31,21.99-9.31-33.06,7.01,38.64,13.17,44.49,15.79-19.93.27,74.32,6.76,51.93,15.28,31.13-6.52,36.32,9.02,71.91,5.14,62.57Z"/>
        </g>
      </g>
    </mask>
    <linearGradient id="linear-gradient-4" x1="173.43" y1="41.14" x2="-93.61" y2="233.53" xlink:href="#linear-gradient-2"/>
    <filter id="luminosity-noclip-5" x="102.5" y="54.87" width="28.64" height="78.44" color-interpolation-filters="sRGB" filterUnits="userSpaceOnUse">
      <feFlood flood-color="#fff" result="bg"/>
      <feBlend in="SourceGraphic" in2="bg"/>
    </filter>
    <filter id="luminosity-noclip-6" x="102.5" y="-8213.09" width="28.64" height="32766" color-interpolation-filters="sRGB" filterUnits="userSpaceOnUse">
      <feFlood flood-color="#fff" result="bg"/>
      <feBlend in="SourceGraphic" in2="bg"/>
    </filter>
    <mask id="mask-5" x="102.5" y="-8213.09" width="28.64" height="32766" maskUnits="userSpaceOnUse"/>
    <linearGradient id="linear-gradient-5" x1="145.64" y1="214.81" x2="99.42" y2="-27.59" xlink:href="#linear-gradient"/>
    <mask id="mask-4" x="102.5" y="54.87" width="28.64" height="78.44" maskUnits="userSpaceOnUse">
      <g class="cls-32">
        <g class="cls-39">
          <path class="cls-7" d="M102.5,54.87s7.14,46.46,7.14,50.97-2.46-51.24,8.13-36.44c10.59,14.8,0,63.91,0,63.91l13.36-74.64-28.64-3.79Z"/>
        </g>
      </g>
    </mask>
    <linearGradient id="linear-gradient-6" x1="145.64" y1="214.81" x2="99.42" y2="-27.59" xlink:href="#linear-gradient-2"/>
    <filter id="luminosity-noclip-7" x="75.66" y="12.89" width="85.92" height="58.9" color-interpolation-filters="sRGB" filterUnits="userSpaceOnUse">
      <feFlood flood-color="#fff" result="bg"/>
      <feBlend in="SourceGraphic" in2="bg"/>
    </filter>
    <filter id="luminosity-noclip-8" x="75.66" y="-8213.09" width="85.92" height="32766" color-interpolation-filters="sRGB" filterUnits="userSpaceOnUse">
      <feFlood flood-color="#fff" result="bg"/>
      <feBlend in="SourceGraphic" in2="bg"/>
    </filter>
    <mask id="mask-7" x="75.66" y="-8213.09" width="85.92" height="32766" maskUnits="userSpaceOnUse"/>
    <linearGradient id="linear-gradient-7" x1="119.95" y1="34.48" x2="116.23" y2="57.78" xlink:href="#linear-gradient"/>
    <mask id="mask-6" x="75.66" y="12.89" width="85.92" height="58.9" maskUnits="userSpaceOnUse">
      <g class="cls-30">
        <g class="cls-47">
          <path class="cls-25" d="M161.58,33.7l-3.8,38.09c-15.82-1.55-28.96-4.1-26.63-8.26,4.36-7.77-38.13-20.83-55.48-25.78,19.96,5.37,74.92,19.05,78.65,8.21,2.51-7.3-16.4-10.62-33.97-12.12,6.47-.35,11.37-1.5,10.8-4.24-1.55-7.58-8.97-3.93-52.06-2.24,24.62-2.67,22.98-8.96,15.53-14.45l66.97,20.81Z"/>
        </g>
      </g>
    </mask>
    <linearGradient id="linear-gradient-8" x1="119.95" y1="34.48" x2="116.23" y2="57.78" xlink:href="#linear-gradient-2"/>
    <filter id="luminosity-noclip-9" x="149.66" y="115.65" width=".89" height="5.05" color-interpolation-filters="sRGB" filterUnits="userSpaceOnUse">
      <feFlood flood-color="#fff" result="bg"/>
      <feBlend in="SourceGraphic" in2="bg"/>
    </filter>
    <filter id="luminosity-noclip-10" x="149.66" y="-8213.09" width=".89" height="32766" color-interpolation-filters="sRGB" filterUnits="userSpaceOnUse">
      <feFlood flood-color="#fff" result="bg"/>
      <feBlend in="SourceGraphic" in2="bg"/>
    </filter>
    <mask id="mask-9" x="149.66" y="-8213.09" width=".89" height="32766" maskUnits="userSpaceOnUse"/>
    <linearGradient id="linear-gradient-9" x1="150.18" y1="117.44" x2="149.79" y2="119.9" xlink:href="#linear-gradient"/>
    <mask id="mask-8" x="149.66" y="115.65" width=".89" height="5.05" maskUnits="userSpaceOnUse">
      <g class="cls-40">
        <g class="cls-37">
          <path class="cls-8" d="M150.56,115.65c-.3,1.73-.6,3.42-.89,5.05.06-1.32.35-2.98.89-5.05Z"/>
        </g>
      </g>
    </mask>
    <linearGradient id="linear-gradient-10" x1="150.18" y1="117.44" x2="149.79" y2="119.9" gradientUnits="userSpaceOnUse">
      <stop offset=".23" stop-color="#534212"/>
      <stop offset=".82" stop-color="#534212"/>
    </linearGradient>
    <filter id="luminosity-noclip-11" x="165.1" y="116.71" width=".71" height=".65" color-interpolation-filters="sRGB" filterUnits="userSpaceOnUse">
      <feFlood flood-color="#fff" result="bg"/>
      <feBlend in="SourceGraphic" in2="bg"/>
    </filter>
    <filter id="luminosity-noclip-12" x="165.1" y="-8213.09" width=".71" height="32766" color-interpolation-filters="sRGB" filterUnits="userSpaceOnUse">
      <feFlood flood-color="#fff" result="bg"/>
      <feBlend in="SourceGraphic" in2="bg"/>
    </filter>
    <mask id="mask-11" x="165.1" y="-8213.09" width=".71" height="32766" maskUnits="userSpaceOnUse"/>
    <linearGradient id="linear-gradient-11" x1="165.47" y1="116.93" x2="165.41" y2="117.29" xlink:href="#linear-gradient"/>
    <mask id="mask-10" x="165.1" y="116.71" width=".71" height=".65" maskUnits="userSpaceOnUse">
      <g class="cls-28">
        <g class="cls-48">
          <path class="cls-6" d="M165.81,116.71c-.18.18-.43.41-.71.65.28-.27.53-.48.71-.65Z"/>
        </g>
      </g>
    </mask>
    <linearGradient id="linear-gradient-12" x1="165.47" y1="116.93" x2="165.41" y2="117.29" xlink:href="#linear-gradient-10"/>
    <filter id="luminosity-noclip-13" x="140.15" y="117.39" width="39.79" height="57.61" color-interpolation-filters="sRGB" filterUnits="userSpaceOnUse">
      <feFlood flood-color="#fff" result="bg"/>
      <feBlend in="SourceGraphic" in2="bg"/>
    </filter>
    <filter id="luminosity-noclip-14" x="140.15" y="-8213.09" width="39.79" height="32766" color-interpolation-filters="sRGB" filterUnits="userSpaceOnUse">
      <feFlood flood-color="#fff" result="bg"/>
      <feBlend in="SourceGraphic" in2="bg"/>
    </filter>
    <mask id="mask-13" x="140.15" y="-8213.09" width="39.79" height="32766" maskUnits="userSpaceOnUse"/>
    <linearGradient id="linear-gradient-13" x1="165.18" y1="139.35" x2="160.53" y2="168.48" xlink:href="#linear-gradient"/>
    <mask id="mask-12" x="140.15" y="117.39" width="39.79" height="57.61" maskUnits="userSpaceOnUse">
      <g class="cls-31">
        <g class="cls-35">
          <path class="cls-26" d="M179.95,168.04l-2.54,6.97h-37.25s.07-.38.75-4.24c.06-.31.11-.64.17-.99.18-1.06.41-2.36.68-3.89.09-.51.18-1.05.28-1.62.35-2.03.78-4.43,1.28-7.28.13-.71.26-1.45.38-2.21,1.39-7.88,3.31-18.83,5.96-34-.41,9.81,11.53.04,15.4-3.36-4.29,4-18.54,18.57-16.84,33.38,1.36,11.83,10.99-7.51,17.01-21.05-4.9,12.25-11.53,31.01-9.72,38.86,2.06,9,16.91,3.11,24.43-.54Z"/>
        </g>
      </g>
    </mask>
    <linearGradient id="linear-gradient-14" x1="165.18" y1="139.35" x2="160.53" y2="168.48" xlink:href="#linear-gradient-2"/>
  </defs>
  <g class="cls-34">
    <g id="Layer_2" data-name="Layer 2">
      <g id="Layer_1-2" data-name="Layer 1">
        <g>
          <polygon class="cls-4" points="189.61 141.57 177.41 175.01 140.15 175.01 117.89 180.76 60.34 180.76 53.66 178.46 14.89 176.97 0 154.49 53.12 134.66 26.56 12.2 53.12 0 94.61 12.89 161.58 33.7 157.77 71.79 157.15 78.13 182.23 89.74 182.23 107.34 174.86 133.17 189.61 141.57"/>
          <polygon class="cls-13" points="160.45 44.95 157.15 78.13 140.15 175.01 117.89 180.76 60.34 180.76 53.12 134.66 26.56 12.2 44.27 34.56 66.81 44.88 87.23 54.22 117.78 42.79 97.6 54.22 131.14 58.66 160.45 44.95"/>
          <polygon class="cls-14" points="97.6 54.21 117.78 42.79 87.23 54.21 97.52 180.76 100.6 180.76 97.6 54.21"/>
          <polygon class="cls-1" points="44.27 34.55 44.27 72.95 53.12 134.66 26.56 12.2 44.27 34.55"/>
          <polygon class="cls-9" points="53.66 178.46 53.12 153.09 53.12 134.66 60.34 180.76 53.66 178.46"/>
          <polygon class="cls-2" points="53.66 178.46 53.12 153.09 53.12 134.66 60.34 180.76 53.66 178.46"/>
          <polygon class="cls-27" points="0 154.49 20.96 165.48 53.12 153.09 53.66 178.46 14.89 176.97 0 154.49"/>
          <polygon class="cls-11" points="0 154.49 20.96 165.48 23.96 177.31 14.89 176.97 0 154.49"/>
          <g class="cls-46">
            <polygon class="cls-12" points="128.81 113 128.81 110.8 135.71 56.52 131.14 58.66 117.89 180.76 128.81 177.94 128.81 124.75 138.46 111.77 128.81 113"/>
          </g>
          <polygon class="cls-5" points="157.15 78.13 160.45 91.54 170.09 102.15 150.56 115.65 157.15 78.13"/>
          <path class="cls-23" d="M186.49,150.13l-6.54,17.9-2.54,6.97h-37.25s.07-.38.75-4.24l.17-.99c.18-1.06.41-2.36.68-3.89l.28-1.62c.35-2.03.78-4.43,1.28-7.28l.38-2.21c1.39-7.88,3.31-18.83,5.96-34v-.06c.3-1.63.6-3.32.89-5.05l19.52-13.5,12.15,5.2-7.37,25.82,1.29,13.43,10.34,3.54Z"/>
          <polygon class="cls-18" points="174.86 133.17 168.09 175.01 170.09 175.01 176.16 146.59 174.86 133.17"/>
          <polygon class="cls-18" points="157.15 78.13 160.45 91.54 150.56 115.65 157.15 78.13"/>
          <polygon class="cls-20" points="44.27 34.55 44.27 72.95 47.19 35.89 44.27 34.55"/>
          <polygon class="cls-17" points="87.23 54.21 93.51 51.86 97.52 180.76 87.23 54.21"/>
          <polygon class="cls-5" points="128.81 124.75 128.18 116.31 138.46 111.77 128.81 124.75"/>
          <g class="cls-33">
            <path class="cls-19" d="M87.23,138.58c-2.91-7.03-5.21,25.58-6.16,42.18h-.54c-.24-22.22-1.79-76.92-10.96-76.86-14.47.06-1.5,61.47,1.97,76.86h-11.2s2.2-75.43,0-82.88c-2.2-7.45-3.31,21.99-9.31-33.06,7.01,38.64,13.17,44.49,15.79-19.93.27,74.32,6.76,51.93,15.28,31.13-6.52,36.32,9.02,71.91,5.14,62.57Z"/>
          </g>
          <g class="cls-42">
            <path class="cls-22" d="M102.5,54.87s7.14,46.46,7.14,50.97-2.46-51.24,8.13-36.44c10.59,14.8,0,63.91,0,63.91l13.36-74.64-28.64-3.79Z"/>
          </g>
          <g class="cls-43">
            <path class="cls-21" d="M161.58,33.7l-3.8,38.09c-15.82-1.55-28.96-4.1-26.63-8.26,4.36-7.77-38.13-20.83-55.48-25.78,19.96,5.37,74.92,19.05,78.65,8.21,2.51-7.3-16.4-10.62-33.97-12.12,6.47-.35,11.37-1.5,10.8-4.24-1.55-7.58-8.97-3.93-52.06-2.24,24.62-2.67,22.98-8.96,15.53-14.45l66.97,20.81Z"/>
          </g>
          <g class="cls-41">
            <path class="cls-15" d="M150.56,115.65c-.3,1.73-.6,3.42-.89,5.05.06-1.32.35-2.98.89-5.05Z"/>
          </g>
          <g class="cls-29">
            <path class="cls-3" d="M165.81,116.71c-.18.18-.43.41-.71.65.28-.27.53-.48.71-.65Z"/>
          </g>
          <g class="cls-38">
            <path class="cls-10" d="M179.95,168.04l-2.54,6.97h-37.25s.07-.38.75-4.24c.06-.31.11-.64.17-.99.18-1.06.41-2.36.68-3.89.09-.51.18-1.05.28-1.62.35-2.03.78-4.43,1.28-7.28.13-.71.26-1.45.38-2.21,1.39-7.88,3.31-18.83,5.96-34-.41,9.81,11.53.04,15.4-3.36-4.29,4-18.54,18.57-16.84,33.38,1.36,11.83,10.99-7.51,17.01-21.05-4.9,12.25-11.53,31.01-9.72,38.86,2.06,9,16.91,3.11,24.43-.54Z"/>
          </g>
        </g>
      </g>
    </g>
  </g>
</svg>